<ttFont>
<head>
    <!-- Most of this table will be recalculated by the compiler -->
    <tableVersion value="1.0"/>
    <fontRevision value="1.0"/>
    <checkSumAdjustment value="0xed7ba699"/>
    <magicNumber value="0x5f0f3cf5"/>
    <flags value="00000000 00011111"/>
    <unitsPerEm value="1000"/>
    <created value="Tue Jan 17 04:00:36 2017"/>
    <modified value="Tue Jan 17 04:00:36 2017"/>
    <xMin value="-639"/>
    <yMin value="-272"/>
    <xMax value="1803"/>
    <yMax value="900"/>
    <macStyle value="00000000 00000000"/>
    <lowestRecPPEM value="8"/>
    <fontDirectionHint value="2"/>
    <indexToLocFormat value="0"/>
    <glyphDataFormat value="0"/>
  </head>
    <TTGlyph name=".notdef" xMin="50" yMin="0" xMax="200" yMax="533">
      <contour>
        <pt x="50" y="0" on="1"/>
        <pt x="50" y="533" on="1"/>
        <pt x="200" y="533" on="1"/>
        <pt x="200" y="0" on="1"/>
      </contour>
      <contour>
        <pt x="100" y="50" on="1"/>
        <pt x="150" y="50" on="1"/>
        <pt x="150" y="483" on="1"/>
        <pt x="100" y="483" on="1"/>
      </contour>
    </TTGlyph>
    <TTGlyph name="A" xMin="32" yMin="0" xMax="717" yMax="716">
      <contour>
        <pt x="255" y="0" on="1"/>
        <pt x="237" y="3" on="0"/>
        <pt x="140" y="3" on="1"/>
        <pt x="51" y="3" on="0"/>
        <pt x="39" y="0" on="1"/>
        <pt x="32" y="0" on="1"/>
        <pt x="32" y="46" on="1"/>
        <pt x="47" y="46" on="1"/>
        <pt x="119" y="49" on="0"/>
        <pt x="139" y="88" on="1"/>
        <pt x="140" y="91" on="0"/>
        <pt x="244" y="400" on="0"/>
        <pt x="347" y="707" on="0"/>
        <pt x="348" y="708" on="1"/>
        <pt x="351" y="716" on="0"/>
        <pt x="367" y="716" on="1"/>
        <pt x="376" y="716" on="1"/>
        <pt x="396" y="715" on="0"/>
        <pt x="400" y="709" on="1"/>
        <pt x="401" y="708" on="0"/>
        <pt x="594" y="138" on="0"/>
        <pt x="617" y="67" on="1"/>
        <pt x="620" y="61" on="0"/>
        <pt x="624" y="57" on="1"/>
        <pt x="635" y="47" on="0"/>
        <pt x="687" y="46" on="1"/>
        <pt x="717" y="46" on="1"/>
        <pt x="717" y="0" on="1"/>
        <pt x="708" y="0" on="1"/>
        <pt x="693" y="3" on="0"/>
        <pt x="581" y="3" on="1"/>
        <pt x="452" y="3" on="0"/>
        <pt x="437" y="0" on="1"/>
        <pt x="427" y="0" on="1"/>
        <pt x="427" y="46" on="1"/>
        <pt x="440" y="46" on="1"/>
        <pt x="510" y="46" on="0"/>
        <pt x="510" y="64" on="1"/>
        <pt x="510" y="66" on="0"/>
        <pt x="486" y="138" on="1"/>
        <pt x="462" y="209" on="1"/>
        <pt x="229" y="209" on="1"/>
        <pt x="209" y="150" on="1"/>
        <pt x="189" y="91" on="0"/>
        <pt x="189" y="85" on="1"/>
        <pt x="189" y="80" on="0"/>
        <pt x="192" y="76" on="1"/>
        <pt x="198" y="63" on="0"/>
        <pt x="237" y="46" on="0"/>
        <pt x="259" y="46" on="1"/>
        <pt x="264" y="46" on="1"/>
        <pt x="264" y="0" on="1"/>
      </contour>
      <contour>
        <pt x="416" y="347" on="1"/>
        <pt x="387" y="434" on="0"/>
        <pt x="365" y="498" on="1"/>
        <pt x="345" y="557" on="1"/>
        <pt x="295" y="407" on="1"/>
        <pt x="244" y="256" on="1"/>
        <pt x="244" y="255" on="0"/>
        <pt x="345" y="255" on="1"/>
        <pt x="447" y="255" on="1"/>
      </contour>
    </TTGlyph>
    <TTGlyph name="AE" xMin="32" yMin="0" xMax="874" yMax="683">
      <contour>
        <pt x="256" y="0" on="1"/>
        <pt x="238" y="3" on="0"/>
        <pt x="140" y="3" on="1"/>
        <pt x="51" y="3" on="0"/>
        <pt x="39" y="0" on="1"/>
        <pt x="32" y="0" on="1"/>
        <pt x="32" y="46" on="1"/>
        <pt x="40" y="46" on="1"/>
        <pt x="113" y="46" on="0"/>
        <pt x="138" y="84" on="1"/>
        <pt x="148" y="104" on="0"/>
        <pt x="331" y="637" on="1"/>
        <pt x="258" y="637" on="1"/>
        <pt x="258" y="683" on="1"/>
        <pt x="819" y="683" on="1"/>
        <pt x="819" y="679" on="1"/>
        <pt x="819" y="678" on="0"/>
        <pt x="847" y="448" on="0"/>
        <pt x="847" y="447" on="1"/>
        <pt x="847" y="443" on="1"/>
        <pt x="807" y="443" on="1"/>
        <pt x="802" y="487" on="0"/>
        <pt x="791" y="541" on="0"/>
        <pt x="772" y="589" on="0"/>
        <pt x="746" y="613" on="0"/>
        <pt x="703" y="631" on="0"/>
        <pt x="649" y="637" on="0"/>
        <pt x="608" y="637" on="1"/>
        <pt x="535" y="637" on="0"/>
        <pt x="527" y="635" on="1"/>
        <pt x="518" y="634" on="0"/>
        <pt x="515" y="624" on="1"/>
        <pt x="514" y="622" on="0"/>
        <pt x="514" y="486" on="1"/>
        <pt x="514" y="351" on="1"/>
        <pt x="554" y="351" on="1"/>
        <pt x="628" y="351" on="0"/>
        <pt x="676" y="383" on="0"/>
        <pt x="679" y="447" on="1"/>
        <pt x="679" y="468" on="1"/>
        <pt x="719" y="468" on="1"/>
        <pt x="719" y="188" on="1"/>
        <pt x="679" y="188" on="1"/>
        <pt x="679" y="209" on="1"/>
        <pt x="676" y="273" on="0"/>
        <pt x="628" y="305" on="0"/>
        <pt x="554" y="305" on="1"/>
        <pt x="514" y="305" on="1"/>
        <pt x="514" y="184" on="1"/>
        <pt x="514" y="61" on="0"/>
        <pt x="515" y="59" on="1"/>
        <pt x="518" y="49" on="0"/>
        <pt x="527" y="48" on="1"/>
        <pt x="535" y="46" on="0"/>
        <pt x="610" y="46" on="1"/>
        <pt x="673" y="46" on="0"/>
        <pt x="746" y="61" on="0"/>
        <pt x="795" y="109" on="0"/>
        <pt x="819" y="178" on="0"/>
        <pt x="829" y="242" on="1"/>
        <pt x="833" y="268" on="0"/>
        <pt x="834" y="270" on="1"/>
        <pt x="834" y="273" on="1"/>
        <pt x="874" y="273" on="1"/>
        <pt x="874" y="270" on="1"/>
        <pt x="872" y="267" on="0"/>
        <pt x="833" y="6" on="0"/>
        <pt x="832" y="3" on="1"/>
        <pt x="832" y="0" on="1"/>
        <pt x="339" y="0" on="1"/>
        <pt x="339" y="46" on="1"/>
        <pt x="355" y="46" on="1"/>
        <pt x="382" y="46" on="0"/>
        <pt x="403" y="49" on="1"/>
        <pt x="411" y="52" on="0"/>
        <pt x="415" y="60" on="1"/>
        <pt x="416" y="62" on="0"/>
        <pt x="416" y="184" on="1"/>
        <pt x="416" y="305" on="1"/>
        <pt x="265" y="305" on="1"/>
        <pt x="228" y="199" on="1"/>
        <pt x="219" y="174" on="0"/>
        <pt x="200" y="119" on="0"/>
        <pt x="195" y="104" on="1"/>
        <pt x="190" y="90" on="1"/>
        <pt x="187" y="72" on="0"/>
        <pt x="234" y="46" on="0"/>
        <pt x="259" y="46" on="1"/>
        <pt x="264" y="46" on="1"/>
        <pt x="264" y="0" on="1"/>
      </contour>
      <contour>
        <pt x="416" y="620" on="1"/>
        <pt x="407" y="634" on="0"/>
        <pt x="384" y="634" on="1"/>
        <pt x="379" y="635" on="1"/>
        <pt x="378" y="630" on="0"/>
        <pt x="329" y="490" on="0"/>
        <pt x="281" y="354" on="0"/>
        <pt x="281" y="353" on="1"/>
        <pt x="281" y="351" on="0"/>
        <pt x="348" y="351" on="1"/>
        <pt x="416" y="351" on="1"/>
      </contour>
    </TTGlyph>
    <TTGlyph name="B" xMin="28" yMin="0" xMax="651" yMax="683">
      <contour>
        <pt x="131" y="622" on="1"/>
        <pt x="121" y="632" on="0"/>
        <pt x="102" y="636" on="0"/>
        <pt x="61" y="637" on="1"/>
        <pt x="28" y="637" on="1"/>
        <pt x="28" y="683" on="1"/>
        <pt x="229" y="683" on="1"/>
        <pt x="430" y="682" on="0"/>
        <pt x="443" y="680" on="1"/>
        <pt x="497" y="671" on="0"/>
        <pt x="531" y="651" on="1"/>
        <pt x="589" y="618" on="0"/>
        <pt x="612" y="567" on="1"/>
        <pt x="624" y="540" on="0"/>
        <pt x="624" y="512" on="1"/>
        <pt x="624" y="461" on="0"/>
        <pt x="542" y="376" on="0"/>
        <pt x="476" y="360" on="1"/>
        <pt x="466" y="357" on="1"/>
        <pt x="536" y="349" on="0"/>
        <pt x="637" y="271" on="0"/>
        <pt x="650" y="211" on="1"/>
        <pt x="651" y="205" on="0"/>
        <pt x="651" y="187" on="1"/>
        <pt x="651" y="164" on="0"/>
        <pt x="649" y="156" on="1"/>
        <pt x="636" y="97" on="0"/>
        <pt x="538" y="13" on="0"/>
        <pt x="469" y="3" on="1"/>
        <pt x="456" y="1" on="0"/>
        <pt x="242" y="0" on="1"/>
        <pt x="28" y="0" on="1"/>
        <pt x="28" y="46" on="1"/>
        <pt x="61" y="46" on="1"/>
        <pt x="102" y="47" on="0"/>
        <pt x="121" y="51" on="0"/>
        <pt x="131" y="61" on="1"/>
      </contour>
      <contour>
        <pt x="511" y="513" on="1"/>
        <pt x="511" y="560" on="0"/>
        <pt x="458" y="628" on="0"/>
        <pt x="416" y="636" on="1"/>
        <pt x="415" y="636" on="0"/>
        <pt x="390" y="636" on="0"/>
        <pt x="351" y="637" on="0"/>
        <pt x="315" y="637" on="0"/>
        <pt x="276" y="636" on="0"/>
        <pt x="250" y="636" on="0"/>
        <pt x="248" y="636" on="1"/>
        <pt x="235" y="635" on="0"/>
        <pt x="232" y="628" on="1"/>
        <pt x="229" y="624" on="0"/>
        <pt x="229" y="499" on="1"/>
        <pt x="229" y="374" on="1"/>
        <pt x="312" y="374" on="1"/>
        <pt x="396" y="375" on="1"/>
        <pt x="406" y="377" on="1"/>
        <pt x="409" y="378" on="0"/>
        <pt x="416" y="380" on="1"/>
        <pt x="422" y="382" on="1"/>
        <pt x="461" y="396" on="0"/>
        <pt x="511" y="465" on="0"/>
      </contour>
      <contour>
        <pt x="537" y="188" on="1"/>
        <pt x="537" y="245" on="0"/>
        <pt x="477" y="325" on="0"/>
        <pt x="430" y="336" on="1"/>
        <pt x="329" y="337" on="1"/>
        <pt x="229" y="337" on="1"/>
        <pt x="229" y="200" on="1"/>
        <pt x="229" y="61" on="0"/>
        <pt x="230" y="59" on="1"/>
        <pt x="232" y="54" on="0"/>
        <pt x="234" y="52" on="1"/>
        <pt x="240" y="47" on="0"/>
        <pt x="334" y="47" on="1"/>
        <pt x="383" y="47" on="1"/>
        <pt x="425" y="47" on="0"/>
        <pt x="443" y="53" on="1"/>
        <pt x="486" y="67" on="0"/>
        <pt x="537" y="141" on="0"/>
      </contour>
    </TTGlyph>
    <TTGlyph name="C" xMin="56" yMin="-21" xMax="666" yMax="705">
      <contour>
        <pt x="660" y="257" on="1"/>
        <pt x="666" y="251" on="1"/>
        <pt x="666" y="236" on="1"/>
        <pt x="661" y="146" on="0"/>
        <pt x="553" y="8" on="0"/>
        <pt x="468" y="-14" on="1"/>
        <pt x="439" y="-21" on="0"/>
        <pt x="403" y="-21" on="1"/>
        <pt x="366" y="-21" on="0"/>
        <pt x="340" y="-15" on="1"/>
        <pt x="228" y="7" on="0"/>
        <pt x="75" y="175" on="0"/>
        <pt x="57" y="299" on="1"/>
        <pt x="56" y="308" on="0"/>
        <pt x="56" y="342" on="1"/>
        <pt x="56" y="375" on="0"/>
        <pt x="57" y="385" on="1"/>
        <pt x="74" y="507" on="0"/>
        <pt x="228" y="676" on="0"/>
        <pt x="340" y="699" on="1"/>
        <pt x="372" y="705" on="0"/>
        <pt x="391" y="705" on="1"/>
        <pt x="393" y="705" on="0"/>
        <pt x="405" y="704" on="0"/>
        <pt x="408" y="704" on="1"/>
        <pt x="432" y="704" on="0"/>
        <pt x="442" y="702" on="1"/>
        <pt x="515" y="689" on="0"/>
        <pt x="569" y="636" on="1"/>
        <pt x="582" y="624" on="1"/>
        <pt x="612" y="663" on="1"/>
        <pt x="639" y="700" on="0"/>
        <pt x="643" y="704" on="1"/>
        <pt x="644" y="704" on="0"/>
        <pt x="650" y="705" on="0"/>
        <pt x="653" y="705" on="1"/>
        <pt x="660" y="705" on="0"/>
        <pt x="666" y="699" on="1"/>
        <pt x="666" y="419" on="1"/>
        <pt x="660" y="413" on="1"/>
        <pt x="626" y="413" on="1"/>
        <pt x="620" y="419" on="0"/>
        <pt x="619" y="430" on="1"/>
        <pt x="610" y="512" on="0"/>
        <pt x="532" y="632" on="0"/>
        <pt x="476" y="651" on="1"/>
        <pt x="457" y="658" on="0"/>
        <pt x="426" y="658" on="1"/>
        <pt x="322" y="658" on="0"/>
        <pt x="252" y="588" on="1"/>
        <pt x="173" y="509" on="0"/>
        <pt x="173" y="342" on="1"/>
        <pt x="173" y="221" on="0"/>
        <pt x="211" y="151" on="1"/>
        <pt x="242" y="92" on="0"/>
        <pt x="357" y="24" on="0"/>
        <pt x="428" y="24" on="1"/>
        <pt x="501" y="24" on="0"/>
        <pt x="609" y="129" on="0"/>
        <pt x="621" y="200" on="1"/>
        <pt x="626" y="225" on="0"/>
        <pt x="626" y="244" on="1"/>
        <pt x="626" y="251" on="0"/>
        <pt x="632" y="257" on="1"/>
      </contour>
    </TTGlyph>
    <TTGlyph name="D" xMin="27" yMin="0" xMax="708" yMax="683">
      <contour>
        <pt x="130" y="622" on="1"/>
        <pt x="120" y="632" on="0"/>
        <pt x="101" y="636" on="0"/>
        <pt x="60" y="637" on="1"/>
        <pt x="27" y="637" on="1"/>
        <pt x="27" y="683" on="1"/>
        <pt x="228" y="683" on="1"/>
        <pt x="399" y="682" on="0"/>
        <pt x="439" y="681" on="0"/>
        <pt x="461" y="676" on="1"/>
        <pt x="559" y="655" on="0"/>
        <pt x="692" y="489" on="0"/>
        <pt x="706" y="379" on="1"/>
        <pt x="708" y="359" on="0"/>
        <pt x="708" y="313" on="0"/>
        <pt x="706" y="293" on="1"/>
        <pt x="692" y="182" on="0"/>
        <pt x="550" y="21" on="0"/>
        <pt x="442" y="3" on="1"/>
        <pt x="429" y="1" on="0"/>
        <pt x="228" y="0" on="1"/>
        <pt x="27" y="0" on="1"/>
        <pt x="27" y="46" on="1"/>
        <pt x="60" y="46" on="1"/>
        <pt x="101" y="47" on="0"/>
        <pt x="120" y="51" on="0"/>
        <pt x="130" y="61" on="1"/>
      </contour>
      <contour>
        <pt x="395" y="636" on="1"/>
        <pt x="393" y="636" on="0"/>
        <pt x="370" y="636" on="0"/>
        <pt x="336" y="637" on="0"/>
        <pt x="308" y="637" on="0"/>
        <pt x="274" y="636" on="0"/>
        <pt x="252" y="636" on="0"/>
        <pt x="250" y="636" on="1"/>
        <pt x="237" y="635" on="0"/>
        <pt x="234" y="628" on="1"/>
        <pt x="231" y="624" on="0"/>
        <pt x="231" y="344" on="1"/>
        <pt x="231" y="62" on="0"/>
        <pt x="232" y="59" on="1"/>
        <pt x="234" y="50" on="0"/>
        <pt x="244" y="48" on="1"/>
        <pt x="252" y="46" on="0"/>
        <pt x="339" y="46" on="1"/>
        <pt x="404" y="46" on="0"/>
        <pt x="479" y="66" on="0"/>
        <pt x="515" y="95" on="1"/>
        <pt x="593" y="160" on="0"/>
        <pt x="593" y="338" on="1"/>
        <pt x="593" y="406" on="0"/>
        <pt x="586" y="442" on="1"/>
        <pt x="570" y="550" on="0"/>
        <pt x="493" y="602" on="1"/>
        <pt x="449" y="631" on="0"/>
      </contour>
    </TTGlyph>
    <TTGlyph name="Delta" xMin="46" yMin="0" xMax="786" yMax="716">
      <contour>
        <pt x="51" y="0" on="1"/>
        <pt x="46" y="2" on="0"/>
        <pt x="46" y="7" on="1"/>
        <pt x="46" y="9" on="0"/>
        <pt x="385" y="705" on="0"/>
        <pt x="388" y="709" on="1"/>
        <pt x="392" y="716" on="0"/>
        <pt x="407" y="716" on="1"/>
        <pt x="416" y="716" on="1"/>
        <pt x="439" y="716" on="0"/>
        <pt x="444" y="709" on="1"/>
        <pt x="447" y="705" on="0"/>
        <pt x="786" y="9" on="0"/>
        <pt x="786" y="7" on="1"/>
        <pt x="786" y="2" on="0"/>
        <pt x="781" y="0" on="1"/>
      </contour>
      <contour>
        <pt x="630" y="91" on="1"/>
        <pt x="384" y="596" on="1"/>
        <pt x="328" y="483" on="0"/>
        <pt x="260" y="344" on="1"/>
        <pt x="137" y="92" on="1"/>
        <pt x="383" y="91" on="1"/>
      </contour>
    </TTGlyph>
    <TTGlyph name="E" xMin="25" yMin="0" xMax="652" yMax="680">
      <contour>
        <pt x="128" y="619" on="1"/>
        <pt x="118" y="629" on="0"/>
        <pt x="99" y="633" on="0"/>
        <pt x="58" y="634" on="1"/>
        <pt x="25" y="634" on="1"/>
        <pt x="25" y="680" on="1"/>
        <pt x="597" y="680" on="1"/>
        <pt x="597" y="676" on="1"/>
        <pt x="611" y="560" on="1"/>
        <pt x="625" y="445" on="0"/>
        <pt x="625" y="444" on="1"/>
        <pt x="625" y="440" on="1"/>
        <pt x="585" y="440" on="1"/>
        <pt x="585" y="444" on="1"/>
        <pt x="584" y="447" on="0"/>
        <pt x="582" y="465" on="1"/>
        <pt x="570" y="559" on="0"/>
        <pt x="503" y="628" on="0"/>
        <pt x="421" y="633" on="1"/>
        <pt x="411" y="634" on="0"/>
        <pt x="353" y="634" on="1"/>
        <pt x="253" y="634" on="0"/>
        <pt x="245" y="632" on="1"/>
        <pt x="236" y="631" on="0"/>
        <pt x="233" y="621" on="1"/>
        <pt x="232" y="619" on="0"/>
        <pt x="232" y="497" on="1"/>
        <pt x="232" y="376" on="1"/>
        <pt x="286" y="376" on="1"/>
        <pt x="351" y="377" on="0"/>
        <pt x="366" y="382" on="1"/>
        <pt x="394" y="390" on="0"/>
        <pt x="414" y="431" on="0"/>
        <pt x="416" y="473" on="1"/>
        <pt x="416" y="493" on="1"/>
        <pt x="456" y="493" on="1"/>
        <pt x="456" y="213" on="1"/>
        <pt x="416" y="213" on="1"/>
        <pt x="416" y="233" on="1"/>
        <pt x="414" y="275" on="0"/>
        <pt x="394" y="316" on="0"/>
        <pt x="366" y="324" on="1"/>
        <pt x="351" y="329" on="0"/>
        <pt x="286" y="330" on="1"/>
        <pt x="232" y="330" on="1"/>
        <pt x="232" y="196" on="1"/>
        <pt x="232" y="61" on="0"/>
        <pt x="233" y="59" on="1"/>
        <pt x="234" y="54" on="0"/>
        <pt x="237" y="52" on="1"/>
        <pt x="243" y="47" on="0"/>
        <pt x="289" y="47" on="1"/>
        <pt x="340" y="47" on="1"/>
        <pt x="430" y="47" on="0"/>
        <pt x="444" y="48" on="1"/>
        <pt x="502" y="55" on="0"/>
        <pt x="567" y="100" on="0"/>
        <pt x="584" y="146" on="1"/>
        <pt x="598" y="183" on="0"/>
        <pt x="607" y="243" on="1"/>
        <pt x="611" y="268" on="0"/>
        <pt x="612" y="270" on="1"/>
        <pt x="612" y="273" on="1"/>
        <pt x="652" y="273" on="1"/>
        <pt x="652" y="270" on="1"/>
        <pt x="651" y="267" on="0"/>
        <pt x="612" y="6" on="0"/>
        <pt x="610" y="3" on="1"/>
        <pt x="610" y="0" on="1"/>
        <pt x="25" y="0" on="1"/>
        <pt x="25" y="46" on="1"/>
        <pt x="58" y="46" on="1"/>
        <pt x="99" y="47" on="0"/>
        <pt x="118" y="51" on="0"/>
        <pt x="128" y="61" on="1"/>
      </contour>
    </TTGlyph>
    <TTGlyph name="F" xMin="25" yMin="0" xMax="610" yMax="680">
      <contour>
        <pt x="128" y="619" on="1"/>
        <pt x="118" y="629" on="0"/>
        <pt x="99" y="633" on="0"/>
        <pt x="58" y="634" on="1"/>
        <pt x="25" y="634" on="1"/>
        <pt x="25" y="680" on="1"/>
        <pt x="582" y="680" on="1"/>
        <pt x="582" y="676" on="1"/>
        <pt x="596" y="560" on="1"/>
        <pt x="610" y="445" on="0"/>
        <pt x="610" y="444" on="1"/>
        <pt x="610" y="440" on="1"/>
        <pt x="570" y="440" on="1"/>
        <pt x="570" y="444" on="1"/>
        <pt x="563" y="493" on="0"/>
        <pt x="561" y="501" on="1"/>
        <pt x="552" y="558" on="0"/>
        <pt x="505" y="618" on="0"/>
        <pt x="455" y="628" on="1"/>
        <pt x="429" y="633" on="0"/>
        <pt x="334" y="633" on="1"/>
        <pt x="286" y="633" on="1"/>
        <pt x="243" y="633" on="0"/>
        <pt x="237" y="628" on="1"/>
        <pt x="234" y="626" on="0"/>
        <pt x="233" y="621" on="1"/>
        <pt x="232" y="619" on="0"/>
        <pt x="232" y="490" on="1"/>
        <pt x="232" y="363" on="1"/>
        <pt x="284" y="363" on="1"/>
        <pt x="326" y="364" on="0"/>
        <pt x="364" y="368" on="0"/>
        <pt x="397" y="388" on="0"/>
        <pt x="408" y="425" on="0"/>
        <pt x="410" y="459" on="1"/>
        <pt x="410" y="480" on="1"/>
        <pt x="450" y="480" on="1"/>
        <pt x="450" y="200" on="1"/>
        <pt x="410" y="200" on="1"/>
        <pt x="410" y="221" on="1"/>
        <pt x="408" y="255" on="0"/>
        <pt x="397" y="292" on="0"/>
        <pt x="364" y="312" on="0"/>
        <pt x="326" y="316" on="0"/>
        <pt x="284" y="317" on="1"/>
        <pt x="232" y="317" on="1"/>
        <pt x="232" y="189" on="1"/>
        <pt x="233" y="61" on="1"/>
        <pt x="241" y="53" on="0"/>
        <pt x="257" y="48" on="0"/>
        <pt x="285" y="47" on="1"/>
        <pt x="296" y="46" on="0"/>
        <pt x="333" y="46" on="1"/>
        <pt x="360" y="46" on="1"/>
        <pt x="360" y="0" on="1"/>
        <pt x="348" y="0" on="1"/>
        <pt x="322" y="3" on="0"/>
        <pt x="182" y="3" on="1"/>
        <pt x="55" y="3" on="0"/>
        <pt x="36" y="0" on="1"/>
        <pt x="25" y="0" on="1"/>
        <pt x="25" y="46" on="1"/>
        <pt x="58" y="46" on="1"/>
        <pt x="99" y="47" on="0"/>
        <pt x="118" y="51" on="0"/>
        <pt x="128" y="61" on="1"/>
      </contour>
    </TTGlyph>
    <TTGlyph name="G" xMin="56" yMin="-22" xMax="735" yMax="705">
      <contour>
        <pt x="449" y="273" on="1"/>
        <pt x="473" y="270" on="0"/>
        <pt x="609" y="270" on="1"/>
        <pt x="619" y="270" on="0"/>
        <pt x="656" y="271" on="0"/>
        <pt x="666" y="271" on="1"/>
        <pt x="677" y="271" on="0"/>
        <pt x="709" y="272" on="0"/>
        <pt x="725" y="273" on="0"/>
        <pt x="727" y="273" on="1"/>
        <pt x="735" y="273" on="1"/>
        <pt x="735" y="227" on="1"/>
        <pt x="721" y="227" on="1"/>
        <pt x="711" y="227" on="1"/>
        <pt x="675" y="227" on="0"/>
        <pt x="668" y="215" on="1"/>
        <pt x="666" y="211" on="0"/>
        <pt x="666" y="108" on="1"/>
        <pt x="666" y="6" on="1"/>
        <pt x="660" y="0" on="0"/>
        <pt x="657" y="0" on="1"/>
        <pt x="653" y="0" on="0"/>
        <pt x="639" y="10" on="1"/>
        <pt x="617" y="25" on="0"/>
        <pt x="600" y="42" on="1"/>
        <pt x="587" y="54" on="1"/>
        <pt x="568" y="22" on="0"/>
        <pt x="504" y="-6" on="1"/>
        <pt x="456" y="-22" on="0"/>
        <pt x="406" y="-22" on="1"/>
        <pt x="369" y="-22" on="0"/>
        <pt x="340" y="-15" on="1"/>
        <pt x="228" y="7" on="0"/>
        <pt x="75" y="175" on="0"/>
        <pt x="57" y="299" on="1"/>
        <pt x="56" y="308" on="0"/>
        <pt x="56" y="342" on="1"/>
        <pt x="56" y="375" on="0"/>
        <pt x="57" y="385" on="1"/>
        <pt x="74" y="507" on="0"/>
        <pt x="228" y="676" on="0"/>
        <pt x="340" y="699" on="1"/>
        <pt x="372" y="705" on="0"/>
        <pt x="391" y="705" on="1"/>
        <pt x="393" y="705" on="0"/>
        <pt x="405" y="704" on="0"/>
        <pt x="408" y="704" on="1"/>
        <pt x="432" y="704" on="0"/>
        <pt x="442" y="702" on="1"/>
        <pt x="515" y="689" on="0"/>
        <pt x="569" y="636" on="1"/>
        <pt x="582" y="624" on="1"/>
        <pt x="612" y="663" on="1"/>
        <pt x="639" y="700" on="0"/>
        <pt x="643" y="704" on="1"/>
        <pt x="644" y="704" on="0"/>
        <pt x="650" y="705" on="0"/>
        <pt x="653" y="705" on="1"/>
        <pt x="660" y="705" on="0"/>
        <pt x="666" y="699" on="1"/>
        <pt x="666" y="419" on="1"/>
        <pt x="660" y="413" on="1"/>
        <pt x="626" y="413" on="1"/>
        <pt x="620" y="419" on="0"/>
        <pt x="619" y="430" on="1"/>
        <pt x="610" y="512" on="0"/>
        <pt x="532" y="632" on="0"/>
        <pt x="476" y="651" on="1"/>
        <pt x="457" y="658" on="0"/>
        <pt x="426" y="658" on="1"/>
        <pt x="322" y="658" on="0"/>
        <pt x="252" y="588" on="1"/>
        <pt x="173" y="509" on="0"/>
        <pt x="173" y="335" on="1"/>
        <pt x="173" y="179" on="0"/>
        <pt x="248" y="101" on="1"/>
        <pt x="320" y="24" on="0"/>
        <pt x="431" y="24" on="1"/>
        <pt x="478" y="24" on="0"/>
        <pt x="549" y="66" on="0"/>
        <pt x="559" y="100" on="1"/>
        <pt x="562" y="110" on="0"/>
        <pt x="562" y="160" on="1"/>
        <pt x="562" y="212" on="1"/>
        <pt x="546" y="223" on="0"/>
        <pt x="538" y="224" on="1"/>
        <pt x="521" y="227" on="0"/>
        <pt x="463" y="227" on="1"/>
        <pt x="437" y="227" on="1"/>
        <pt x="437" y="273" on="1"/>
      </contour>
    </TTGlyph>
    <TTGlyph name="Gamma" xMin="25" yMin="0" xMax="582" yMax="680">
      <contour>
        <pt x="128" y="619" on="1"/>
        <pt x="118" y="629" on="0"/>
        <pt x="99" y="633" on="0"/>
        <pt x="58" y="634" on="1"/>
        <pt x="25" y="634" on="1"/>
        <pt x="25" y="680" on="1"/>
        <pt x="554" y="680" on="1"/>
        <pt x="554" y="676" on="1"/>
        <pt x="568" y="560" on="1"/>
        <pt x="582" y="445" on="0"/>
        <pt x="582" y="444" on="1"/>
        <pt x="582" y="440" on="1"/>
        <pt x="542" y="440" on="1"/>
        <pt x="542" y="444" on="1"/>
        <pt x="542" y="445" on="0"/>
        <pt x="540" y="453" on="0"/>
        <pt x="539" y="465" on="0"/>
        <pt x="538" y="469" on="1"/>
        <pt x="525" y="572" on="0"/>
        <pt x="446" y="634" on="0"/>
        <pt x="334" y="634" on="1"/>
        <pt x="253" y="634" on="0"/>
        <pt x="245" y="632" on="1"/>
        <pt x="235" y="630" on="0"/>
        <pt x="233" y="621" on="1"/>
        <pt x="232" y="618" on="0"/>
        <pt x="232" y="339" on="1"/>
        <pt x="233" y="61" on="1"/>
        <pt x="241" y="53" on="0"/>
        <pt x="257" y="48" on="0"/>
        <pt x="285" y="47" on="1"/>
        <pt x="296" y="46" on="0"/>
        <pt x="333" y="46" on="1"/>
        <pt x="360" y="46" on="1"/>
        <pt x="360" y="0" on="1"/>
        <pt x="348" y="0" on="1"/>
        <pt x="322" y="3" on="0"/>
        <pt x="182" y="3" on="1"/>
        <pt x="55" y="3" on="0"/>
        <pt x="36" y="0" on="1"/>
        <pt x="25" y="0" on="1"/>
        <pt x="25" y="46" on="1"/>
        <pt x="58" y="46" on="1"/>
        <pt x="99" y="47" on="0"/>
        <pt x="118" y="51" on="0"/>
        <pt x="128" y="61" on="1"/>
      </contour>
    </TTGlyph>
    <TTGlyph name="H" xMin="25" yMin="0" xMax="724" yMax="683">
      <contour>
        <pt x="128" y="622" on="1"/>
        <pt x="118" y="632" on="0"/>
        <pt x="99" y="636" on="0"/>
        <pt x="58" y="637" on="1"/>
        <pt x="25" y="637" on="1"/>
        <pt x="25" y="683" on="1"/>
        <pt x="36" y="683" on="1"/>
        <pt x="53" y="680" on="0"/>
        <pt x="307" y="680" on="0"/>
        <pt x="324" y="683" on="1"/>
        <pt x="335" y="683" on="1"/>
        <pt x="335" y="637" on="1"/>
        <pt x="302" y="637" on="1"/>
        <pt x="261" y="636" on="0"/>
        <pt x="240" y="632" on="0"/>
        <pt x="233" y="622" on="1"/>
        <pt x="232" y="500" on="1"/>
        <pt x="232" y="378" on="1"/>
        <pt x="517" y="378" on="1"/>
        <pt x="517" y="622" on="1"/>
        <pt x="507" y="632" on="0"/>
        <pt x="488" y="636" on="0"/>
        <pt x="447" y="637" on="1"/>
        <pt x="414" y="637" on="1"/>
        <pt x="414" y="683" on="1"/>
        <pt x="425" y="683" on="1"/>
        <pt x="442" y="680" on="0"/>
        <pt x="696" y="680" on="0"/>
        <pt x="713" y="683" on="1"/>
        <pt x="724" y="683" on="1"/>
        <pt x="724" y="637" on="1"/>
        <pt x="691" y="637" on="1"/>
        <pt x="650" y="636" on="0"/>
        <pt x="629" y="632" on="0"/>
        <pt x="622" y="622" on="1"/>
        <pt x="622" y="61" on="1"/>
        <pt x="629" y="51" on="0"/>
        <pt x="650" y="47" on="0"/>
        <pt x="691" y="46" on="1"/>
        <pt x="724" y="46" on="1"/>
        <pt x="724" y="0" on="1"/>
        <pt x="713" y="0" on="1"/>
        <pt x="696" y="3" on="0"/>
        <pt x="442" y="3" on="0"/>
        <pt x="425" y="0" on="1"/>
        <pt x="414" y="0" on="1"/>
        <pt x="414" y="46" on="1"/>
        <pt x="447" y="46" on="1"/>
        <pt x="488" y="47" on="0"/>
        <pt x="507" y="51" on="0"/>
        <pt x="517" y="61" on="1"/>
        <pt x="517" y="332" on="1"/>
        <pt x="232" y="332" on="1"/>
        <pt x="232" y="197" on="1"/>
        <pt x="233" y="61" on="1"/>
        <pt x="240" y="51" on="0"/>
        <pt x="261" y="47" on="0"/>
        <pt x="302" y="46" on="1"/>
        <pt x="335" y="46" on="1"/>
        <pt x="335" y="0" on="1"/>
        <pt x="324" y="0" on="1"/>
        <pt x="307" y="3" on="0"/>
        <pt x="53" y="3" on="0"/>
        <pt x="36" y="0" on="1"/>
        <pt x="25" y="0" on="1"/>
        <pt x="25" y="46" on="1"/>
        <pt x="58" y="46" on="1"/>
        <pt x="99" y="47" on="0"/>
        <pt x="118" y="51" on="0"/>
        <pt x="128" y="61" on="1"/>
      </contour>
    </TTGlyph>
    <TTGlyph name="I" xMin="21" yMin="0" xMax="339" yMax="683">
      <contour>
        <pt x="328" y="0" on="1"/>
        <pt x="312" y="3" on="0"/>
        <pt x="48" y="3" on="0"/>
        <pt x="32" y="0" on="1"/>
        <pt x="21" y="0" on="1"/>
        <pt x="21" y="46" on="1"/>
        <pt x="43" y="46" on="1"/>
        <pt x="82" y="46" on="0"/>
        <pt x="109" y="49" on="1"/>
        <pt x="121" y="52" on="0"/>
        <pt x="126" y="60" on="1"/>
        <pt x="128" y="63" on="0"/>
        <pt x="128" y="342" on="1"/>
        <pt x="128" y="620" on="0"/>
        <pt x="126" y="623" on="1"/>
        <pt x="121" y="631" on="0"/>
        <pt x="109" y="634" on="1"/>
        <pt x="82" y="637" on="0"/>
        <pt x="43" y="637" on="1"/>
        <pt x="21" y="637" on="1"/>
        <pt x="21" y="683" on="1"/>
        <pt x="32" y="683" on="1"/>
        <pt x="48" y="680" on="0"/>
        <pt x="312" y="680" on="0"/>
        <pt x="328" y="683" on="1"/>
        <pt x="339" y="683" on="1"/>
        <pt x="339" y="637" on="1"/>
        <pt x="317" y="637" on="1"/>
        <pt x="278" y="637" on="0"/>
        <pt x="251" y="634" on="1"/>
        <pt x="239" y="631" on="0"/>
        <pt x="234" y="623" on="1"/>
        <pt x="232" y="620" on="0"/>
        <pt x="232" y="342" on="1"/>
        <pt x="232" y="63" on="0"/>
        <pt x="234" y="60" on="1"/>
        <pt x="239" y="52" on="0"/>
        <pt x="251" y="49" on="1"/>
        <pt x="278" y="46" on="0"/>
        <pt x="317" y="46" on="1"/>
        <pt x="339" y="46" on="1"/>
        <pt x="339" y="0" on="1"/>
      </contour>
    </TTGlyph>
    <TTGlyph name="Ifraktur" xMin="55" yMin="-10" xMax="693" yMax="705">
      <contour>
        <pt x="55" y="507" on="1"/>
        <pt x="55" y="589" on="0"/>
        <pt x="176" y="705" on="0"/>
        <pt x="260" y="705" on="1"/>
        <pt x="338" y="705" on="0"/>
        <pt x="413" y="653" on="1"/>
        <pt x="467" y="616" on="0"/>
        <pt x="526" y="541" on="1"/>
        <pt x="542" y="522" on="0"/>
        <pt x="556" y="512" on="0"/>
        <pt x="567" y="512" on="1"/>
        <pt x="598" y="512" on="0"/>
        <pt x="647" y="530" on="0"/>
        <pt x="647" y="550" on="1"/>
        <pt x="647" y="558" on="0"/>
        <pt x="656" y="561" on="0"/>
        <pt x="670" y="561" on="1"/>
        <pt x="679" y="561" on="1"/>
        <pt x="685" y="561" on="0"/>
        <pt x="690" y="560" on="0"/>
        <pt x="693" y="554" on="0"/>
        <pt x="693" y="548" on="1"/>
        <pt x="693" y="536" on="0"/>
        <pt x="686" y="523" on="1"/>
        <pt x="661" y="475" on="0"/>
        <pt x="565" y="475" on="1"/>
        <pt x="521" y="475" on="0"/>
        <pt x="481" y="495" on="1"/>
        <pt x="439" y="515" on="0"/>
        <pt x="383" y="584" on="1"/>
        <pt x="331" y="644" on="0"/>
        <pt x="304" y="657" on="1"/>
        <pt x="283" y="667" on="0"/>
        <pt x="259" y="667" on="1"/>
        <pt x="231" y="667" on="0"/>
        <pt x="211" y="660" on="1"/>
        <pt x="169" y="647" on="0"/>
        <pt x="111" y="580" on="0"/>
        <pt x="103" y="536" on="1"/>
        <pt x="102" y="529" on="0"/>
        <pt x="102" y="508" on="1"/>
        <pt x="102" y="476" on="0"/>
        <pt x="116" y="441" on="1"/>
        <pt x="136" y="401" on="0"/>
        <pt x="222" y="347" on="0"/>
        <pt x="273" y="347" on="1"/>
        <pt x="282" y="347" on="0"/>
        <pt x="287" y="340" on="0"/>
        <pt x="287" y="329" on="1"/>
        <pt x="287" y="317" on="0"/>
        <pt x="282" y="310" on="0"/>
        <pt x="272" y="310" on="1"/>
        <pt x="196" y="310" on="0"/>
        <pt x="75" y="399" on="0"/>
        <pt x="59" y="468" on="1"/>
        <pt x="55" y="485" on="0"/>
      </contour>
      <contour>
        <pt x="667" y="320" on="1"/>
        <pt x="654" y="320" on="0"/>
        <pt x="647" y="324" on="0"/>
        <pt x="647" y="335" on="1"/>
        <pt x="645" y="360" on="0"/>
        <pt x="598" y="393" on="0"/>
        <pt x="566" y="393" on="1"/>
        <pt x="553" y="393" on="0"/>
        <pt x="549" y="391" on="1"/>
        <pt x="517" y="376" on="0"/>
        <pt x="517" y="312" on="1"/>
        <pt x="517" y="287" on="0"/>
        <pt x="536" y="264" on="1"/>
        <pt x="543" y="255" on="0"/>
        <pt x="581" y="222" on="1"/>
        <pt x="614" y="195" on="0"/>
        <pt x="625" y="169" on="1"/>
        <pt x="631" y="153" on="0"/>
        <pt x="631" y="132" on="1"/>
        <pt x="630" y="105" on="0"/>
        <pt x="617" y="78" on="1"/>
        <pt x="580" y="7" on="0"/>
        <pt x="487" y="-9" on="1"/>
        <pt x="478" y="-10" on="0"/>
        <pt x="417" y="-10" on="1"/>
        <pt x="357" y="-10" on="0"/>
        <pt x="347" y="-8" on="1"/>
        <pt x="325" y="-3" on="0"/>
        <pt x="274" y="24" on="0"/>
        <pt x="241" y="49" on="0"/>
        <pt x="184" y="94" on="0"/>
        <pt x="175" y="101" on="1"/>
        <pt x="119" y="143" on="0"/>
        <pt x="71" y="146" on="1"/>
        <pt x="61" y="146" on="0"/>
        <pt x="55" y="152" on="0"/>
        <pt x="55" y="163" on="1"/>
        <pt x="55" y="180" on="0"/>
        <pt x="60" y="182" on="1"/>
        <pt x="68" y="182" on="1"/>
        <pt x="75" y="182" on="0"/>
        <pt x="98" y="183" on="0"/>
        <pt x="108" y="183" on="1"/>
        <pt x="122" y="183" on="0"/>
        <pt x="160" y="182" on="0"/>
        <pt x="161" y="182" on="1"/>
        <pt x="190" y="178" on="0"/>
        <pt x="246" y="147" on="0"/>
        <pt x="273" y="123" on="0"/>
        <pt x="306" y="93" on="1"/>
        <pt x="349" y="52" on="0"/>
        <pt x="391" y="23" on="0"/>
        <pt x="420" y="13" on="1"/>
        <pt x="459" y="22" on="0"/>
        <pt x="516" y="69" on="0"/>
        <pt x="527" y="101" on="1"/>
        <pt x="533" y="117" on="0"/>
        <pt x="533" y="136" on="1"/>
        <pt x="533" y="151" on="0"/>
        <pt x="529" y="159" on="1"/>
        <pt x="521" y="180" on="0"/>
        <pt x="483" y="214" on="1"/>
        <pt x="439" y="249" on="0"/>
        <pt x="428" y="273" on="1"/>
        <pt x="420" y="290" on="0"/>
        <pt x="420" y="304" on="1"/>
        <pt x="420" y="312" on="1"/>
        <pt x="420" y="381" on="0"/>
        <pt x="491" y="414" on="1"/>
        <pt x="525" y="431" on="0"/>
        <pt x="564" y="431" on="1"/>
        <pt x="615" y="431" on="0"/>
        <pt x="689" y="379" on="0"/>
        <pt x="693" y="336" on="1"/>
        <pt x="693" y="325" on="0"/>
        <pt x="686" y="320" on="0"/>
        <pt x="676" y="320" on="1"/>
      </contour>
    </TTGlyph>
    <TTGlyph name="J" xMin="25" yMin="-22" xMax="465" yMax="683">
      <contour>
        <pt x="89" y="177" on="1"/>
        <pt x="116" y="177" on="0"/>
        <pt x="152" y="142" on="0"/>
        <pt x="152" y="112" on="1"/>
        <pt x="152" y="88" on="0"/>
        <pt x="123" y="56" on="0"/>
        <pt x="102" y="52" on="1"/>
        <pt x="99" y="51" on="0"/>
        <pt x="101" y="49" on="1"/>
        <pt x="106" y="43" on="0"/>
        <pt x="129" y="29" on="1"/>
        <pt x="159" y="15" on="0"/>
        <pt x="190" y="15" on="1"/>
        <pt x="204" y="15" on="0"/>
        <pt x="213" y="18" on="1"/>
        <pt x="242" y="27" on="0"/>
        <pt x="281" y="85" on="0"/>
        <pt x="286" y="126" on="1"/>
        <pt x="286" y="127" on="0"/>
        <pt x="286" y="158" on="0"/>
        <pt x="286" y="208" on="0"/>
        <pt x="287" y="268" on="0"/>
        <pt x="287" y="344" on="0"/>
        <pt x="287" y="378" on="1"/>
        <pt x="287" y="403" on="0"/>
        <pt x="287" y="456" on="0"/>
        <pt x="287" y="502" on="0"/>
        <pt x="286" y="546" on="0"/>
        <pt x="286" y="580" on="0"/>
        <pt x="286" y="606" on="0"/>
        <pt x="286" y="614" on="1"/>
        <pt x="286" y="621" on="1"/>
        <pt x="280" y="631" on="0"/>
        <pt x="261" y="634" on="1"/>
        <pt x="243" y="637" on="0"/>
        <pt x="182" y="637" on="1"/>
        <pt x="154" y="637" on="1"/>
        <pt x="154" y="683" on="1"/>
        <pt x="166" y="683" on="1"/>
        <pt x="189" y="680" on="0"/>
        <pt x="332" y="680" on="1"/>
        <pt x="342" y="680" on="0"/>
        <pt x="382" y="681" on="0"/>
        <pt x="404" y="681" on="0"/>
        <pt x="437" y="682" on="0"/>
        <pt x="455" y="683" on="0"/>
        <pt x="457" y="683" on="1"/>
        <pt x="465" y="683" on="1"/>
        <pt x="465" y="637" on="1"/>
        <pt x="449" y="637" on="1"/>
        <pt x="422" y="637" on="0"/>
        <pt x="401" y="634" on="1"/>
        <pt x="393" y="631" on="0"/>
        <pt x="389" y="623" on="1"/>
        <pt x="388" y="621" on="0"/>
        <pt x="388" y="131" on="0"/>
        <pt x="387" y="123" on="1"/>
        <pt x="377" y="60" on="0"/>
        <pt x="265" y="-22" on="0"/>
        <pt x="194" y="-22" on="1"/>
        <pt x="188" y="-22" on="0"/>
        <pt x="163" y="-20" on="0"/>
        <pt x="160" y="-20" on="1"/>
        <pt x="106" y="-11" on="0"/>
        <pt x="34" y="51" on="0"/>
        <pt x="26" y="95" on="1"/>
        <pt x="25" y="100" on="0"/>
        <pt x="25" y="110" on="1"/>
        <pt x="25" y="141" on="0"/>
        <pt x="61" y="177" on="0"/>
      </contour>
    </TTGlyph>
    <TTGlyph name="K" xMin="25" yMin="0" xMax="736" yMax="683">
      <contour>
        <pt x="128" y="622" on="1"/>
        <pt x="118" y="632" on="0"/>
        <pt x="99" y="636" on="0"/>
        <pt x="58" y="637" on="1"/>
        <pt x="25" y="637" on="1"/>
        <pt x="25" y="683" on="1"/>
        <pt x="36" y="683" on="1"/>
        <pt x="53" y="680" on="0"/>
        <pt x="307" y="680" on="0"/>
        <pt x="324" y="683" on="1"/>
        <pt x="335" y="683" on="1"/>
        <pt x="335" y="637" on="1"/>
        <pt x="313" y="637" on="1"/>
        <pt x="289" y="637" on="1"/>
        <pt x="235" y="637" on="0"/>
        <pt x="233" y="620" on="1"/>
        <pt x="232" y="618" on="0"/>
        <pt x="232" y="462" on="1"/>
        <pt x="233" y="307" on="1"/>
        <pt x="379" y="449" on="1"/>
        <pt x="525" y="592" on="0"/>
        <pt x="527" y="596" on="1"/>
        <pt x="529" y="599" on="0"/>
        <pt x="531" y="607" on="1"/>
        <pt x="531" y="629" on="0"/>
        <pt x="503" y="636" on="1"/>
        <pt x="501" y="636" on="0"/>
        <pt x="494" y="637" on="0"/>
        <pt x="493" y="637" on="1"/>
        <pt x="489" y="637" on="1"/>
        <pt x="489" y="683" on="1"/>
        <pt x="499" y="683" on="1"/>
        <pt x="516" y="680" on="0"/>
        <pt x="630" y="680" on="1"/>
        <pt x="638" y="680" on="0"/>
        <pt x="666" y="681" on="0"/>
        <pt x="673" y="681" on="1"/>
        <pt x="681" y="681" on="0"/>
        <pt x="703" y="682" on="0"/>
        <pt x="715" y="683" on="0"/>
        <pt x="716" y="683" on="1"/>
        <pt x="722" y="683" on="1"/>
        <pt x="722" y="637" on="1"/>
        <pt x="708" y="637" on="1"/>
        <pt x="633" y="633" on="0"/>
        <pt x="589" y="597" on="1"/>
        <pt x="584" y="592" on="0"/>
        <pt x="406" y="420" on="0"/>
        <pt x="406" y="418" on="0"/>
        <pt x="625" y="89" on="0"/>
        <pt x="631" y="80" on="1"/>
        <pt x="641" y="65" on="0"/>
        <pt x="655" y="57" on="1"/>
        <pt x="673" y="47" on="0"/>
        <pt x="715" y="46" on="1"/>
        <pt x="736" y="46" on="1"/>
        <pt x="736" y="0" on="1"/>
        <pt x="728" y="0" on="1"/>
        <pt x="726" y="0" on="0"/>
        <pt x="711" y="1" on="0"/>
        <pt x="680" y="2" on="0"/>
        <pt x="660" y="2" on="0"/>
        <pt x="624" y="3" on="0"/>
        <pt x="615" y="3" on="1"/>
        <pt x="493" y="3" on="0"/>
        <pt x="472" y="0" on="1"/>
        <pt x="461" y="0" on="1"/>
        <pt x="461" y="46" on="1"/>
        <pt x="469" y="46" on="1"/>
        <pt x="515" y="46" on="0"/>
        <pt x="515" y="72" on="1"/>
        <pt x="515" y="78" on="0"/>
        <pt x="512" y="84" on="1"/>
        <pt x="501" y="100" on="0"/>
        <pt x="423" y="220" on="1"/>
        <pt x="336" y="351" on="1"/>
        <pt x="331" y="347" on="0"/>
        <pt x="317" y="333" on="0"/>
        <pt x="291" y="308" on="0"/>
        <pt x="278" y="296" on="1"/>
        <pt x="232" y="251" on="1"/>
        <pt x="232" y="156" on="1"/>
        <pt x="232" y="62" on="0"/>
        <pt x="235" y="58" on="1"/>
        <pt x="243" y="47" on="0"/>
        <pt x="302" y="46" on="1"/>
        <pt x="335" y="46" on="1"/>
        <pt x="335" y="0" on="1"/>
        <pt x="324" y="0" on="1"/>
        <pt x="307" y="3" on="0"/>
        <pt x="53" y="3" on="0"/>
        <pt x="36" y="0" on="1"/>
        <pt x="25" y="0" on="1"/>
        <pt x="25" y="46" on="1"/>
        <pt x="58" y="46" on="1"/>
        <pt x="99" y="47" on="0"/>
        <pt x="118" y="51" on="0"/>
        <pt x="128" y="61" on="1"/>
      </contour>
    </TTGlyph>
    <TTGlyph name="L" xMin="25" yMin="0" xMax="582" yMax="683">
      <contour>
        <pt x="128" y="622" on="1"/>
        <pt x="118" y="632" on="0"/>
        <pt x="99" y="636" on="0"/>
        <pt x="58" y="637" on="1"/>
        <pt x="25" y="637" on="1"/>
        <pt x="25" y="683" on="1"/>
        <pt x="36" y="683" on="1"/>
        <pt x="54" y="680" on="0"/>
        <pt x="182" y="680" on="1"/>
        <pt x="330" y="680" on="0"/>
        <pt x="348" y="683" on="1"/>
        <pt x="360" y="683" on="1"/>
        <pt x="360" y="637" on="1"/>
        <pt x="333" y="637" on="1"/>
        <pt x="296" y="637" on="0"/>
        <pt x="285" y="636" on="1"/>
        <pt x="257" y="635" on="0"/>
        <pt x="241" y="630" on="0"/>
        <pt x="233" y="622" on="1"/>
        <pt x="232" y="342" on="1"/>
        <pt x="232" y="62" on="0"/>
        <pt x="233" y="59" on="1"/>
        <pt x="234" y="54" on="0"/>
        <pt x="237" y="52" on="1"/>
        <pt x="243" y="47" on="0"/>
        <pt x="313" y="47" on="1"/>
        <pt x="384" y="47" on="0"/>
        <pt x="410" y="53" on="1"/>
        <pt x="469" y="70" on="0"/>
        <pt x="525" y="148" on="0"/>
        <pt x="536" y="221" on="1"/>
        <pt x="536" y="226" on="0"/>
        <pt x="539" y="251" on="0"/>
        <pt x="542" y="271" on="0"/>
        <pt x="542" y="273" on="0"/>
        <pt x="562" y="273" on="1"/>
        <pt x="582" y="273" on="1"/>
        <pt x="582" y="268" on="1"/>
        <pt x="580" y="265" on="0"/>
        <pt x="556" y="8" on="0"/>
        <pt x="554" y="5" on="1"/>
        <pt x="554" y="0" on="1"/>
        <pt x="25" y="0" on="1"/>
        <pt x="25" y="46" on="1"/>
        <pt x="58" y="46" on="1"/>
        <pt x="99" y="47" on="0"/>
        <pt x="118" y="51" on="0"/>
        <pt x="128" y="61" on="1"/>
      </contour>
    </TTGlyph>
    <TTGlyph name="Lambda" xMin="32" yMin="0" xMax="661" yMax="716">
      <contour>
        <pt x="320" y="708" on="1"/>
        <pt x="326" y="716" on="0"/>
        <pt x="339" y="716" on="1"/>
        <pt x="348" y="716" on="1"/>
        <pt x="362" y="716" on="0"/>
        <pt x="369" y="714" on="0"/>
        <pt x="372" y="708" on="1"/>
        <pt x="374" y="706" on="0"/>
        <pt x="473" y="387" on="0"/>
        <pt x="573" y="65" on="0"/>
        <pt x="577" y="59" on="0"/>
        <pt x="581" y="54" on="0"/>
        <pt x="585" y="51" on="0"/>
        <pt x="593" y="49" on="0"/>
        <pt x="597" y="47" on="0"/>
        <pt x="608" y="47" on="0"/>
        <pt x="614" y="46" on="0"/>
        <pt x="630" y="46" on="0"/>
        <pt x="634" y="46" on="1"/>
        <pt x="661" y="46" on="1"/>
        <pt x="661" y="0" on="1"/>
        <pt x="653" y="0" on="1"/>
        <pt x="638" y="3" on="0"/>
        <pt x="532" y="3" on="1"/>
        <pt x="412" y="3" on="0"/>
        <pt x="390" y="0" on="1"/>
        <pt x="379" y="0" on="1"/>
        <pt x="379" y="46" on="1"/>
        <pt x="392" y="46" on="1"/>
        <pt x="464" y="46" on="0"/>
        <pt x="464" y="65" on="1"/>
        <pt x="463" y="70" on="0"/>
        <pt x="317" y="540" on="0"/>
        <pt x="316" y="539" on="1"/>
        <pt x="177" y="102" on="0"/>
        <pt x="177" y="84" on="1"/>
        <pt x="177" y="81" on="0"/>
        <pt x="179" y="77" on="1"/>
        <pt x="185" y="64" on="0"/>
        <pt x="224" y="46" on="0"/>
        <pt x="248" y="46" on="1"/>
        <pt x="253" y="46" on="1"/>
        <pt x="253" y="0" on="1"/>
        <pt x="245" y="0" on="1"/>
        <pt x="228" y="3" on="0"/>
        <pt x="130" y="3" on="1"/>
        <pt x="49" y="3" on="0"/>
        <pt x="38" y="0" on="1"/>
        <pt x="32" y="0" on="1"/>
        <pt x="32" y="46" on="1"/>
        <pt x="45" y="46" on="1"/>
        <pt x="112" y="51" on="0"/>
        <pt x="127" y="91" on="1"/>
        <pt x="128" y="92" on="0"/>
        <pt x="320" y="707" on="0"/>
      </contour>
    </TTGlyph>
    <TTGlyph name="M" xMin="29" yMin="0" xMax="887" yMax="683">
      <contour>
        <pt x="132" y="622" on="1"/>
        <pt x="122" y="632" on="0"/>
        <pt x="103" y="636" on="0"/>
        <pt x="62" y="637" on="1"/>
        <pt x="29" y="637" on="1"/>
        <pt x="29" y="683" on="1"/>
        <pt x="135" y="683" on="1"/>
        <pt x="240" y="683" on="0"/>
        <pt x="244" y="680" on="1"/>
        <pt x="249" y="675" on="1"/>
        <pt x="250" y="671" on="0"/>
        <pt x="458" y="124" on="1"/>
        <pt x="557" y="384" on="0"/>
        <pt x="636" y="594" on="1"/>
        <pt x="666" y="674" on="0"/>
        <pt x="668" y="675" on="1"/>
        <pt x="669" y="677" on="0"/>
        <pt x="672" y="680" on="1"/>
        <pt x="676" y="683" on="0"/>
        <pt x="781" y="683" on="1"/>
        <pt x="887" y="683" on="1"/>
        <pt x="887" y="637" on="1"/>
        <pt x="854" y="637" on="1"/>
        <pt x="813" y="636" on="0"/>
        <pt x="792" y="632" on="0"/>
        <pt x="785" y="622" on="1"/>
        <pt x="785" y="61" on="1"/>
        <pt x="792" y="51" on="0"/>
        <pt x="813" y="47" on="0"/>
        <pt x="854" y="46" on="1"/>
        <pt x="887" y="46" on="1"/>
        <pt x="887" y="0" on="1"/>
        <pt x="876" y="0" on="1"/>
        <pt x="860" y="3" on="0"/>
        <pt x="612" y="3" on="0"/>
        <pt x="596" y="0" on="1"/>
        <pt x="585" y="0" on="1"/>
        <pt x="585" y="46" on="1"/>
        <pt x="618" y="46" on="1"/>
        <pt x="659" y="47" on="0"/>
        <pt x="678" y="51" on="0"/>
        <pt x="688" y="61" on="1"/>
        <pt x="688" y="347" on="1"/>
        <pt x="688" y="424" on="0"/>
        <pt x="688" y="498" on="0"/>
        <pt x="688" y="594" on="0"/>
        <pt x="688" y="613" on="1"/>
        <pt x="687" y="632" on="1"/>
        <pt x="454" y="14" on="0"/>
        <pt x="450" y="7" on="1"/>
        <pt x="446" y="1" on="0"/>
        <pt x="414" y="1" on="0"/>
        <pt x="410" y="7" on="1"/>
        <pt x="176" y="624" on="1"/>
        <pt x="176" y="606" on="1"/>
        <pt x="175" y="588" on="0"/>
        <pt x="175" y="498" on="0"/>
        <pt x="175" y="428" on="0"/>
        <pt x="175" y="356" on="1"/>
        <pt x="176" y="86" on="1"/>
        <pt x="188" y="50" on="0"/>
        <pt x="261" y="46" on="1"/>
        <pt x="278" y="46" on="1"/>
        <pt x="278" y="0" on="1"/>
        <pt x="269" y="0" on="1"/>
        <pt x="256" y="3" on="0"/>
        <pt x="154" y="3" on="1"/>
        <pt x="50" y="3" on="0"/>
        <pt x="37" y="0" on="1"/>
        <pt x="29" y="0" on="1"/>
        <pt x="29" y="46" on="1"/>
        <pt x="46" y="46" on="1"/>
        <pt x="114" y="50" on="0"/>
        <pt x="129" y="80" on="1"/>
        <pt x="132" y="86" on="1"/>
      </contour>
    </TTGlyph>
    <TTGlyph name="N" xMin="25" yMin="0" xMax="724" yMax="683">
      <contour>
        <pt x="265" y="0" on="1"/>
        <pt x="252" y="3" on="0"/>
        <pt x="150" y="3" on="1"/>
        <pt x="46" y="3" on="0"/>
        <pt x="33" y="0" on="1"/>
        <pt x="25" y="0" on="1"/>
        <pt x="25" y="46" on="1"/>
        <pt x="42" y="46" on="1"/>
        <pt x="110" y="50" on="0"/>
        <pt x="125" y="80" on="1"/>
        <pt x="128" y="86" on="1"/>
        <pt x="128" y="634" on="1"/>
        <pt x="124" y="634" on="1"/>
        <pt x="114" y="637" on="0"/>
        <pt x="52" y="637" on="1"/>
        <pt x="25" y="637" on="1"/>
        <pt x="25" y="683" on="1"/>
        <pt x="232" y="683" on="1"/>
        <pt x="235" y="680" on="1"/>
        <pt x="237" y="679" on="0"/>
        <pt x="408" y="428" on="0"/>
        <pt x="493" y="303" on="1"/>
        <pt x="578" y="178" on="1"/>
        <pt x="578" y="598" on="1"/>
        <pt x="559" y="634" on="0"/>
        <pt x="492" y="637" on="1"/>
        <pt x="475" y="637" on="1"/>
        <pt x="475" y="683" on="1"/>
        <pt x="483" y="683" on="1"/>
        <pt x="501" y="680" on="0"/>
        <pt x="600" y="680" on="1"/>
        <pt x="702" y="680" on="0"/>
        <pt x="715" y="683" on="1"/>
        <pt x="724" y="683" on="1"/>
        <pt x="724" y="637" on="1"/>
        <pt x="707" y="637" on="1"/>
        <pt x="634" y="633" on="0"/>
        <pt x="622" y="598" on="1"/>
        <pt x="621" y="302" on="1"/>
        <pt x="621" y="6" on="1"/>
        <pt x="618" y="4" on="0"/>
        <pt x="614" y="0" on="1"/>
        <pt x="600" y="0" on="1"/>
        <pt x="585" y="0" on="0"/>
        <pt x="582" y="3" on="1"/>
        <pt x="576" y="9" on="0"/>
        <pt x="176" y="597" on="0"/>
        <pt x="171" y="605" on="1"/>
        <pt x="171" y="345" on="1"/>
        <pt x="172" y="86" on="1"/>
        <pt x="184" y="50" on="0"/>
        <pt x="257" y="46" on="1"/>
        <pt x="274" y="46" on="1"/>
        <pt x="274" y="0" on="1"/>
      </contour>
    </TTGlyph>
    <TTGlyph name="O" xMin="56" yMin="-22" xMax="722" yMax="705">
      <contour>
        <pt x="722" y="341" on="1"/>
        <pt x="722" y="190" on="0"/>
        <pt x="526" y="-22" on="0"/>
        <pt x="388" y="-22" on="1"/>
        <pt x="362" y="-22" on="0"/>
        <pt x="339" y="-18" on="1"/>
        <pt x="233" y="-1" on="0"/>
        <pt x="80" y="160" on="0"/>
        <pt x="61" y="273" on="1"/>
        <pt x="56" y="298" on="0"/>
        <pt x="56" y="340" on="1"/>
        <pt x="56" y="475" on="0"/>
        <pt x="138" y="581" on="1"/>
        <pt x="169" y="617" on="0"/>
        <pt x="191" y="633" on="1"/>
        <pt x="266" y="695" on="0"/>
        <pt x="362" y="704" on="1"/>
        <pt x="371" y="705" on="0"/>
        <pt x="388" y="705" on="1"/>
        <pt x="497" y="705" on="0"/>
        <pt x="587" y="633" on="1"/>
        <pt x="609" y="616" on="0"/>
        <pt x="639" y="581" on="1"/>
        <pt x="705" y="499" on="0"/>
        <pt x="720" y="383" on="1"/>
        <pt x="722" y="365" on="0"/>
      </contour>
      <contour>
        <pt x="467" y="647" on="1"/>
        <pt x="426" y="665" on="0"/>
        <pt x="388" y="665" on="1"/>
        <pt x="348" y="665" on="0"/>
        <pt x="311" y="647" on="1"/>
        <pt x="258" y="621" on="0"/>
        <pt x="189" y="514" on="0"/>
        <pt x="179" y="439" on="1"/>
        <pt x="174" y="411" on="0"/>
        <pt x="174" y="354" on="1"/>
        <pt x="174" y="143" on="0"/>
        <pt x="277" y="61" on="1"/>
        <pt x="326" y="20" on="0"/>
        <pt x="389" y="20" on="1"/>
        <pt x="411" y="20" on="0"/>
        <pt x="417" y="21" on="1"/>
        <pt x="485" y="35" on="0"/>
        <pt x="537" y="99" on="1"/>
        <pt x="603" y="187" on="0"/>
        <pt x="603" y="354" on="1"/>
        <pt x="603" y="411" on="0"/>
        <pt x="598" y="439" on="1"/>
        <pt x="577" y="592" on="0"/>
      </contour>
    </TTGlyph>
    <TTGlyph name="OE" xMin="70" yMin="-22" xMax="985" yMax="704">
      <contour>
        <pt x="985" y="270" on="1"/>
        <pt x="984" y="267" on="0"/>
        <pt x="944" y="6" on="0"/>
        <pt x="943" y="3" on="1"/>
        <pt x="943" y="0" on="1"/>
        <pt x="740" y="0" on="1"/>
        <pt x="535" y="-1" on="0"/>
        <pt x="526" y="-2" on="1"/>
        <pt x="515" y="-4" on="0"/>
        <pt x="481" y="-11" on="1"/>
        <pt x="428" y="-22" on="0"/>
        <pt x="402" y="-22" on="1"/>
        <pt x="299" y="-22" on="0"/>
        <pt x="213" y="42" on="1"/>
        <pt x="90" y="135" on="0"/>
        <pt x="71" y="299" on="1"/>
        <pt x="70" y="308" on="0"/>
        <pt x="70" y="374" on="0"/>
        <pt x="71" y="383" on="1"/>
        <pt x="85" y="495" on="0"/>
        <pt x="152" y="581" on="1"/>
        <pt x="183" y="617" on="0"/>
        <pt x="205" y="633" on="1"/>
        <pt x="280" y="695" on="0"/>
        <pt x="376" y="704" on="1"/>
        <pt x="392" y="704" on="1"/>
        <pt x="434" y="704" on="0"/>
        <pt x="481" y="694" on="1"/>
        <pt x="515" y="687" on="0"/>
        <pt x="526" y="685" on="1"/>
        <pt x="535" y="684" on="0"/>
        <pt x="733" y="683" on="1"/>
        <pt x="930" y="683" on="1"/>
        <pt x="930" y="679" on="1"/>
        <pt x="930" y="678" on="0"/>
        <pt x="958" y="448" on="0"/>
        <pt x="958" y="447" on="1"/>
        <pt x="958" y="443" on="1"/>
        <pt x="918" y="443" on="1"/>
        <pt x="918" y="447" on="1"/>
        <pt x="918" y="448" on="0"/>
        <pt x="916" y="455" on="0"/>
        <pt x="915" y="467" on="0"/>
        <pt x="914" y="471" on="1"/>
        <pt x="903" y="569" on="0"/>
        <pt x="870" y="600" on="1"/>
        <pt x="846" y="624" on="0"/>
        <pt x="784" y="636" on="0"/>
        <pt x="721" y="636" on="1"/>
        <pt x="697" y="636" on="1"/>
        <pt x="623" y="636" on="0"/>
        <pt x="619" y="635" on="1"/>
        <pt x="609" y="634" on="0"/>
        <pt x="606" y="624" on="1"/>
        <pt x="605" y="622" on="0"/>
        <pt x="605" y="499" on="1"/>
        <pt x="605" y="378" on="1"/>
        <pt x="665" y="378" on="1"/>
        <pt x="732" y="380" on="0"/>
        <pt x="733" y="380" on="1"/>
        <pt x="772" y="385" on="0"/>
        <pt x="802" y="426" on="0"/>
        <pt x="804" y="475" on="1"/>
        <pt x="804" y="495" on="1"/>
        <pt x="844" y="495" on="1"/>
        <pt x="844" y="215" on="1"/>
        <pt x="804" y="215" on="1"/>
        <pt x="804" y="235" on="1"/>
        <pt x="802" y="284" on="0"/>
        <pt x="773" y="325" on="0"/>
        <pt x="733" y="330" on="1"/>
        <pt x="732" y="330" on="0"/>
        <pt x="665" y="332" on="1"/>
        <pt x="605" y="332" on="1"/>
        <pt x="605" y="197" on="1"/>
        <pt x="605" y="61" on="0"/>
        <pt x="606" y="59" on="1"/>
        <pt x="609" y="49" on="0"/>
        <pt x="619" y="48" on="1"/>
        <pt x="627" y="46" on="0"/>
        <pt x="697" y="46" on="1"/>
        <pt x="778" y="46" on="0"/>
        <pt x="853" y="60" on="0"/>
        <pt x="884" y="88" on="1"/>
        <pt x="921" y="123" on="0"/>
        <pt x="941" y="251" on="1"/>
        <pt x="942" y="254" on="0"/>
        <pt x="943" y="263" on="0"/>
        <pt x="945" y="269" on="0"/>
        <pt x="945" y="270" on="1"/>
        <pt x="945" y="273" on="1"/>
        <pt x="985" y="273" on="1"/>
      </contour>
      <contour>
        <pt x="478" y="648" on="1"/>
        <pt x="457" y="668" on="0"/>
        <pt x="403" y="668" on="1"/>
        <pt x="399" y="668" on="0"/>
        <pt x="386" y="667" on="0"/>
        <pt x="384" y="667" on="1"/>
        <pt x="299" y="656" on="0"/>
        <pt x="184" y="476" on="0"/>
        <pt x="184" y="353" on="1"/>
        <pt x="184" y="237" on="0"/>
        <pt x="281" y="49" on="0"/>
        <pt x="355" y="23" on="1"/>
        <pt x="381" y="15" on="0"/>
        <pt x="406" y="15" on="1"/>
        <pt x="455" y="15" on="0"/>
        <pt x="478" y="35" on="1"/>
        <pt x="503" y="54" on="0"/>
        <pt x="511" y="128" on="1"/>
        <pt x="514" y="161" on="0"/>
        <pt x="514" y="342" on="1"/>
        <pt x="514" y="522" on="0"/>
        <pt x="511" y="556" on="1"/>
        <pt x="503" y="629" on="0"/>
      </contour>
    </TTGlyph>
    <TTGlyph name="Omega" xMin="44" yMin="0" xMax="677" yMax="704">
      <contour>
        <pt x="270" y="20" on="1"/>
        <pt x="270" y="7" on="0"/>
        <pt x="263" y="0" on="1"/>
        <pt x="77" y="0" on="1"/>
        <pt x="77" y="2" on="1"/>
        <pt x="76" y="3" on="0"/>
        <pt x="61" y="89" on="1"/>
        <pt x="44" y="175" on="1"/>
        <pt x="44" y="177" on="1"/>
        <pt x="84" y="177" on="1"/>
        <pt x="85" y="172" on="1"/>
        <pt x="85" y="167" on="0"/>
        <pt x="89" y="153" on="1"/>
        <pt x="96" y="108" on="0"/>
        <pt x="104" y="93" on="1"/>
        <pt x="108" y="88" on="0"/>
        <pt x="111" y="86" on="1"/>
        <pt x="124" y="81" on="0"/>
        <pt x="178" y="80" on="1"/>
        <pt x="222" y="80" on="1"/>
        <pt x="222" y="83" on="1"/>
        <pt x="217" y="99" on="0"/>
        <pt x="200" y="136" on="1"/>
        <pt x="184" y="167" on="0"/>
        <pt x="145" y="228" on="1"/>
        <pt x="81" y="331" on="0"/>
        <pt x="65" y="385" on="1"/>
        <pt x="55" y="422" on="0"/>
        <pt x="55" y="454" on="1"/>
        <pt x="55" y="484" on="0"/>
        <pt x="63" y="511" on="1"/>
        <pt x="85" y="586" on="0"/>
        <pt x="227" y="695" on="0"/>
        <pt x="322" y="703" on="1"/>
        <pt x="328" y="704" on="0"/>
        <pt x="337" y="704" on="1"/>
        <pt x="352" y="704" on="1"/>
        <pt x="493" y="704" on="0"/>
        <pt x="583" y="627" on="1"/>
        <pt x="640" y="577" on="0"/>
        <pt x="658" y="511" on="1"/>
        <pt x="666" y="484" on="0"/>
        <pt x="666" y="454" on="1"/>
        <pt x="666" y="422" on="0"/>
        <pt x="656" y="385" on="1"/>
        <pt x="640" y="331" on="0"/>
        <pt x="576" y="228" on="1"/>
        <pt x="537" y="167" on="0"/>
        <pt x="521" y="136" on="1"/>
        <pt x="504" y="99" on="0"/>
        <pt x="499" y="83" on="1"/>
        <pt x="499" y="80" on="1"/>
        <pt x="543" y="80" on="1"/>
        <pt x="597" y="81" on="0"/>
        <pt x="610" y="86" on="1"/>
        <pt x="614" y="88" on="0"/>
        <pt x="617" y="93" on="1"/>
        <pt x="624" y="108" on="0"/>
        <pt x="632" y="153" on="1"/>
        <pt x="636" y="167" on="0"/>
        <pt x="636" y="172" on="1"/>
        <pt x="637" y="177" on="1"/>
        <pt x="677" y="177" on="1"/>
        <pt x="677" y="175" on="1"/>
        <pt x="660" y="89" on="1"/>
        <pt x="645" y="3" on="0"/>
        <pt x="644" y="2" on="1"/>
        <pt x="644" y="0" on="1"/>
        <pt x="552" y="0" on="1"/>
        <pt x="478" y="0" on="0"/>
        <pt x="455" y="1" on="0"/>
        <pt x="453" y="6" on="1"/>
        <pt x="451" y="10" on="0"/>
        <pt x="451" y="20" on="1"/>
        <pt x="451" y="49" on="0"/>
        <pt x="460" y="99" on="1"/>
        <pt x="468" y="139" on="0"/>
        <pt x="499" y="234" on="1"/>
        <pt x="531" y="331" on="0"/>
        <pt x="541" y="386" on="1"/>
        <pt x="548" y="428" on="0"/>
        <pt x="548" y="455" on="1"/>
        <pt x="548" y="596" on="0"/>
        <pt x="445" y="648" on="1"/>
        <pt x="403" y="668" on="0"/>
        <pt x="361" y="668" on="1"/>
        <pt x="259" y="668" on="0"/>
        <pt x="205" y="583" on="1"/>
        <pt x="174" y="534" on="0"/>
        <pt x="174" y="456" on="1"/>
        <pt x="174" y="422" on="0"/>
        <pt x="180" y="386" on="1"/>
        <pt x="190" y="331" on="0"/>
        <pt x="222" y="234" on="1"/>
        <pt x="253" y="139" on="0"/>
        <pt x="261" y="99" on="1"/>
        <pt x="270" y="50" on="0"/>
      </contour>
    </TTGlyph>
    <TTGlyph name="Oslash" xMin="56" yMin="-59" xMax="721" yMax="742">
      <contour>
        <pt x="560" y="653" on="1"/>
        <pt x="616" y="742" on="1"/>
        <pt x="624" y="737" on="1"/>
        <pt x="632" y="732" on="0"/>
        <pt x="649" y="722" on="0"/>
        <pt x="650" y="722" on="1"/>
        <pt x="646" y="716" on="1"/>
        <pt x="643" y="710" on="0"/>
        <pt x="627" y="685" on="0"/>
        <pt x="621" y="675" on="1"/>
        <pt x="592" y="629" on="1"/>
        <pt x="593" y="628" on="0"/>
        <pt x="615" y="608" on="1"/>
        <pt x="694" y="526" on="0"/>
        <pt x="715" y="411" on="1"/>
        <pt x="721" y="380" on="0"/>
        <pt x="721" y="340" on="1"/>
        <pt x="721" y="298" on="0"/>
        <pt x="716" y="273" on="1"/>
        <pt x="697" y="160" on="0"/>
        <pt x="544" y="-1" on="0"/>
        <pt x="438" y="-18" on="1"/>
        <pt x="417" y="-22" on="0"/>
        <pt x="389" y="-22" on="1"/>
        <pt x="301" y="-22" on="0"/>
        <pt x="224" y="25" on="1"/>
        <pt x="217" y="29" on="1"/>
        <pt x="161" y="-59" on="0"/>
        <pt x="160" y="-59" on="1"/>
        <pt x="128" y="-38" on="1"/>
        <pt x="128" y="-37" on="0"/>
        <pt x="156" y="8" on="1"/>
        <pt x="184" y="53" on="1"/>
        <pt x="175" y="62" on="1"/>
        <pt x="74" y="154" on="0"/>
        <pt x="57" y="299" on="1"/>
        <pt x="56" y="308" on="0"/>
        <pt x="56" y="374" on="0"/>
        <pt x="57" y="383" on="1"/>
        <pt x="71" y="495" on="0"/>
        <pt x="138" y="581" on="1"/>
        <pt x="169" y="617" on="0"/>
        <pt x="191" y="633" on="1"/>
        <pt x="281" y="705" on="0"/>
        <pt x="389" y="705" on="1"/>
        <pt x="453" y="705" on="0"/>
        <pt x="513" y="678" on="1"/>
        <pt x="521" y="674" on="0"/>
      </contour>
      <contour>
        <pt x="505" y="632" on="1"/>
        <pt x="454" y="668" on="0"/>
        <pt x="387" y="668" on="1"/>
        <pt x="289" y="668" on="0"/>
        <pt x="225" y="591" on="1"/>
        <pt x="159" y="510" on="0"/>
        <pt x="159" y="341" on="1"/>
        <pt x="159" y="256" on="0"/>
        <pt x="185" y="148" on="0"/>
        <pt x="216" y="103" on="1"/>
        <pt x="374" y="356" on="1"/>
        <pt x="533" y="610" on="1"/>
        <pt x="533" y="613" on="0"/>
      </contour>
      <contour>
        <pt x="618" y="180" on="0"/>
        <pt x="618" y="492" on="0"/>
        <pt x="568" y="568" on="1"/>
        <pt x="561" y="579" on="1"/>
        <pt x="560" y="579" on="0"/>
        <pt x="244" y="74" on="0"/>
        <pt x="244" y="73" on="1"/>
        <pt x="244" y="70" on="0"/>
        <pt x="276" y="47" on="0"/>
        <pt x="289" y="40" on="1"/>
        <pt x="335" y="15" on="0"/>
        <pt x="388" y="15" on="1"/>
        <pt x="439" y="15" on="0"/>
        <pt x="532" y="64" on="0"/>
        <pt x="560" y="101" on="1"/>
      </contour>
    </TTGlyph>
    <TTGlyph name="P" xMin="27" yMin="0" xMax="624" yMax="683">
      <contour>
        <pt x="130" y="622" on="1"/>
        <pt x="120" y="632" on="0"/>
        <pt x="101" y="636" on="0"/>
        <pt x="60" y="637" on="1"/>
        <pt x="27" y="637" on="1"/>
        <pt x="27" y="683" on="1"/>
        <pt x="214" y="683" on="1"/>
        <pt x="406" y="683" on="0"/>
        <pt x="413" y="682" on="1"/>
        <pt x="490" y="676" on="0"/>
        <pt x="609" y="586" on="0"/>
        <pt x="622" y="519" on="1"/>
        <pt x="624" y="511" on="0"/>
        <pt x="624" y="489" on="1"/>
        <pt x="624" y="468" on="0"/>
        <pt x="622" y="460" on="1"/>
        <pt x="610" y="403" on="0"/>
        <pt x="514" y="320" on="0"/>
        <pt x="451" y="307" on="1"/>
        <pt x="429" y="302" on="0"/>
        <pt x="328" y="301" on="1"/>
        <pt x="234" y="301" on="1"/>
        <pt x="234" y="181" on="1"/>
        <pt x="234" y="62" on="0"/>
        <pt x="237" y="58" on="1"/>
        <pt x="245" y="47" on="0"/>
        <pt x="304" y="46" on="1"/>
        <pt x="337" y="46" on="1"/>
        <pt x="337" y="0" on="1"/>
        <pt x="326" y="0" on="1"/>
        <pt x="309" y="3" on="0"/>
        <pt x="55" y="3" on="0"/>
        <pt x="38" y="0" on="1"/>
        <pt x="27" y="0" on="1"/>
        <pt x="27" y="46" on="1"/>
        <pt x="60" y="46" on="1"/>
        <pt x="101" y="47" on="0"/>
        <pt x="120" y="51" on="0"/>
        <pt x="130" y="61" on="1"/>
      </contour>
      <contour>
        <pt x="474" y="604" on="1"/>
        <pt x="448" y="626" on="0"/>
        <pt x="393" y="637" on="0"/>
        <pt x="333" y="637" on="1"/>
        <pt x="307" y="637" on="1"/>
        <pt x="295" y="637" on="0"/>
        <pt x="270" y="636" on="0"/>
        <pt x="252" y="636" on="0"/>
        <pt x="251" y="636" on="1"/>
        <pt x="237" y="635" on="0"/>
        <pt x="234" y="628" on="1"/>
        <pt x="231" y="624" on="0"/>
        <pt x="231" y="483" on="1"/>
        <pt x="231" y="342" on="1"/>
        <pt x="302" y="342" on="1"/>
        <pt x="379" y="342" on="0"/>
        <pt x="385" y="343" on="1"/>
        <pt x="452" y="349" on="0"/>
        <pt x="507" y="415" on="0"/>
        <pt x="507" y="488" on="1"/>
        <pt x="507" y="535" on="0"/>
        <pt x="494" y="586" on="0"/>
      </contour>
    </TTGlyph>
    <TTGlyph name="Phi" xMin="56" yMin="0" xMax="665" yMax="683">
      <contour>
        <pt x="526" y="0" on="1"/>
        <pt x="508" y="3" on="0"/>
        <pt x="214" y="3" on="0"/>
        <pt x="196" y="0" on="1"/>
        <pt x="184" y="0" on="1"/>
        <pt x="184" y="46" on="1"/>
        <pt x="211" y="46" on="1"/>
        <pt x="248" y="46" on="0"/>
        <pt x="259" y="47" on="1"/>
        <pt x="287" y="48" on="0"/>
        <pt x="301" y="53" on="0"/>
        <pt x="312" y="61" on="1"/>
        <pt x="312" y="150" on="1"/>
        <pt x="310" y="150" on="1"/>
        <pt x="309" y="151" on="0"/>
        <pt x="294" y="153" on="1"/>
        <pt x="222" y="161" on="0"/>
        <pt x="160" y="195" on="1"/>
        <pt x="74" y="243" on="0"/>
        <pt x="57" y="317" on="1"/>
        <pt x="56" y="323" on="0"/>
        <pt x="56" y="342" on="1"/>
        <pt x="56" y="360" on="0"/>
        <pt x="57" y="366" on="1"/>
        <pt x="74" y="440" on="0"/>
        <pt x="160" y="488" on="1"/>
        <pt x="222" y="522" on="0"/>
        <pt x="294" y="530" on="1"/>
        <pt x="309" y="532" on="0"/>
        <pt x="310" y="533" on="1"/>
        <pt x="312" y="533" on="1"/>
        <pt x="312" y="622" on="1"/>
        <pt x="306" y="627" on="0"/>
        <pt x="301" y="630" on="0"/>
        <pt x="289" y="634" on="0"/>
        <pt x="274" y="635" on="0"/>
        <pt x="259" y="636" on="1"/>
        <pt x="248" y="637" on="0"/>
        <pt x="211" y="637" on="1"/>
        <pt x="184" y="637" on="1"/>
        <pt x="184" y="683" on="1"/>
        <pt x="196" y="683" on="1"/>
        <pt x="214" y="680" on="0"/>
        <pt x="508" y="680" on="0"/>
        <pt x="526" y="683" on="1"/>
        <pt x="538" y="683" on="1"/>
        <pt x="538" y="637" on="1"/>
        <pt x="511" y="637" on="1"/>
        <pt x="474" y="637" on="0"/>
        <pt x="463" y="636" on="1"/>
        <pt x="435" y="635" on="0"/>
        <pt x="419" y="630" on="0"/>
        <pt x="411" y="622" on="1"/>
        <pt x="411" y="533" on="1"/>
        <pt x="425" y="531" on="1"/>
        <pt x="502" y="521" on="0"/>
        <pt x="625" y="451" on="0"/>
        <pt x="650" y="402" on="1"/>
        <pt x="665" y="374" on="0"/>
        <pt x="665" y="342" on="1"/>
        <pt x="665" y="308" on="0"/>
        <pt x="650" y="281" on="1"/>
        <pt x="625" y="232" on="0"/>
        <pt x="502" y="162" on="0"/>
        <pt x="425" y="152" on="1"/>
        <pt x="411" y="150" on="1"/>
        <pt x="411" y="61" on="1"/>
        <pt x="419" y="53" on="0"/>
        <pt x="435" y="48" on="0"/>
        <pt x="463" y="47" on="1"/>
        <pt x="474" y="46" on="0"/>
        <pt x="511" y="46" on="1"/>
        <pt x="538" y="46" on="1"/>
        <pt x="538" y="0" on="1"/>
      </contour>
      <contour>
        <pt x="170" y="342" on="1"/>
        <pt x="170" y="272" on="0"/>
        <pt x="238" y="198" on="0"/>
        <pt x="307" y="188" on="1"/>
        <pt x="312" y="188" on="1"/>
        <pt x="312" y="495" on="1"/>
        <pt x="309" y="495" on="1"/>
        <pt x="299" y="495" on="0"/>
        <pt x="279" y="489" on="1"/>
        <pt x="223" y="475" on="0"/>
        <pt x="170" y="405" on="0"/>
      </contour>
      <contour>
        <pt x="415" y="188" on="1"/>
        <pt x="484" y="199" on="0"/>
        <pt x="551" y="271" on="0"/>
        <pt x="551" y="342" on="1"/>
        <pt x="551" y="409" on="0"/>
        <pt x="491" y="480" on="0"/>
        <pt x="430" y="492" on="1"/>
        <pt x="416" y="494" on="0"/>
        <pt x="415" y="495" on="1"/>
        <pt x="410" y="495" on="1"/>
        <pt x="410" y="188" on="1"/>
      </contour>
    </TTGlyph>
    <TTGlyph name="Pi" xMin="25" yMin="0" xMax="724" yMax="680">
      <contour>
        <pt x="128" y="619" on="1"/>
        <pt x="118" y="629" on="0"/>
        <pt x="99" y="633" on="0"/>
        <pt x="58" y="634" on="1"/>
        <pt x="25" y="634" on="1"/>
        <pt x="25" y="680" on="1"/>
        <pt x="724" y="680" on="1"/>
        <pt x="724" y="634" on="1"/>
        <pt x="691" y="634" on="1"/>
        <pt x="650" y="633" on="0"/>
        <pt x="629" y="629" on="0"/>
        <pt x="622" y="619" on="1"/>
        <pt x="622" y="61" on="1"/>
        <pt x="629" y="51" on="0"/>
        <pt x="650" y="47" on="0"/>
        <pt x="691" y="46" on="1"/>
        <pt x="724" y="46" on="1"/>
        <pt x="724" y="0" on="1"/>
        <pt x="713" y="0" on="1"/>
        <pt x="696" y="3" on="0"/>
        <pt x="442" y="3" on="0"/>
        <pt x="425" y="0" on="1"/>
        <pt x="414" y="0" on="1"/>
        <pt x="414" y="46" on="1"/>
        <pt x="447" y="46" on="1"/>
        <pt x="488" y="47" on="0"/>
        <pt x="507" y="51" on="0"/>
        <pt x="517" y="61" on="1"/>
        <pt x="517" y="634" on="1"/>
        <pt x="232" y="634" on="1"/>
        <pt x="232" y="348" on="1"/>
        <pt x="233" y="61" on="1"/>
        <pt x="240" y="51" on="0"/>
        <pt x="261" y="47" on="0"/>
        <pt x="302" y="46" on="1"/>
        <pt x="335" y="46" on="1"/>
        <pt x="335" y="0" on="1"/>
        <pt x="324" y="0" on="1"/>
        <pt x="307" y="3" on="0"/>
        <pt x="53" y="3" on="0"/>
        <pt x="36" y="0" on="1"/>
        <pt x="25" y="0" on="1"/>
        <pt x="25" y="46" on="1"/>
        <pt x="58" y="46" on="1"/>
        <pt x="99" y="47" on="0"/>
        <pt x="118" y="51" on="0"/>
        <pt x="128" y="61" on="1"/>
      </contour>
    </TTGlyph>
    <TTGlyph name="Psi" xMin="55" yMin="0" xMax="722" yMax="683">
      <contour>
        <pt x="69" y="509" on="1"/>
        <pt x="60" y="509" on="0"/>
        <pt x="55" y="515" on="0"/>
        <pt x="55" y="537" on="0"/>
        <pt x="56" y="540" on="1"/>
        <pt x="59" y="544" on="0"/>
        <pt x="72" y="546" on="0"/>
        <pt x="107" y="546" on="1"/>
        <pt x="150" y="546" on="0"/>
        <pt x="157" y="544" on="1"/>
        <pt x="192" y="535" on="0"/>
        <pt x="204" y="493" on="1"/>
        <pt x="214" y="469" on="0"/>
        <pt x="215" y="411" on="1"/>
        <pt x="218" y="284" on="0"/>
        <pt x="272" y="230" on="1"/>
        <pt x="299" y="204" on="0"/>
        <pt x="330" y="195" on="1"/>
        <pt x="339" y="192" on="1"/>
        <pt x="340" y="192" on="0"/>
        <pt x="340" y="407" on="1"/>
        <pt x="340" y="622" on="1"/>
        <pt x="334" y="627" on="0"/>
        <pt x="329" y="630" on="0"/>
        <pt x="317" y="634" on="0"/>
        <pt x="302" y="635" on="0"/>
        <pt x="287" y="636" on="1"/>
        <pt x="276" y="637" on="0"/>
        <pt x="239" y="637" on="1"/>
        <pt x="212" y="637" on="1"/>
        <pt x="212" y="683" on="1"/>
        <pt x="224" y="683" on="1"/>
        <pt x="242" y="680" on="0"/>
        <pt x="536" y="680" on="0"/>
        <pt x="554" y="683" on="1"/>
        <pt x="566" y="683" on="1"/>
        <pt x="566" y="637" on="1"/>
        <pt x="539" y="637" on="1"/>
        <pt x="502" y="637" on="0"/>
        <pt x="491" y="636" on="1"/>
        <pt x="463" y="635" on="0"/>
        <pt x="447" y="630" on="0"/>
        <pt x="439" y="622" on="1"/>
        <pt x="438" y="407" on="1"/>
        <pt x="438" y="192" on="0"/>
        <pt x="439" y="192" on="1"/>
        <pt x="444" y="192" on="0"/>
        <pt x="466" y="203" on="1"/>
        <pt x="557" y="248" on="0"/>
        <pt x="562" y="411" on="1"/>
        <pt x="563" y="469" on="0"/>
        <pt x="573" y="493" on="1"/>
        <pt x="585" y="535" on="0"/>
        <pt x="620" y="544" on="1"/>
        <pt x="627" y="546" on="0"/>
        <pt x="671" y="546" on="1"/>
        <pt x="715" y="546" on="1"/>
        <pt x="719" y="542" on="0"/>
        <pt x="722" y="540" on="1"/>
        <pt x="722" y="515" on="1"/>
        <pt x="714" y="509" on="0"/>
        <pt x="708" y="509" on="1"/>
        <pt x="685" y="506" on="0"/>
        <pt x="674" y="482" on="1"/>
        <pt x="661" y="457" on="0"/>
        <pt x="660" y="406" on="1"/>
        <pt x="657" y="347" on="0"/>
        <pt x="644" y="307" on="1"/>
        <pt x="599" y="177" on="0"/>
        <pt x="451" y="153" on="1"/>
        <pt x="438" y="151" on="1"/>
        <pt x="438" y="106" on="1"/>
        <pt x="439" y="61" on="1"/>
        <pt x="447" y="53" on="0"/>
        <pt x="463" y="48" on="0"/>
        <pt x="491" y="47" on="1"/>
        <pt x="502" y="46" on="0"/>
        <pt x="539" y="46" on="1"/>
        <pt x="566" y="46" on="1"/>
        <pt x="566" y="0" on="1"/>
        <pt x="554" y="0" on="1"/>
        <pt x="536" y="3" on="0"/>
        <pt x="242" y="3" on="0"/>
        <pt x="224" y="0" on="1"/>
        <pt x="212" y="0" on="1"/>
        <pt x="212" y="46" on="1"/>
        <pt x="239" y="46" on="1"/>
        <pt x="276" y="46" on="0"/>
        <pt x="287" y="47" on="1"/>
        <pt x="315" y="48" on="0"/>
        <pt x="329" y="53" on="0"/>
        <pt x="340" y="61" on="1"/>
        <pt x="340" y="151" on="1"/>
        <pt x="124" y="179" on="0"/>
        <pt x="117" y="406" on="1"/>
        <pt x="116" y="457" on="0"/>
        <pt x="103" y="482" on="1"/>
        <pt x="92" y="506" on="0"/>
      </contour>
    </TTGlyph>
    <TTGlyph name="Q" xMin="56" yMin="-193" xMax="728" yMax="705">
      <contour>
        <pt x="388" y="-22" on="1"/>
        <pt x="250" y="-22" on="0"/>
        <pt x="56" y="190" on="0"/>
        <pt x="56" y="341" on="1"/>
        <pt x="56" y="374" on="0"/>
        <pt x="57" y="383" on="1"/>
        <pt x="71" y="495" on="0"/>
        <pt x="138" y="581" on="1"/>
        <pt x="169" y="617" on="0"/>
        <pt x="191" y="633" on="1"/>
        <pt x="266" y="695" on="0"/>
        <pt x="362" y="704" on="1"/>
        <pt x="371" y="705" on="0"/>
        <pt x="388" y="705" on="1"/>
        <pt x="497" y="705" on="0"/>
        <pt x="587" y="633" on="1"/>
        <pt x="609" y="616" on="0"/>
        <pt x="639" y="581" on="1"/>
        <pt x="705" y="499" on="0"/>
        <pt x="720" y="383" on="1"/>
        <pt x="722" y="365" on="0"/>
        <pt x="722" y="317" on="0"/>
        <pt x="720" y="299" on="1"/>
        <pt x="706" y="181" on="0"/>
        <pt x="636" y="97" on="1"/>
        <pt x="594" y="48" on="0"/>
        <pt x="536" y="15" on="1"/>
        <pt x="523" y="9" on="0"/>
        <pt x="523" y="8" on="1"/>
        <pt x="536" y="-18" on="0"/>
        <pt x="541" y="-26" on="1"/>
        <pt x="570" y="-76" on="0"/>
        <pt x="615" y="-76" on="1"/>
        <pt x="653" y="-76" on="0"/>
        <pt x="703" y="-37" on="0"/>
        <pt x="706" y="-3" on="1"/>
        <pt x="707" y="10" on="0"/>
        <pt x="716" y="10" on="1"/>
        <pt x="721" y="10" on="0"/>
        <pt x="728" y="5" on="1"/>
        <pt x="727" y="-13" on="1"/>
        <pt x="727" y="-84" on="0"/>
        <pt x="674" y="-181" on="0"/>
        <pt x="631" y="-191" on="1"/>
        <pt x="625" y="-193" on="0"/>
        <pt x="606" y="-193" on="1"/>
        <pt x="565" y="-193" on="0"/>
        <pt x="540" y="-168" on="1"/>
        <pt x="512" y="-142" on="0"/>
        <pt x="498" y="-83" on="1"/>
        <pt x="483" y="-23" on="0"/>
        <pt x="483" y="-8" on="1"/>
        <pt x="473" y="-10" on="1"/>
        <pt x="431" y="-22" on="0"/>
      </contour>
      <contour>
        <pt x="301" y="68" on="1"/>
        <pt x="301" y="105" on="0"/>
        <pt x="354" y="155" on="0"/>
        <pt x="391" y="155" on="1"/>
        <pt x="408" y="155" on="0"/>
        <pt x="431" y="146" on="1"/>
        <pt x="468" y="127" on="0"/>
        <pt x="495" y="70" on="1"/>
        <pt x="501" y="58" on="1"/>
        <pt x="513" y="66" on="0"/>
        <pt x="537" y="92" on="1"/>
        <pt x="607" y="177" on="0"/>
        <pt x="607" y="339" on="1"/>
        <pt x="607" y="482" on="0"/>
        <pt x="554" y="566" on="1"/>
        <pt x="500" y="651" on="0"/>
        <pt x="410" y="664" on="1"/>
        <pt x="403" y="665" on="0"/>
        <pt x="390" y="665" on="1"/>
        <pt x="325" y="665" on="0"/>
        <pt x="271" y="620" on="1"/>
        <pt x="254" y="606" on="0"/>
        <pt x="236" y="584" on="1"/>
        <pt x="170" y="496" on="0"/>
        <pt x="170" y="339" on="1"/>
        <pt x="170" y="143" on="0"/>
        <pt x="277" y="57" on="1"/>
        <pt x="301" y="39" on="0"/>
        <pt x="305" y="39" on="1"/>
        <pt x="304" y="42" on="1"/>
        <pt x="304" y="44" on="0"/>
        <pt x="304" y="46" on="1"/>
        <pt x="301" y="53" on="0"/>
      </contour>
      <contour>
        <pt x="338" y="67" on="1"/>
        <pt x="338" y="46" on="0"/>
        <pt x="364" y="18" on="0"/>
        <pt x="385" y="18" on="1"/>
        <pt x="418" y="18" on="0"/>
        <pt x="445" y="28" on="1"/>
        <pt x="472" y="37" on="0"/>
        <pt x="472" y="40" on="1"/>
        <pt x="472" y="50" on="0"/>
        <pt x="461" y="69" on="1"/>
        <pt x="441" y="117" on="0"/>
        <pt x="386" y="117" on="1"/>
        <pt x="365" y="117" on="0"/>
        <pt x="338" y="86" on="0"/>
      </contour>
    </TTGlyph>
    <TTGlyph name="R" xMin="27" yMin="-22" xMax="732" yMax="683">
      <contour>
        <pt x="130" y="622" on="1"/>
        <pt x="120" y="632" on="0"/>
        <pt x="101" y="636" on="0"/>
        <pt x="60" y="637" on="1"/>
        <pt x="27" y="637" on="1"/>
        <pt x="27" y="683" on="1"/>
        <pt x="202" y="683" on="1"/>
        <pt x="388" y="682" on="0"/>
        <pt x="407" y="679" on="1"/>
        <pt x="410" y="678" on="0"/>
        <pt x="420" y="676" on="1"/>
        <pt x="465" y="667" on="0"/>
        <pt x="500" y="648" on="1"/>
        <pt x="595" y="600" on="0"/>
        <pt x="609" y="517" on="1"/>
        <pt x="610" y="512" on="0"/>
        <pt x="610" y="501" on="1"/>
        <pt x="610" y="445" on="0"/>
        <pt x="525" y="361" on="0"/>
        <pt x="467" y="342" on="1"/>
        <pt x="465" y="341" on="0"/>
        <pt x="460" y="340" on="0"/>
        <pt x="458" y="339" on="1"/>
        <pt x="456" y="338" on="1"/>
        <pt x="459" y="335" on="0"/>
        <pt x="467" y="332" on="1"/>
        <pt x="539" y="292" on="0"/>
        <pt x="556" y="226" on="1"/>
        <pt x="557" y="222" on="0"/>
        <pt x="577" y="98" on="0"/>
        <pt x="578" y="94" on="1"/>
        <pt x="585" y="58" on="0"/>
        <pt x="606" y="24" on="0"/>
        <pt x="623" y="18" on="1"/>
        <pt x="627" y="16" on="0"/>
        <pt x="640" y="16" on="1"/>
        <pt x="645" y="16" on="1"/>
        <pt x="658" y="16" on="0"/>
        <pt x="669" y="27" on="1"/>
        <pt x="689" y="47" on="0"/>
        <pt x="692" y="87" on="1"/>
        <pt x="692" y="98" on="0"/>
        <pt x="699" y="105" on="0"/>
        <pt x="712" y="105" on="1"/>
        <pt x="724" y="105" on="0"/>
        <pt x="732" y="100" on="0"/>
        <pt x="732" y="90" on="1"/>
        <pt x="732" y="54" on="0"/>
        <pt x="697" y="-5" on="0"/>
        <pt x="672" y="-16" on="1"/>
        <pt x="656" y="-22" on="0"/>
        <pt x="630" y="-22" on="1"/>
        <pt x="481" y="-16" on="0"/>
        <pt x="458" y="90" on="1"/>
        <pt x="456" y="101" on="0"/>
        <pt x="455" y="225" on="0"/>
        <pt x="449" y="246" on="1"/>
        <pt x="440" y="273" on="0"/>
        <pt x="399" y="312" on="0"/>
        <pt x="373" y="320" on="1"/>
        <pt x="363" y="322" on="1"/>
        <pt x="297" y="323" on="1"/>
        <pt x="231" y="323" on="1"/>
        <pt x="231" y="192" on="1"/>
        <pt x="232" y="61" on="1"/>
        <pt x="239" y="51" on="0"/>
        <pt x="260" y="47" on="0"/>
        <pt x="301" y="46" on="1"/>
        <pt x="334" y="46" on="1"/>
        <pt x="334" y="0" on="1"/>
        <pt x="323" y="0" on="1"/>
        <pt x="307" y="3" on="0"/>
        <pt x="181" y="3" on="1"/>
        <pt x="54" y="3" on="0"/>
        <pt x="38" y="0" on="1"/>
        <pt x="27" y="0" on="1"/>
        <pt x="27" y="46" on="1"/>
        <pt x="60" y="46" on="1"/>
        <pt x="101" y="47" on="0"/>
        <pt x="120" y="51" on="0"/>
        <pt x="130" y="61" on="1"/>
      </contour>
      <contour>
        <pt x="490" y="539" on="1"/>
        <pt x="480" y="599" on="0"/>
        <pt x="393" y="637" on="0"/>
        <pt x="304" y="637" on="1"/>
        <pt x="289" y="637" on="0"/>
        <pt x="251" y="636" on="0"/>
        <pt x="250" y="636" on="1"/>
        <pt x="237" y="635" on="0"/>
        <pt x="234" y="628" on="1"/>
        <pt x="231" y="624" on="0"/>
        <pt x="231" y="492" on="1"/>
        <pt x="231" y="360" on="1"/>
        <pt x="289" y="360" on="1"/>
        <pt x="364" y="360" on="0"/>
        <pt x="436" y="373" on="0"/>
        <pt x="463" y="400" on="1"/>
        <pt x="480" y="417" on="0"/>
        <pt x="491" y="459" on="0"/>
        <pt x="491" y="499" on="1"/>
        <pt x="491" y="531" on="0"/>
      </contour>
    </TTGlyph>
    <TTGlyph name="Rfraktur" xMin="40" yMin="-22" xMax="715" yMax="716">
      <contour>
        <pt x="114" y="243" on="1"/>
        <pt x="86" y="243" on="0"/>
        <pt x="55" y="290" on="0"/>
        <pt x="55" y="322" on="1"/>
        <pt x="55" y="331" on="0"/>
        <pt x="63" y="336" on="0"/>
        <pt x="87" y="336" on="0"/>
        <pt x="95" y="332" on="0"/>
        <pt x="95" y="322" on="1"/>
        <pt x="95" y="280" on="0"/>
        <pt x="113" y="280" on="1"/>
        <pt x="124" y="280" on="0"/>
        <pt x="139" y="295" on="0"/>
        <pt x="145" y="328" on="0"/>
        <pt x="146" y="352" on="0"/>
        <pt x="147" y="375" on="1"/>
        <pt x="147" y="410" on="0"/>
        <pt x="145" y="418" on="1"/>
        <pt x="138" y="445" on="0"/>
        <pt x="101" y="487" on="1"/>
        <pt x="67" y="526" on="0"/>
        <pt x="58" y="555" on="1"/>
        <pt x="56" y="563" on="0"/>
        <pt x="56" y="580" on="1"/>
        <pt x="56" y="651" on="0"/>
        <pt x="107" y="686" on="1"/>
        <pt x="131" y="704" on="0"/>
        <pt x="207" y="704" on="0"/>
        <pt x="244" y="679" on="1"/>
        <pt x="277" y="654" on="0"/>
        <pt x="300" y="614" on="1"/>
        <pt x="334" y="648" on="1"/>
        <pt x="407" y="706" on="0"/>
        <pt x="531" y="715" on="1"/>
        <pt x="534" y="715" on="0"/>
        <pt x="553" y="716" on="0"/>
        <pt x="557" y="716" on="1"/>
        <pt x="570" y="716" on="0"/>
        <pt x="572" y="714" on="1"/>
        <pt x="574" y="713" on="0"/>
        <pt x="715" y="446" on="0"/>
        <pt x="715" y="444" on="1"/>
        <pt x="715" y="441" on="0"/>
        <pt x="713" y="439" on="1"/>
        <pt x="708" y="434" on="0"/>
        <pt x="569" y="361" on="0"/>
        <pt x="549" y="354" on="1"/>
        <pt x="550" y="348" on="1"/>
        <pt x="550" y="337" on="0"/>
        <pt x="561" y="139" on="0"/>
        <pt x="561" y="128" on="1"/>
        <pt x="561" y="122" on="0"/>
        <pt x="559" y="106" on="0"/>
        <pt x="559" y="101" on="1"/>
        <pt x="559" y="61" on="0"/>
        <pt x="591" y="25" on="1"/>
        <pt x="599" y="18" on="1"/>
        <pt x="631" y="51" on="1"/>
        <pt x="666" y="86" on="0"/>
        <pt x="669" y="86" on="1"/>
        <pt x="675" y="86" on="0"/>
        <pt x="699" y="71" on="0"/>
        <pt x="702" y="68" on="1"/>
        <pt x="704" y="63" on="0"/>
        <pt x="702" y="59" on="1"/>
        <pt x="702" y="58" on="0"/>
        <pt x="616" y="-19" on="0"/>
        <pt x="613" y="-21" on="1"/>
        <pt x="612" y="-22" on="0"/>
        <pt x="598" y="-22" on="1"/>
        <pt x="544" y="-22" on="0"/>
        <pt x="512" y="0" on="1"/>
        <pt x="490" y="15" on="0"/>
        <pt x="461" y="70" on="0"/>
        <pt x="461" y="101" on="1"/>
        <pt x="461" y="106" on="0"/>
        <pt x="463" y="123" on="0"/>
        <pt x="463" y="129" on="1"/>
        <pt x="463" y="131" on="0"/>
        <pt x="458" y="232" on="0"/>
        <pt x="455" y="282" on="1"/>
        <pt x="452" y="331" on="1"/>
        <pt x="452" y="338" on="1"/>
        <pt x="343" y="338" on="1"/>
        <pt x="343" y="280" on="1"/>
        <pt x="342" y="195" on="0"/>
        <pt x="333" y="157" on="1"/>
        <pt x="316" y="64" on="0"/>
        <pt x="267" y="12" on="1"/>
        <pt x="233" y="-22" on="0"/>
        <pt x="193" y="-22" on="1"/>
        <pt x="150" y="-22" on="0"/>
        <pt x="87" y="33" on="0"/>
        <pt x="72" y="74" on="1"/>
        <pt x="71" y="76" on="0"/>
        <pt x="67" y="74" on="1"/>
        <pt x="59" y="72" on="0"/>
        <pt x="48" y="82" on="1"/>
        <pt x="40" y="91" on="0"/>
        <pt x="40" y="95" on="1"/>
        <pt x="40" y="103" on="0"/>
        <pt x="57" y="109" on="1"/>
        <pt x="57" y="113" on="1"/>
        <pt x="57" y="117" on="0"/>
        <pt x="77" y="137" on="0"/>
        <pt x="81" y="137" on="1"/>
        <pt x="89" y="137" on="0"/>
        <pt x="93" y="123" on="1"/>
        <pt x="106" y="126" on="0"/>
        <pt x="108" y="126" on="1"/>
        <pt x="111" y="124" on="0"/>
        <pt x="126" y="109" on="0"/>
        <pt x="127" y="107" on="1"/>
        <pt x="127" y="102" on="0"/>
        <pt x="122" y="97" on="0"/>
        <pt x="114" y="94" on="1"/>
        <pt x="107" y="90" on="1"/>
        <pt x="107" y="85" on="0"/>
        <pt x="120" y="62" on="1"/>
        <pt x="153" y="15" on="0"/>
        <pt x="231" y="15" on="0"/>
        <pt x="239" y="96" on="1"/>
        <pt x="244" y="135" on="0"/>
        <pt x="244" y="334" on="1"/>
        <pt x="244" y="510" on="0"/>
        <pt x="242" y="542" on="1"/>
        <pt x="236" y="584" on="0"/>
        <pt x="233" y="596" on="1"/>
        <pt x="210" y="668" on="0"/>
        <pt x="166" y="668" on="1"/>
        <pt x="136" y="668" on="0"/>
        <pt x="100" y="617" on="0"/>
        <pt x="100" y="584" on="1"/>
        <pt x="100" y="561" on="0"/>
        <pt x="132" y="528" on="1"/>
        <pt x="159" y="498" on="0"/>
        <pt x="187" y="453" on="0"/>
        <pt x="193" y="423" on="1"/>
        <pt x="194" y="415" on="0"/>
        <pt x="194" y="389" on="1"/>
        <pt x="190" y="243" on="0"/>
      </contour>
      <contour>
        <pt x="324" y="562" on="1"/>
        <pt x="341" y="501" on="0"/>
        <pt x="343" y="427" on="1"/>
        <pt x="343" y="384" on="1"/>
        <pt x="424" y="384" on="1"/>
        <pt x="505" y="385" on="1"/>
        <pt x="540" y="397" on="0"/>
        <pt x="584" y="422" on="1"/>
        <pt x="609" y="435" on="1"/>
        <pt x="610" y="435" on="0"/>
        <pt x="578" y="496" on="0"/>
        <pt x="550" y="550" on="1"/>
        <pt x="536" y="575" on="0"/>
        <pt x="504" y="636" on="0"/>
        <pt x="496" y="650" on="1"/>
        <pt x="488" y="664" on="1"/>
        <pt x="476" y="662" on="1"/>
        <pt x="413" y="648" on="0"/>
        <pt x="378" y="624" on="1"/>
        <pt x="336" y="600" on="0"/>
      </contour>
    </TTGlyph>
    <TTGlyph name="S" xMin="55" yMin="-22" xMax="500" yMax="705">
      <contour>
        <pt x="89" y="227" on="1"/>
        <pt x="95" y="221" on="0"/>
        <pt x="95" y="214" on="1"/>
        <pt x="95" y="125" on="0"/>
        <pt x="210" y="24" on="0"/>
        <pt x="305" y="24" on="1"/>
        <pt x="317" y="24" on="0"/>
        <pt x="321" y="25" on="1"/>
        <pt x="365" y="34" on="0"/>
        <pt x="420" y="106" on="0"/>
        <pt x="420" y="155" on="1"/>
        <pt x="420" y="198" on="0"/>
        <pt x="375" y="269" on="0"/>
        <pt x="340" y="281" on="1"/>
        <pt x="284" y="295" on="0"/>
        <pt x="266" y="300" on="1"/>
        <pt x="191" y="318" on="0"/>
        <pt x="189" y="319" on="1"/>
        <pt x="131" y="339" on="0"/>
        <pt x="55" y="440" on="0"/>
        <pt x="55" y="507" on="1"/>
        <pt x="55" y="567" on="0"/>
        <pt x="117" y="661" on="0"/>
        <pt x="163" y="684" on="1"/>
        <pt x="203" y="704" on="0"/>
        <pt x="243" y="704" on="1"/>
        <pt x="322" y="704" on="0"/>
        <pt x="371" y="670" on="1"/>
        <pt x="386" y="660" on="0"/>
        <pt x="405" y="641" on="1"/>
        <pt x="426" y="672" on="1"/>
        <pt x="431" y="679" on="0"/>
        <pt x="442" y="695" on="0"/>
        <pt x="446" y="700" on="1"/>
        <pt x="449" y="704" on="1"/>
        <pt x="450" y="704" on="0"/>
        <pt x="456" y="705" on="0"/>
        <pt x="459" y="705" on="1"/>
        <pt x="466" y="705" on="0"/>
        <pt x="472" y="699" on="1"/>
        <pt x="472" y="462" on="1"/>
        <pt x="466" y="456" on="1"/>
        <pt x="448" y="456" on="1"/>
        <pt x="437" y="456" on="0"/>
        <pt x="433" y="462" on="0"/>
        <pt x="430" y="479" on="1"/>
        <pt x="413" y="605" on="0"/>
        <pt x="329" y="646" on="1"/>
        <pt x="292" y="662" on="0"/>
        <pt x="254" y="662" on="1"/>
        <pt x="202" y="662" on="0"/>
        <pt x="135" y="595" on="0"/>
        <pt x="135" y="542" on="1"/>
        <pt x="135" y="508" on="0"/>
        <pt x="169" y="451" on="0"/>
        <pt x="200" y="435" on="1"/>
        <pt x="210" y="430" on="0"/>
        <pt x="294" y="410" on="1"/>
        <pt x="365" y="391" on="0"/>
        <pt x="370" y="389" on="1"/>
        <pt x="427" y="367" on="0"/>
        <pt x="500" y="262" on="0"/>
        <pt x="500" y="191" on="1"/>
        <pt x="500" y="109" on="0"/>
        <pt x="410" y="-4" on="0"/>
        <pt x="337" y="-19" on="1"/>
        <pt x="327" y="-21" on="0"/>
        <pt x="301" y="-21" on="1"/>
        <pt x="195" y="-21" on="0"/>
        <pt x="129" y="37" on="1"/>
        <pt x="124" y="42" on="0"/>
        <pt x="122" y="41" on="1"/>
        <pt x="118" y="36" on="0"/>
        <pt x="96" y="5" on="0"/>
        <pt x="78" y="-20" on="0"/>
        <pt x="78" y="-21" on="1"/>
        <pt x="76" y="-22" on="0"/>
        <pt x="68" y="-22" on="1"/>
        <pt x="61" y="-22" on="0"/>
        <pt x="55" y="-16" on="1"/>
        <pt x="55" y="101" on="1"/>
        <pt x="55" y="220" on="0"/>
        <pt x="56" y="222" on="1"/>
        <pt x="58" y="227" on="0"/>
        <pt x="76" y="227" on="1"/>
      </contour>
    </TTGlyph>
    <TTGlyph name="Sigma" xMin="55" yMin="0" xMax="666" yMax="683">
      <contour>
        <pt x="666" y="247" on="1"/>
        <pt x="664" y="244" on="0"/>
        <pt x="639" y="7" on="0"/>
        <pt x="638" y="4" on="1"/>
        <pt x="638" y="0" on="1"/>
        <pt x="351" y="0" on="1"/>
        <pt x="131" y="0" on="0"/>
        <pt x="58" y="1" on="0"/>
        <pt x="57" y="5" on="1"/>
        <pt x="57" y="6" on="1"/>
        <pt x="54" y="12" on="0"/>
        <pt x="57" y="17" on="1"/>
        <pt x="73" y="36" on="1"/>
        <pt x="89" y="54" on="0"/>
        <pt x="153" y="126" on="0"/>
        <pt x="182" y="159" on="1"/>
        <pt x="305" y="299" on="1"/>
        <pt x="179" y="470" on="0"/>
        <pt x="56" y="644" on="1"/>
        <pt x="55" y="658" on="1"/>
        <pt x="55" y="677" on="0"/>
        <pt x="60" y="681" on="1"/>
        <pt x="63" y="683" on="0"/>
        <pt x="351" y="683" on="1"/>
        <pt x="638" y="683" on="1"/>
        <pt x="638" y="679" on="1"/>
        <pt x="638" y="678" on="0"/>
        <pt x="666" y="448" on="0"/>
        <pt x="666" y="447" on="1"/>
        <pt x="666" y="443" on="1"/>
        <pt x="626" y="443" on="1"/>
        <pt x="626" y="447" on="1"/>
        <pt x="612" y="543" on="0"/>
        <pt x="549" y="624" on="0"/>
        <pt x="464" y="633" on="1"/>
        <pt x="425" y="637" on="0"/>
        <pt x="294" y="637" on="1"/>
        <pt x="189" y="637" on="1"/>
        <pt x="293" y="494" on="1"/>
        <pt x="317" y="461" on="0"/>
        <pt x="371" y="385" on="0"/>
        <pt x="384" y="366" on="1"/>
        <pt x="398" y="348" on="1"/>
        <pt x="402" y="341" on="0"/>
        <pt x="399" y="337" on="1"/>
        <pt x="154" y="57" on="1"/>
        <pt x="407" y="57" on="0"/>
        <pt x="428" y="58" on="1"/>
        <pt x="489" y="61" on="0"/>
        <pt x="551" y="79" on="0"/>
        <pt x="575" y="103" on="1"/>
        <pt x="613" y="143" on="0"/>
        <pt x="624" y="235" on="1"/>
        <pt x="624" y="238" on="0"/>
        <pt x="625" y="246" on="0"/>
        <pt x="626" y="248" on="1"/>
        <pt x="626" y="251" on="1"/>
        <pt x="666" y="251" on="1"/>
      </contour>
    </TTGlyph>
    <TTGlyph name="T" xMin="36" yMin="0" xMax="685" yMax="677">
      <contour>
        <pt x="36" y="443" on="1"/>
        <pt x="37" y="445" on="0"/>
        <pt x="55" y="669" on="0"/>
        <pt x="55" y="671" on="1"/>
        <pt x="55" y="677" on="1"/>
        <pt x="666" y="677" on="1"/>
        <pt x="666" y="671" on="1"/>
        <pt x="667" y="669" on="0"/>
        <pt x="685" y="445" on="0"/>
        <pt x="685" y="443" on="1"/>
        <pt x="685" y="437" on="1"/>
        <pt x="645" y="437" on="1"/>
        <pt x="645" y="443" on="1"/>
        <pt x="644" y="447" on="0"/>
        <pt x="642" y="467" on="1"/>
        <pt x="635" y="564" on="0"/>
        <pt x="610" y="593" on="1"/>
        <pt x="593" y="614" on="0"/>
        <pt x="555" y="625" on="1"/>
        <pt x="534" y="630" on="0"/>
        <pt x="478" y="630" on="1"/>
        <pt x="451" y="630" on="1"/>
        <pt x="428" y="630" on="0"/>
        <pt x="417" y="627" on="0"/>
        <pt x="414" y="618" on="1"/>
        <pt x="413" y="616" on="0"/>
        <pt x="413" y="339" on="1"/>
        <pt x="413" y="63" on="1"/>
        <pt x="421" y="52" on="0"/>
        <pt x="438" y="49" on="1"/>
        <pt x="474" y="46" on="0"/>
        <pt x="528" y="46" on="1"/>
        <pt x="558" y="46" on="1"/>
        <pt x="558" y="0" on="1"/>
        <pt x="545" y="0" on="1"/>
        <pt x="524" y="3" on="0"/>
        <pt x="198" y="3" on="0"/>
        <pt x="177" y="0" on="1"/>
        <pt x="164" y="0" on="1"/>
        <pt x="164" y="46" on="1"/>
        <pt x="194" y="46" on="1"/>
        <pt x="248" y="46" on="0"/>
        <pt x="284" y="49" on="1"/>
        <pt x="301" y="52" on="0"/>
        <pt x="309" y="63" on="1"/>
        <pt x="309" y="339" on="1"/>
        <pt x="309" y="616" on="0"/>
        <pt x="308" y="618" on="1"/>
        <pt x="305" y="627" on="0"/>
        <pt x="294" y="630" on="0"/>
        <pt x="271" y="630" on="1"/>
        <pt x="244" y="630" on="1"/>
        <pt x="197" y="630" on="0"/>
        <pt x="187" y="629" on="1"/>
        <pt x="144" y="622" on="0"/>
        <pt x="119" y="601" on="1"/>
        <pt x="87" y="574" on="0"/>
        <pt x="79" y="467" on="1"/>
        <pt x="77" y="447" on="0"/>
        <pt x="76" y="443" on="1"/>
        <pt x="76" y="437" on="1"/>
        <pt x="36" y="437" on="1"/>
      </contour>
    </TTGlyph>
    <TTGlyph name="Theta" xMin="56" yMin="-22" xMax="722" yMax="705">
      <contour>
        <pt x="722" y="341" on="1"/>
        <pt x="722" y="190" on="0"/>
        <pt x="526" y="-22" on="0"/>
        <pt x="388" y="-22" on="1"/>
        <pt x="362" y="-22" on="0"/>
        <pt x="339" y="-18" on="1"/>
        <pt x="233" y="-1" on="0"/>
        <pt x="80" y="160" on="0"/>
        <pt x="61" y="273" on="1"/>
        <pt x="56" y="298" on="0"/>
        <pt x="56" y="340" on="1"/>
        <pt x="56" y="475" on="0"/>
        <pt x="138" y="581" on="1"/>
        <pt x="169" y="617" on="0"/>
        <pt x="191" y="633" on="1"/>
        <pt x="266" y="695" on="0"/>
        <pt x="362" y="704" on="1"/>
        <pt x="371" y="705" on="0"/>
        <pt x="388" y="705" on="1"/>
        <pt x="497" y="705" on="0"/>
        <pt x="587" y="633" on="1"/>
        <pt x="609" y="616" on="0"/>
        <pt x="639" y="581" on="1"/>
        <pt x="705" y="499" on="0"/>
        <pt x="720" y="383" on="1"/>
        <pt x="722" y="365" on="0"/>
      </contour>
      <contour>
        <pt x="418" y="665" on="1"/>
        <pt x="406" y="668" on="0"/>
        <pt x="384" y="668" on="1"/>
        <pt x="380" y="668" on="0"/>
        <pt x="368" y="667" on="0"/>
        <pt x="366" y="667" on="1"/>
        <pt x="275" y="653" on="0"/>
        <pt x="221" y="566" on="1"/>
        <pt x="168" y="487" on="0"/>
        <pt x="168" y="339" on="1"/>
        <pt x="168" y="274" on="0"/>
        <pt x="176" y="235" on="1"/>
        <pt x="189" y="158" on="0"/>
        <pt x="267" y="51" on="0"/>
        <pt x="324" y="28" on="1"/>
        <pt x="356" y="16" on="0"/>
        <pt x="388" y="16" on="1"/>
        <pt x="439" y="16" on="0"/>
        <pt x="531" y="73" on="0"/>
        <pt x="561" y="123" on="1"/>
        <pt x="610" y="206" on="0"/>
        <pt x="610" y="339" on="1"/>
        <pt x="610" y="436" on="0"/>
        <pt x="583" y="512" on="1"/>
        <pt x="562" y="571" on="0"/>
        <pt x="472" y="656" on="0"/>
      </contour>
      <contour>
        <pt x="223" y="263" on="1"/>
        <pt x="223" y="422" on="1"/>
        <pt x="263" y="422" on="1"/>
        <pt x="263" y="388" on="1"/>
        <pt x="514" y="388" on="1"/>
        <pt x="514" y="422" on="1"/>
        <pt x="554" y="422" on="1"/>
        <pt x="554" y="263" on="1"/>
        <pt x="514" y="263" on="1"/>
        <pt x="514" y="297" on="1"/>
        <pt x="263" y="297" on="1"/>
        <pt x="263" y="263" on="1"/>
      </contour>
    </TTGlyph>
    <TTGlyph name="U" xMin="25" yMin="-22" xMax="724" yMax="683">
      <contour>
        <pt x="128" y="622" on="1"/>
        <pt x="118" y="632" on="0"/>
        <pt x="99" y="636" on="0"/>
        <pt x="58" y="637" on="1"/>
        <pt x="25" y="637" on="1"/>
        <pt x="25" y="683" on="1"/>
        <pt x="36" y="683" on="1"/>
        <pt x="53" y="680" on="0"/>
        <pt x="307" y="680" on="0"/>
        <pt x="324" y="683" on="1"/>
        <pt x="335" y="683" on="1"/>
        <pt x="335" y="637" on="1"/>
        <pt x="302" y="637" on="1"/>
        <pt x="261" y="636" on="0"/>
        <pt x="240" y="632" on="0"/>
        <pt x="233" y="622" on="1"/>
        <pt x="232" y="418" on="1"/>
        <pt x="232" y="194" on="0"/>
        <pt x="236" y="169" on="1"/>
        <pt x="245" y="104" on="0"/>
        <pt x="280" y="67" on="1"/>
        <pt x="325" y="24" on="0"/>
        <pt x="389" y="24" on="1"/>
        <pt x="406" y="24" on="0"/>
        <pt x="422" y="27" on="1"/>
        <pt x="482" y="38" on="0"/>
        <pt x="560" y="119" on="0"/>
        <pt x="571" y="183" on="1"/>
        <pt x="575" y="206" on="0"/>
        <pt x="575" y="410" on="1"/>
        <pt x="575" y="598" on="1"/>
        <pt x="556" y="634" on="0"/>
        <pt x="489" y="637" on="1"/>
        <pt x="472" y="637" on="1"/>
        <pt x="472" y="683" on="1"/>
        <pt x="481" y="683" on="1"/>
        <pt x="494" y="680" on="0"/>
        <pt x="702" y="680" on="0"/>
        <pt x="715" y="683" on="1"/>
        <pt x="724" y="683" on="1"/>
        <pt x="724" y="637" on="1"/>
        <pt x="707" y="637" on="1"/>
        <pt x="634" y="633" on="0"/>
        <pt x="622" y="598" on="1"/>
        <pt x="621" y="399" on="1"/>
        <pt x="620" y="194" on="0"/>
        <pt x="617" y="180" on="1"/>
        <pt x="617" y="179" on="0"/>
        <pt x="615" y="171" on="1"/>
        <pt x="598" y="91" on="0"/>
        <pt x="474" y="-22" on="0"/>
        <pt x="389" y="-22" on="1"/>
        <pt x="324" y="-22" on="0"/>
        <pt x="264" y="9" on="1"/>
        <pt x="152" y="67" on="0"/>
        <pt x="130" y="192" on="1"/>
        <pt x="129" y="201" on="0"/>
        <pt x="128" y="412" on="1"/>
      </contour>
    </TTGlyph>
    <TTGlyph name="Upsilon" xMin="55" yMin="0" xMax="722" yMax="705">
      <contour>
        <pt x="78" y="536" on="1"/>
        <pt x="73" y="536" on="1"/>
        <pt x="62" y="536" on="0"/>
        <pt x="55" y="541" on="0"/>
        <pt x="55" y="551" on="1"/>
        <pt x="55" y="616" on="0"/>
        <pt x="135" y="705" on="0"/>
        <pt x="194" y="705" on="1"/>
        <pt x="214" y="705" on="0"/>
        <pt x="234" y="700" on="1"/>
        <pt x="348" y="670" on="0"/>
        <pt x="386" y="489" on="1"/>
        <pt x="389" y="474" on="1"/>
        <pt x="390" y="475" on="0"/>
        <pt x="392" y="489" on="1"/>
        <pt x="417" y="603" on="0"/>
        <pt x="472" y="658" on="1"/>
        <pt x="519" y="705" on="0"/>
        <pt x="584" y="705" on="1"/>
        <pt x="615" y="705" on="0"/>
        <pt x="641" y="692" on="1"/>
        <pt x="674" y="675" on="0"/>
        <pt x="722" y="597" on="0"/>
        <pt x="722" y="551" on="1"/>
        <pt x="722" y="540" on="0"/>
        <pt x="715" y="536" on="0"/>
        <pt x="699" y="536" on="1"/>
        <pt x="680" y="536" on="0"/>
        <pt x="677" y="541" on="1"/>
        <pt x="677" y="542" on="0"/>
        <pt x="676" y="547" on="0"/>
        <pt x="676" y="548" on="1"/>
        <pt x="676" y="578" on="0"/>
        <pt x="623" y="616" on="0"/>
        <pt x="588" y="616" on="1"/>
        <pt x="536" y="616" on="0"/>
        <pt x="505" y="582" on="1"/>
        <pt x="455" y="530" on="0"/>
        <pt x="443" y="403" on="1"/>
        <pt x="442" y="385" on="0"/>
        <pt x="442" y="222" on="1"/>
        <pt x="442" y="61" on="1"/>
        <pt x="450" y="53" on="0"/>
        <pt x="466" y="48" on="0"/>
        <pt x="494" y="47" on="1"/>
        <pt x="505" y="46" on="0"/>
        <pt x="542" y="46" on="1"/>
        <pt x="569" y="46" on="1"/>
        <pt x="569" y="0" on="1"/>
        <pt x="557" y="0" on="1"/>
        <pt x="538" y="3" on="0"/>
        <pt x="240" y="3" on="0"/>
        <pt x="221" y="0" on="1"/>
        <pt x="209" y="0" on="1"/>
        <pt x="209" y="46" on="1"/>
        <pt x="236" y="46" on="1"/>
        <pt x="273" y="46" on="0"/>
        <pt x="284" y="47" on="1"/>
        <pt x="312" y="48" on="0"/>
        <pt x="326" y="53" on="0"/>
        <pt x="337" y="61" on="1"/>
        <pt x="337" y="209" on="1"/>
        <pt x="337" y="383" on="0"/>
        <pt x="333" y="415" on="1"/>
        <pt x="315" y="597" on="0"/>
        <pt x="213" y="615" on="1"/>
        <pt x="207" y="616" on="0"/>
        <pt x="189" y="616" on="1"/>
        <pt x="154" y="616" on="0"/>
        <pt x="101" y="578" on="0"/>
        <pt x="101" y="548" on="1"/>
        <pt x="101" y="540" on="0"/>
        <pt x="91" y="536" on="0"/>
      </contour>
    </TTGlyph>
    <TTGlyph name="V" xMin="19" yMin="-22" xMax="730" yMax="683">
      <contour>
        <pt x="114" y="620" on="1"/>
        <pt x="103" y="631" on="0"/>
        <pt x="85" y="636" on="0"/>
        <pt x="48" y="637" on="1"/>
        <pt x="19" y="637" on="1"/>
        <pt x="19" y="683" on="1"/>
        <pt x="28" y="683" on="1"/>
        <pt x="42" y="680" on="0"/>
        <pt x="152" y="680" on="1"/>
        <pt x="272" y="680" on="0"/>
        <pt x="294" y="683" on="1"/>
        <pt x="305" y="683" on="1"/>
        <pt x="305" y="637" on="1"/>
        <pt x="284" y="637" on="1"/>
        <pt x="238" y="636" on="0"/>
        <pt x="227" y="626" on="1"/>
        <pt x="223" y="623" on="0"/>
        <pt x="223" y="620" on="1"/>
        <pt x="223" y="618" on="0"/>
        <pt x="403" y="126" on="0"/>
        <pt x="404" y="126" on="1"/>
        <pt x="443" y="231" on="0"/>
        <pt x="490" y="358" on="1"/>
        <pt x="575" y="588" on="0"/>
        <pt x="575" y="597" on="1"/>
        <pt x="575" y="616" on="0"/>
        <pt x="533" y="637" on="0"/>
        <pt x="508" y="637" on="1"/>
        <pt x="503" y="637" on="1"/>
        <pt x="503" y="683" on="1"/>
        <pt x="512" y="683" on="1"/>
        <pt x="529" y="680" on="0"/>
        <pt x="627" y="680" on="1"/>
        <pt x="713" y="680" on="0"/>
        <pt x="724" y="683" on="1"/>
        <pt x="730" y="683" on="1"/>
        <pt x="730" y="637" on="1"/>
        <pt x="723" y="637" on="1"/>
        <pt x="649" y="637" on="0"/>
        <pt x="627" y="596" on="1"/>
        <pt x="627" y="595" on="0"/>
        <pt x="402" y="-13" on="0"/>
        <pt x="401" y="-14" on="1"/>
        <pt x="398" y="-22" on="0"/>
        <pt x="383" y="-22" on="1"/>
        <pt x="374" y="-22" on="1"/>
        <pt x="365" y="-22" on="1"/>
        <pt x="351" y="-22" on="0"/>
        <pt x="348" y="-14" on="1"/>
        <pt x="346" y="-12" on="0"/>
        <pt x="231" y="303" on="1"/>
        <pt x="114" y="617" on="0"/>
      </contour>
    </TTGlyph>
    <TTGlyph name="W" xMin="18" yMin="-22" xMax="1009" yMax="683">
      <contour>
        <pt x="792" y="683" on="1"/>
        <pt x="810" y="680" on="0"/>
        <pt x="914" y="680" on="1"/>
        <pt x="991" y="680" on="0"/>
        <pt x="1003" y="683" on="1"/>
        <pt x="1009" y="683" on="1"/>
        <pt x="1009" y="637" on="1"/>
        <pt x="996" y="637" on="1"/>
        <pt x="948" y="634" on="0"/>
        <pt x="926" y="612" on="1"/>
        <pt x="918" y="604" on="0"/>
        <pt x="915" y="598" on="1"/>
        <pt x="912" y="591" on="0"/>
        <pt x="814" y="285" on="0"/>
        <pt x="718" y="-15" on="0"/>
        <pt x="716" y="-17" on="1"/>
        <pt x="711" y="-22" on="0"/>
        <pt x="694" y="-22" on="1"/>
        <pt x="676" y="-22" on="0"/>
        <pt x="673" y="-15" on="1"/>
        <pt x="671" y="-13" on="0"/>
        <pt x="593" y="231" on="1"/>
        <pt x="514" y="477" on="1"/>
        <pt x="492" y="413" on="0"/>
        <pt x="414" y="169" on="0"/>
        <pt x="357" y="-11" on="0"/>
        <pt x="355" y="-15" on="1"/>
        <pt x="351" y="-22" on="0"/>
        <pt x="331" y="-22" on="1"/>
        <pt x="314" y="-21" on="0"/>
        <pt x="310" y="-15" on="1"/>
        <pt x="309" y="-14" on="0"/>
        <pt x="107" y="618" on="0"/>
        <pt x="104" y="622" on="1"/>
        <pt x="98" y="632" on="0"/>
        <pt x="87" y="633" on="1"/>
        <pt x="73" y="637" on="0"/>
        <pt x="35" y="637" on="1"/>
        <pt x="18" y="637" on="1"/>
        <pt x="18" y="683" on="1"/>
        <pt x="27" y="683" on="1"/>
        <pt x="69" y="681" on="0"/>
        <pt x="154" y="681" on="1"/>
        <pt x="272" y="681" on="0"/>
        <pt x="287" y="683" on="1"/>
        <pt x="298" y="683" on="1"/>
        <pt x="298" y="637" on="1"/>
        <pt x="285" y="637" on="1"/>
        <pt x="239" y="637" on="0"/>
        <pt x="223" y="629" on="1"/>
        <pt x="213" y="626" on="0"/>
        <pt x="213" y="620" on="1"/>
        <pt x="213" y="616" on="0"/>
        <pt x="289" y="381" on="1"/>
        <pt x="364" y="144" on="1"/>
        <pt x="427" y="339" on="1"/>
        <pt x="492" y="544" on="0"/>
        <pt x="492" y="546" on="1"/>
        <pt x="470" y="619" on="0"/>
        <pt x="464" y="625" on="1"/>
        <pt x="454" y="636" on="0"/>
        <pt x="408" y="637" on="1"/>
        <pt x="380" y="637" on="1"/>
        <pt x="380" y="683" on="1"/>
        <pt x="388" y="683" on="1"/>
        <pt x="402" y="680" on="0"/>
        <pt x="508" y="680" on="1"/>
        <pt x="629" y="680" on="0"/>
        <pt x="650" y="683" on="1"/>
        <pt x="660" y="683" on="1"/>
        <pt x="660" y="637" on="1"/>
        <pt x="647" y="637" on="1"/>
        <pt x="576" y="637" on="0"/>
        <pt x="576" y="619" on="1"/>
        <pt x="727" y="146" on="1"/>
        <pt x="869" y="580" on="0"/>
        <pt x="869" y="600" on="1"/>
        <pt x="869" y="602" on="0"/>
        <pt x="867" y="606" on="1"/>
        <pt x="851" y="634" on="0"/>
        <pt x="794" y="637" on="1"/>
        <pt x="783" y="637" on="1"/>
        <pt x="783" y="683" on="1"/>
      </contour>
    </TTGlyph>
    <TTGlyph name="X" xMin="23" yMin="0" xMax="726" yMax="683">
      <contour>
        <pt x="270" y="0" on="1"/>
        <pt x="257" y="3" on="0"/>
        <pt x="141" y="3" on="1"/>
        <pt x="43" y="3" on="0"/>
        <pt x="31" y="0" on="1"/>
        <pt x="23" y="0" on="1"/>
        <pt x="23" y="46" on="1"/>
        <pt x="40" y="46" on="1"/>
        <pt x="129" y="49" on="0"/>
        <pt x="161" y="88" on="1"/>
        <pt x="165" y="94" on="0"/>
        <pt x="324" y="338" on="0"/>
        <pt x="324" y="339" on="1"/>
        <pt x="324" y="341" on="0"/>
        <pt x="146" y="619" on="0"/>
        <pt x="143" y="622" on="1"/>
        <pt x="125" y="637" on="0"/>
        <pt x="71" y="637" on="1"/>
        <pt x="57" y="637" on="1"/>
        <pt x="37" y="637" on="1"/>
        <pt x="37" y="683" on="1"/>
        <pt x="46" y="683" on="1"/>
        <pt x="61" y="680" on="0"/>
        <pt x="172" y="680" on="1"/>
        <pt x="296" y="680" on="0"/>
        <pt x="318" y="683" on="1"/>
        <pt x="329" y="683" on="1"/>
        <pt x="329" y="637" on="1"/>
        <pt x="324" y="637" on="1"/>
        <pt x="307" y="637" on="0"/>
        <pt x="265" y="626" on="0"/>
        <pt x="263" y="621" on="1"/>
        <pt x="263" y="618" on="0"/>
        <pt x="382" y="431" on="0"/>
        <pt x="384" y="431" on="1"/>
        <pt x="385" y="431" on="0"/>
        <pt x="489" y="592" on="0"/>
        <pt x="489" y="593" on="1"/>
        <pt x="495" y="604" on="0"/>
        <pt x="482" y="617" on="1"/>
        <pt x="467" y="634" on="0"/>
        <pt x="436" y="637" on="1"/>
        <pt x="428" y="637" on="1"/>
        <pt x="428" y="683" on="1"/>
        <pt x="437" y="683" on="1"/>
        <pt x="450" y="680" on="0"/>
        <pt x="566" y="680" on="1"/>
        <pt x="664" y="680" on="0"/>
        <pt x="676" y="683" on="1"/>
        <pt x="684" y="683" on="1"/>
        <pt x="684" y="637" on="1"/>
        <pt x="667" y="637" on="1"/>
        <pt x="585" y="634" on="0"/>
        <pt x="551" y="599" on="1"/>
        <pt x="548" y="596" on="0"/>
        <pt x="478" y="491" on="1"/>
        <pt x="412" y="388" on="0"/>
        <pt x="412" y="387" on="1"/>
        <pt x="412" y="385" on="0"/>
        <pt x="617" y="65" on="0"/>
        <pt x="620" y="62" on="1"/>
        <pt x="628" y="53" on="0"/>
        <pt x="656" y="47" on="0"/>
        <pt x="695" y="46" on="1"/>
        <pt x="726" y="46" on="1"/>
        <pt x="726" y="0" on="1"/>
        <pt x="717" y="0" on="1"/>
        <pt x="702" y="3" on="0"/>
        <pt x="591" y="3" on="1"/>
        <pt x="468" y="3" on="0"/>
        <pt x="445" y="0" on="1"/>
        <pt x="434" y="0" on="1"/>
        <pt x="434" y="46" on="1"/>
        <pt x="440" y="46" on="1"/>
        <pt x="457" y="46" on="0"/>
        <pt x="499" y="57" on="0"/>
        <pt x="499" y="64" on="1"/>
        <pt x="499" y="67" on="0"/>
        <pt x="427" y="181" on="0"/>
        <pt x="390" y="238" on="1"/>
        <pt x="353" y="295" on="1"/>
        <pt x="350" y="292" on="1"/>
        <pt x="348" y="290" on="0"/>
        <pt x="338" y="276" on="0"/>
        <pt x="323" y="253" on="0"/>
        <pt x="301" y="218" on="0"/>
        <pt x="286" y="195" on="1"/>
        <pt x="220" y="95" on="0"/>
        <pt x="219" y="92" on="1"/>
        <pt x="218" y="91" on="0"/>
        <pt x="218" y="84" on="1"/>
        <pt x="218" y="70" on="0"/>
        <pt x="250" y="48" on="0"/>
        <pt x="272" y="46" on="1"/>
        <pt x="280" y="46" on="1"/>
        <pt x="280" y="0" on="1"/>
      </contour>
    </TTGlyph>
    <TTGlyph name="Xi" xMin="42" yMin="0" xMax="624" yMax="677">
      <contour>
        <pt x="47" y="509" on="1"/>
        <pt x="55" y="676" on="1"/>
        <pt x="55" y="677" on="0"/>
        <pt x="611" y="677" on="0"/>
        <pt x="611" y="676" on="1"/>
        <pt x="619" y="509" on="1"/>
        <pt x="619" y="508" on="0"/>
        <pt x="579" y="508" on="0"/>
        <pt x="579" y="510" on="1"/>
        <pt x="579" y="529" on="0"/>
        <pt x="571" y="586" on="0"/>
        <pt x="564" y="589" on="1"/>
        <pt x="550" y="594" on="0"/>
        <pt x="116" y="594" on="0"/>
        <pt x="102" y="589" on="1"/>
        <pt x="95" y="586" on="0"/>
        <pt x="87" y="529" on="0"/>
        <pt x="87" y="510" on="1"/>
        <pt x="87" y="508" on="0"/>
        <pt x="47" y="508" on="0"/>
      </contour>
      <contour>
        <pt x="139" y="260" on="1"/>
        <pt x="139" y="445" on="1"/>
        <pt x="179" y="445" on="1"/>
        <pt x="179" y="394" on="1"/>
        <pt x="487" y="394" on="1"/>
        <pt x="487" y="445" on="1"/>
        <pt x="527" y="445" on="1"/>
        <pt x="527" y="260" on="1"/>
        <pt x="487" y="260" on="1"/>
        <pt x="487" y="311" on="1"/>
        <pt x="179" y="311" on="1"/>
        <pt x="179" y="260" on="1"/>
      </contour>
      <contour>
        <pt x="50" y="0" on="1"/>
        <pt x="42" y="180" on="1"/>
        <pt x="62" y="180" on="1"/>
        <pt x="82" y="180" on="0"/>
        <pt x="82" y="178" on="1"/>
        <pt x="82" y="133" on="0"/>
        <pt x="89" y="105" on="1"/>
        <pt x="92" y="93" on="0"/>
        <pt x="98" y="87" on="0"/>
        <pt x="108" y="86" on="1"/>
        <pt x="137" y="83" on="0"/>
        <pt x="333" y="83" on="1"/>
        <pt x="530" y="83" on="0"/>
        <pt x="558" y="86" on="1"/>
        <pt x="568" y="87" on="0"/>
        <pt x="574" y="93" on="0"/>
        <pt x="577" y="105" on="1"/>
        <pt x="584" y="133" on="0"/>
        <pt x="584" y="178" on="1"/>
        <pt x="584" y="180" on="0"/>
        <pt x="604" y="180" on="1"/>
        <pt x="624" y="180" on="1"/>
        <pt x="616" y="0" on="1"/>
      </contour>
    </TTGlyph>
    <TTGlyph name="Y" xMin="11" yMin="0" xMax="738" yMax="683">
      <contour>
        <pt x="518" y="0" on="1"/>
        <pt x="502" y="3" on="0"/>
        <pt x="374" y="3" on="1"/>
        <pt x="248" y="3" on="0"/>
        <pt x="232" y="0" on="1"/>
        <pt x="221" y="0" on="1"/>
        <pt x="221" y="46" on="1"/>
        <pt x="254" y="46" on="1"/>
        <pt x="313" y="47" on="0"/>
        <pt x="321" y="58" on="1"/>
        <pt x="324" y="62" on="0"/>
        <pt x="324" y="167" on="1"/>
        <pt x="324" y="273" on="1"/>
        <pt x="221" y="446" on="1"/>
        <pt x="117" y="620" on="0"/>
        <pt x="114" y="623" on="1"/>
        <pt x="100" y="637" on="0"/>
        <pt x="52" y="637" on="1"/>
        <pt x="31" y="637" on="1"/>
        <pt x="11" y="637" on="1"/>
        <pt x="11" y="683" on="1"/>
        <pt x="20" y="683" on="1"/>
        <pt x="36" y="680" on="0"/>
        <pt x="148" y="680" on="1"/>
        <pt x="272" y="680" on="0"/>
        <pt x="294" y="683" on="1"/>
        <pt x="305" y="683" on="1"/>
        <pt x="305" y="637" on="1"/>
        <pt x="287" y="637" on="1"/>
        <pt x="239" y="636" on="0"/>
        <pt x="236" y="621" on="1"/>
        <pt x="236" y="619" on="0"/>
        <pt x="321" y="475" on="1"/>
        <pt x="407" y="332" on="1"/>
        <pt x="483" y="460" on="1"/>
        <pt x="561" y="591" on="0"/>
        <pt x="561" y="592" on="1"/>
        <pt x="563" y="595" on="0"/>
        <pt x="563" y="604" on="1"/>
        <pt x="563" y="633" on="0"/>
        <pt x="517" y="637" on="1"/>
        <pt x="508" y="637" on="1"/>
        <pt x="508" y="683" on="1"/>
        <pt x="517" y="683" on="1"/>
        <pt x="528" y="681" on="0"/>
        <pt x="626" y="681" on="1"/>
        <pt x="695" y="681" on="0"/>
        <pt x="731" y="683" on="1"/>
        <pt x="738" y="683" on="1"/>
        <pt x="738" y="637" on="1"/>
        <pt x="723" y="637" on="1"/>
        <pt x="640" y="633" on="0"/>
        <pt x="613" y="588" on="1"/>
        <pt x="612" y="587" on="0"/>
        <pt x="517" y="427" on="1"/>
        <pt x="425" y="273" on="1"/>
        <pt x="425" y="169" on="1"/>
        <pt x="425" y="64" on="0"/>
        <pt x="427" y="60" on="1"/>
        <pt x="430" y="52" on="0"/>
        <pt x="444" y="49" on="1"/>
        <pt x="459" y="46" on="0"/>
        <pt x="506" y="46" on="1"/>
        <pt x="528" y="46" on="1"/>
        <pt x="528" y="0" on="1"/>
      </contour>
    </TTGlyph>
    <TTGlyph name="Z" xMin="55" yMin="0" xMax="560" yMax="683">
      <contour>
        <pt x="69" y="443" on="1"/>
        <pt x="69" y="452" on="0"/>
        <pt x="80" y="656" on="0"/>
        <pt x="80" y="683" on="1"/>
        <pt x="549" y="683" on="1"/>
        <pt x="555" y="677" on="0"/>
        <pt x="555" y="664" on="1"/>
        <pt x="555" y="649" on="0"/>
        <pt x="554" y="648" on="1"/>
        <pt x="552" y="645" on="0"/>
        <pt x="180" y="51" on="0"/>
        <pt x="178" y="49" on="0"/>
        <pt x="206" y="49" on="0"/>
        <pt x="263" y="49" on="1"/>
        <pt x="352" y="50" on="0"/>
        <pt x="361" y="51" on="1"/>
        <pt x="426" y="60" on="0"/>
        <pt x="494" y="116" on="0"/>
        <pt x="507" y="173" on="1"/>
        <pt x="513" y="200" on="0"/>
        <pt x="520" y="273" on="1"/>
        <pt x="520" y="282" on="1"/>
        <pt x="560" y="282" on="1"/>
        <pt x="560" y="274" on="1"/>
        <pt x="559" y="272" on="0"/>
        <pt x="543" y="11" on="0"/>
        <pt x="543" y="8" on="1"/>
        <pt x="543" y="0" on="1"/>
        <pt x="302" y="0" on="1"/>
        <pt x="61" y="1" on="1"/>
        <pt x="58" y="3" on="1"/>
        <pt x="55" y="8" on="0"/>
        <pt x="55" y="21" on="1"/>
        <pt x="55" y="35" on="1"/>
        <pt x="59" y="43" on="0"/>
        <pt x="248" y="343" on="0"/>
        <pt x="432" y="636" on="0"/>
        <pt x="432" y="637" on="1"/>
        <pt x="288" y="637" on="0"/>
        <pt x="275" y="636" on="1"/>
        <pt x="181" y="630" on="0"/>
        <pt x="141" y="573" on="1"/>
        <pt x="109" y="521" on="0"/>
        <pt x="109" y="445" on="1"/>
        <pt x="109" y="443" on="0"/>
        <pt x="89" y="443" on="1"/>
      </contour>
    </TTGlyph>
    <TTGlyph name="a" xMin="34" yMin="-11" xMax="493" yMax="448">
      <contour>
        <pt x="139" y="305" on="0"/>
        <pt x="93" y="305" on="0"/>
        <pt x="63" y="337" on="0"/>
        <pt x="63" y="359" on="1"/>
        <pt x="63" y="373" on="0"/>
        <pt x="71" y="391" on="1"/>
        <pt x="84" y="418" on="0"/>
        <pt x="162" y="448" on="0"/>
        <pt x="218" y="448" on="1"/>
        <pt x="284" y="448" on="0"/>
        <pt x="381" y="388" on="0"/>
        <pt x="396" y="340" on="1"/>
        <pt x="401" y="326" on="0"/>
        <pt x="402" y="291" on="0"/>
        <pt x="402" y="194" on="1"/>
        <pt x="402" y="96" on="0"/>
        <pt x="403" y="63" on="0"/>
        <pt x="408" y="54" on="1"/>
        <pt x="414" y="40" on="0"/>
        <pt x="428" y="40" on="1"/>
        <pt x="441" y="40" on="0"/>
        <pt x="447" y="54" on="1"/>
        <pt x="453" y="66" on="0"/>
        <pt x="453" y="109" on="1"/>
        <pt x="453" y="145" on="1"/>
        <pt x="493" y="145" on="1"/>
        <pt x="493" y="106" on="1"/>
        <pt x="492" y="66" on="0"/>
        <pt x="490" y="59" on="1"/>
        <pt x="481" y="31" on="0"/>
        <pt x="433" y="-6" on="0"/>
        <pt x="400" y="-6" on="1"/>
        <pt x="375" y="-6" on="0"/>
        <pt x="336" y="29" on="0"/>
        <pt x="329" y="54" on="1"/>
        <pt x="329" y="58" on="1"/>
        <pt x="326" y="55" on="0"/>
        <pt x="308" y="34" on="0"/>
        <pt x="304" y="30" on="1"/>
        <pt x="255" y="-11" on="0"/>
        <pt x="190" y="-11" on="1"/>
        <pt x="138" y="-11" on="0"/>
        <pt x="56" y="33" on="0"/>
        <pt x="42" y="69" on="1"/>
        <pt x="34" y="88" on="0"/>
        <pt x="34" y="107" on="1"/>
        <pt x="34" y="154" on="0"/>
        <pt x="73" y="193" on="1"/>
        <pt x="96" y="216" on="0"/>
        <pt x="130" y="231" on="1"/>
        <pt x="198" y="262" on="0"/>
        <pt x="304" y="268" on="1"/>
        <pt x="318" y="268" on="1"/>
        <pt x="318" y="290" on="1"/>
        <pt x="318" y="324" on="0"/>
        <pt x="312" y="340" on="1"/>
        <pt x="302" y="373" on="0"/>
        <pt x="252" y="411" on="0"/>
        <pt x="215" y="411" on="1"/>
        <pt x="148" y="411" on="0"/>
        <pt x="148" y="403" on="1"/>
        <pt x="170" y="388" on="0"/>
        <pt x="170" y="359" on="1"/>
        <pt x="170" y="337" on="0"/>
      </contour>
      <contour>
        <pt x="318" y="175" on="1"/>
        <pt x="318" y="233" on="0"/>
        <pt x="317" y="233" on="1"/>
        <pt x="314" y="233" on="0"/>
        <pt x="312" y="232" on="1"/>
        <pt x="175" y="223" on="0"/>
        <pt x="137" y="151" on="1"/>
        <pt x="126" y="131" on="0"/>
        <pt x="126" y="106" on="1"/>
        <pt x="126" y="72" on="0"/>
        <pt x="174" y="26" on="0"/>
        <pt x="209" y="26" on="1"/>
        <pt x="249" y="26" on="0"/>
        <pt x="306" y="74" on="0"/>
        <pt x="315" y="109" on="1"/>
        <pt x="317" y="116" on="0"/>
      </contour>
    </TTGlyph>
    <TTGlyph name="acute" xMin="204" yMin="505" xMax="393" yMax="699">
      <contour>
        <pt x="349" y="699" on="1"/>
        <pt x="365" y="699" on="0"/>
        <pt x="393" y="673" on="0"/>
        <pt x="393" y="656" on="1"/>
        <pt x="393" y="640" on="0"/>
        <pt x="379" y="626" on="1"/>
        <pt x="378" y="625" on="0"/>
        <pt x="303" y="563" on="1"/>
        <pt x="232" y="505" on="1"/>
        <pt x="217" y="519" on="1"/>
        <pt x="203" y="533" on="0"/>
        <pt x="204" y="533" on="1"/>
        <pt x="204" y="534" on="0"/>
        <pt x="255" y="601" on="0"/>
        <pt x="309" y="672" on="0"/>
        <pt x="313" y="678" on="1"/>
        <pt x="331" y="699" on="0"/>
      </contour>
    </TTGlyph>
    <TTGlyph name="acutecomb" xMin="-296" yMin="505" xMax="-107" yMax="699">
      <contour>
        <pt x="-151" y="699" on="1"/>
        <pt x="-135" y="699" on="0"/>
        <pt x="-107" y="673" on="0"/>
        <pt x="-107" y="656" on="1"/>
        <pt x="-107" y="640" on="0"/>
        <pt x="-121" y="626" on="1"/>
        <pt x="-122" y="625" on="0"/>
        <pt x="-197" y="563" on="1"/>
        <pt x="-268" y="505" on="1"/>
        <pt x="-283" y="519" on="1"/>
        <pt x="-297" y="533" on="0"/>
        <pt x="-296" y="533" on="1"/>
        <pt x="-296" y="534" on="0"/>
        <pt x="-245" y="601" on="0"/>
        <pt x="-191" y="672" on="0"/>
        <pt x="-187" y="678" on="1"/>
        <pt x="-169" y="699" on="0"/>
      </contour>
    </TTGlyph>
    <TTGlyph name="ae" xMin="37" yMin="-11" xMax="693" yMax="448">
      <contour>
        <pt x="139" y="305" on="0"/>
        <pt x="93" y="305" on="0"/>
        <pt x="63" y="337" on="0"/>
        <pt x="63" y="359" on="1"/>
        <pt x="63" y="373" on="0"/>
        <pt x="71" y="391" on="1"/>
        <pt x="83" y="416" on="0"/>
        <pt x="156" y="447" on="0"/>
        <pt x="208" y="447" on="1"/>
        <pt x="239" y="447" on="0"/>
        <pt x="259" y="445" on="1"/>
        <pt x="334" y="432" on="0"/>
        <pt x="377" y="379" on="1"/>
        <pt x="401" y="408" on="0"/>
        <pt x="478" y="448" on="0"/>
        <pt x="522" y="448" on="1"/>
        <pt x="601" y="448" on="0"/>
        <pt x="692" y="340" on="0"/>
        <pt x="692" y="255" on="1"/>
        <pt x="693" y="237" on="1"/>
        <pt x="690" y="235" on="0"/>
        <pt x="686" y="231" on="1"/>
        <pt x="403" y="231" on="1"/>
        <pt x="403" y="219" on="1"/>
        <pt x="403" y="82" on="0"/>
        <pt x="496" y="41" on="1"/>
        <pt x="527" y="29" on="0"/>
        <pt x="555" y="29" on="1"/>
        <pt x="587" y="29" on="0"/>
        <pt x="639" y="75" on="0"/>
        <pt x="651" y="114" on="1"/>
        <pt x="653" y="124" on="0"/>
        <pt x="657" y="128" on="1"/>
        <pt x="660" y="131" on="0"/>
        <pt x="686" y="131" on="0"/>
        <pt x="689" y="128" on="1"/>
        <pt x="695" y="123" on="0"/>
        <pt x="689" y="106" on="1"/>
        <pt x="677" y="67" on="0"/>
        <pt x="620" y="9" on="0"/>
        <pt x="584" y="-3" on="1"/>
        <pt x="558" y="-11" on="0"/>
        <pt x="534" y="-11" on="1"/>
        <pt x="443" y="-11" on="0"/>
        <pt x="379" y="60" on="1"/>
        <pt x="372" y="68" on="1"/>
        <pt x="346" y="32" on="0"/>
        <pt x="250" y="-11" on="0"/>
        <pt x="191" y="-11" on="1"/>
        <pt x="106" y="-11" on="0"/>
        <pt x="61" y="39" on="1"/>
        <pt x="37" y="67" on="0"/>
        <pt x="37" y="104" on="1"/>
        <pt x="37" y="162" on="0"/>
        <pt x="96" y="203" on="1"/>
        <pt x="157" y="245" on="0"/>
        <pt x="264" y="254" on="1"/>
        <pt x="288" y="258" on="0"/>
        <pt x="318" y="258" on="1"/>
        <pt x="319" y="258" on="0"/>
        <pt x="319" y="279" on="1"/>
        <pt x="319" y="314" on="0"/>
        <pt x="318" y="322" on="1"/>
        <pt x="313" y="354" on="0"/>
        <pt x="273" y="401" on="0"/>
        <pt x="244" y="408" on="1"/>
        <pt x="237" y="410" on="0"/>
        <pt x="214" y="410" on="1"/>
        <pt x="187" y="410" on="0"/>
        <pt x="181" y="409" on="1"/>
        <pt x="176" y="409" on="0"/>
        <pt x="160" y="406" on="0"/>
        <pt x="154" y="405" on="1"/>
        <pt x="148" y="404" on="1"/>
        <pt x="149" y="403" on="1"/>
        <pt x="150" y="402" on="0"/>
        <pt x="153" y="399" on="0"/>
        <pt x="154" y="397" on="1"/>
        <pt x="170" y="382" on="0"/>
        <pt x="170" y="359" on="1"/>
        <pt x="170" y="337" on="0"/>
      </contour>
      <contour>
        <pt x="570" y="391" on="1"/>
        <pt x="548" y="411" on="0"/>
        <pt x="518" y="411" on="1"/>
        <pt x="480" y="411" on="0"/>
        <pt x="446" y="377" on="1"/>
        <pt x="414" y="342" on="0"/>
        <pt x="407" y="282" on="1"/>
        <pt x="405" y="270" on="0"/>
        <pt x="405" y="269" on="1"/>
        <pt x="405" y="267" on="0"/>
        <pt x="508" y="267" on="1"/>
        <pt x="611" y="267" on="1"/>
        <pt x="611" y="273" on="1"/>
        <pt x="611" y="306" on="0"/>
        <pt x="587" y="374" on="0"/>
      </contour>
      <contour>
        <pt x="331" y="133" on="1"/>
        <pt x="331" y="141" on="0"/>
        <pt x="322" y="178" on="0"/>
        <pt x="321" y="184" on="1"/>
        <pt x="321" y="194" on="0"/>
        <pt x="319" y="208" on="1"/>
        <pt x="319" y="222" on="1"/>
        <pt x="308" y="221" on="1"/>
        <pt x="245" y="217" on="0"/>
        <pt x="147" y="170" on="0"/>
        <pt x="133" y="130" on="1"/>
        <pt x="129" y="119" on="0"/>
        <pt x="129" y="105" on="1"/>
        <pt x="129" y="74" on="0"/>
        <pt x="173" y="26" on="0"/>
        <pt x="207" y="26" on="1"/>
        <pt x="259" y="26" on="0"/>
        <pt x="331" y="87" on="0"/>
      </contour>
    </TTGlyph>
    <TTGlyph name="afii61289" xMin="7" yMin="-20" xMax="397" yMax="705">
      <contour>
        <pt x="345" y="104" on="0"/>
        <pt x="353" y="104" on="0"/>
        <pt x="369" y="85" on="0"/>
        <pt x="369" y="75" on="0"/>
        <pt x="352" y="59" on="1"/>
        <pt x="267" y="-20" on="0"/>
        <pt x="206" y="-20" on="1"/>
        <pt x="118" y="-20" on="0"/>
        <pt x="97" y="114" on="1"/>
        <pt x="95" y="128" on="0"/>
        <pt x="94" y="129" on="1"/>
        <pt x="94" y="130" on="0"/>
        <pt x="64" y="101" on="0"/>
        <pt x="31" y="70" on="0"/>
        <pt x="28" y="70" on="1"/>
        <pt x="23" y="70" on="0"/>
        <pt x="13" y="82" on="1"/>
        <pt x="7" y="90" on="0"/>
        <pt x="7" y="98" on="0"/>
        <pt x="17" y="108" on="0"/>
        <pt x="58" y="147" on="1"/>
        <pt x="91" y="179" on="1"/>
        <pt x="91" y="185" on="1"/>
        <pt x="91" y="186" on="0"/>
        <pt x="92" y="197" on="0"/>
        <pt x="92" y="200" on="1"/>
        <pt x="92" y="258" on="0"/>
        <pt x="115" y="347" on="1"/>
        <pt x="153" y="505" on="0"/>
        <pt x="230" y="620" on="1"/>
        <pt x="278" y="694" on="0"/>
        <pt x="325" y="704" on="1"/>
        <pt x="327" y="704" on="0"/>
        <pt x="334" y="705" on="0"/>
        <pt x="336" y="705" on="1"/>
        <pt x="383" y="705" on="0"/>
        <pt x="395" y="660" on="1"/>
        <pt x="397" y="652" on="0"/>
        <pt x="397" y="627" on="1"/>
        <pt x="397" y="601" on="0"/>
        <pt x="395" y="587" on="1"/>
        <pt x="366" y="420" on="0"/>
        <pt x="194" y="233" on="1"/>
        <pt x="186" y="224" on="0"/>
        <pt x="166" y="203" on="0"/>
        <pt x="165" y="201" on="1"/>
        <pt x="163" y="186" on="1"/>
        <pt x="159" y="142" on="0"/>
        <pt x="159" y="123" on="1"/>
        <pt x="159" y="109" on="0"/>
        <pt x="161" y="87" on="1"/>
        <pt x="166" y="50" on="0"/>
        <pt x="187" y="17" on="0"/>
        <pt x="208" y="17" on="1"/>
        <pt x="246" y="17" on="0"/>
        <pt x="292" y="56" on="1"/>
        <pt x="301" y="63" on="0"/>
        <pt x="335" y="94" on="1"/>
      </contour>
      <contour>
        <pt x="360" y="634" on="1"/>
        <pt x="360" y="652" on="0"/>
        <pt x="350" y="668" on="0"/>
        <pt x="336" y="668" on="1"/>
        <pt x="334" y="668" on="0"/>
        <pt x="328" y="667" on="0"/>
        <pt x="327" y="667" on="1"/>
        <pt x="303" y="658" on="0"/>
        <pt x="272" y="592" on="1"/>
        <pt x="241" y="522" on="0"/>
        <pt x="197" y="347" on="1"/>
        <pt x="179" y="277" on="0"/>
        <pt x="179" y="273" on="1"/>
        <pt x="179" y="272" on="0"/>
        <pt x="194" y="288" on="0"/>
        <pt x="214" y="313" on="0"/>
        <pt x="221" y="322" on="1"/>
        <pt x="328" y="453" on="0"/>
        <pt x="355" y="590" on="1"/>
        <pt x="360" y="612" on="0"/>
      </contour>
    </TTGlyph>
    <TTGlyph name="aleph" xMin="55" yMin="0" xMax="555" yMax="694">
      <contour>
        <pt x="76" y="37" on="1"/>
        <pt x="110" y="39" on="0"/>
        <pt x="140" y="51" on="0"/>
        <pt x="140" y="70" on="1"/>
        <pt x="140" y="88" on="0"/>
        <pt x="133" y="106" on="1"/>
        <pt x="126" y="122" on="0"/>
        <pt x="107" y="157" on="1"/>
        <pt x="83" y="201" on="0"/>
        <pt x="83" y="236" on="1"/>
        <pt x="83" y="256" on="0"/>
        <pt x="89" y="286" on="1"/>
        <pt x="101" y="348" on="0"/>
        <pt x="149" y="432" on="1"/>
        <pt x="160" y="450" on="0"/>
        <pt x="159" y="452" on="1"/>
        <pt x="143" y="468" on="0"/>
        <pt x="95" y="524" on="1"/>
        <pt x="63" y="563" on="0"/>
        <pt x="56" y="594" on="1"/>
        <pt x="55" y="599" on="0"/>
        <pt x="55" y="613" on="1"/>
        <pt x="55" y="642" on="0"/>
        <pt x="59" y="657" on="1"/>
        <pt x="70" y="694" on="0"/>
        <pt x="85" y="694" on="1"/>
        <pt x="94" y="694" on="0"/>
        <pt x="94" y="681" on="1"/>
        <pt x="98" y="632" on="0"/>
        <pt x="134" y="588" on="1"/>
        <pt x="142" y="577" on="0"/>
        <pt x="408" y="289" on="1"/>
        <pt x="412" y="285" on="1"/>
        <pt x="415" y="309" on="0"/>
        <pt x="446" y="492" on="0"/>
        <pt x="447" y="509" on="1"/>
        <pt x="447" y="519" on="1"/>
        <pt x="438" y="526" on="1"/>
        <pt x="413" y="548" on="0"/>
        <pt x="407" y="558" on="1"/>
        <pt x="388" y="581" on="0"/>
        <pt x="388" y="617" on="1"/>
        <pt x="388" y="637" on="0"/>
        <pt x="392" y="657" on="1"/>
        <pt x="403" y="694" on="0"/>
        <pt x="418" y="694" on="1"/>
        <pt x="425" y="694" on="0"/>
        <pt x="427" y="684" on="1"/>
        <pt x="430" y="671" on="0"/>
        <pt x="470" y="611" on="1"/>
        <pt x="475" y="603" on="0"/>
        <pt x="481" y="593" on="0"/>
        <pt x="490" y="584" on="0"/>
        <pt x="493" y="581" on="0"/>
        <pt x="507" y="568" on="0"/>
        <pt x="512" y="564" on="1"/>
        <pt x="531" y="548" on="0"/>
        <pt x="541" y="538" on="0"/>
        <pt x="555" y="507" on="0"/>
        <pt x="555" y="487" on="1"/>
        <pt x="555" y="469" on="0"/>
        <pt x="551" y="447" on="1"/>
        <pt x="548" y="434" on="0"/>
        <pt x="533" y="411" on="0"/>
        <pt x="528" y="409" on="1"/>
        <pt x="521" y="409" on="0"/>
        <pt x="516" y="415" on="0"/>
        <pt x="515" y="426" on="1"/>
        <pt x="514" y="446" on="0"/>
        <pt x="503" y="463" on="1"/>
        <pt x="492" y="481" on="0"/>
        <pt x="490" y="481" on="1"/>
        <pt x="489" y="474" on="0"/>
        <pt x="488" y="465" on="1"/>
        <pt x="486" y="453" on="0"/>
        <pt x="458" y="284" on="0"/>
        <pt x="456" y="267" on="1"/>
        <pt x="454" y="247" on="0"/>
        <pt x="454" y="246" on="1"/>
        <pt x="454" y="238" on="0"/>
        <pt x="470" y="222" on="1"/>
        <pt x="527" y="160" on="0"/>
        <pt x="542" y="132" on="1"/>
        <pt x="555" y="107" on="0"/>
        <pt x="555" y="79" on="1"/>
        <pt x="555" y="32" on="0"/>
        <pt x="538" y="9" on="1"/>
        <pt x="530" y="0" on="0"/>
        <pt x="524" y="0" on="1"/>
        <pt x="516" y="0" on="0"/>
        <pt x="516" y="13" on="1"/>
        <pt x="512" y="62" on="0"/>
        <pt x="476" y="106" on="1"/>
        <pt x="473" y="109" on="0"/>
        <pt x="361" y="232" on="0"/>
        <pt x="226" y="379" on="0"/>
        <pt x="200" y="407" on="1"/>
        <pt x="195" y="412" on="1"/>
        <pt x="194" y="408" on="1"/>
        <pt x="165" y="350" on="0"/>
        <pt x="165" y="240" on="1"/>
        <pt x="165" y="224" on="0"/>
        <pt x="166" y="220" on="1"/>
        <pt x="172" y="197" on="0"/>
        <pt x="203" y="161" on="1"/>
        <pt x="234" y="126" on="0"/>
        <pt x="252" y="86" on="0"/>
        <pt x="252" y="70" on="1"/>
        <pt x="252" y="41" on="0"/>
        <pt x="208" y="6" on="0"/>
        <pt x="175" y="1" on="1"/>
        <pt x="170" y="0" on="0"/>
        <pt x="115" y="0" on="1"/>
        <pt x="73" y="0" on="0"/>
        <pt x="58" y="1" on="0"/>
        <pt x="56" y="5" on="1"/>
        <pt x="55" y="7" on="0"/>
        <pt x="55" y="20" on="1"/>
        <pt x="55" y="31" on="0"/>
        <pt x="58" y="34" on="1"/>
        <pt x="60" y="37" on="0"/>
      </contour>
    </TTGlyph>
    <TTGlyph name="ampersand" xMin="42" yMin="-22" xMax="727" yMax="716">
      <contour>
        <pt x="195" y="347" on="1"/>
        <pt x="156" y="448" on="0"/>
        <pt x="156" y="540" on="1"/>
        <pt x="156" y="623" on="0"/>
        <pt x="208" y="675" on="1"/>
        <pt x="249" y="716" on="0"/>
        <pt x="302" y="716" on="1"/>
        <pt x="317" y="716" on="0"/>
        <pt x="326" y="713" on="1"/>
        <pt x="359" y="704" on="0"/>
        <pt x="401" y="629" on="0"/>
        <pt x="401" y="578" on="1"/>
        <pt x="401" y="548" on="0"/>
        <pt x="384" y="513" on="1"/>
        <pt x="357" y="459" on="0"/>
        <pt x="287" y="386" on="1"/>
        <pt x="274" y="373" on="1"/>
        <pt x="313" y="276" on="0"/>
        <pt x="416" y="148" on="1"/>
        <pt x="429" y="132" on="1"/>
        <pt x="437" y="142" on="1"/>
        <pt x="474" y="191" on="0"/>
        <pt x="543" y="309" on="1"/>
        <pt x="562" y="341" on="1"/>
        <pt x="562" y="349" on="1"/>
        <pt x="562" y="366" on="0"/>
        <pt x="523" y="385" on="0"/>
        <pt x="498" y="385" on="1"/>
        <pt x="493" y="385" on="1"/>
        <pt x="493" y="431" on="1"/>
        <pt x="502" y="431" on="1"/>
        <pt x="520" y="428" on="0"/>
        <pt x="626" y="428" on="1"/>
        <pt x="708" y="428" on="0"/>
        <pt x="721" y="431" on="1"/>
        <pt x="727" y="431" on="1"/>
        <pt x="727" y="385" on="1"/>
        <pt x="712" y="385" on="1"/>
        <pt x="634" y="380" on="0"/>
        <pt x="608" y="344" on="1"/>
        <pt x="607" y="343" on="0"/>
        <pt x="599" y="330" on="0"/>
        <pt x="584" y="305" on="0"/>
        <pt x="578" y="295" on="1"/>
        <pt x="506" y="171" on="0"/>
        <pt x="460" y="113" on="1"/>
        <pt x="453" y="104" on="0"/>
        <pt x="454" y="103" on="1"/>
        <pt x="456" y="101" on="0"/>
        <pt x="490" y="68" on="0"/>
        <pt x="497" y="62" on="1"/>
        <pt x="543" y="24" on="0"/>
        <pt x="585" y="24" on="1"/>
        <pt x="623" y="24" on="0"/>
        <pt x="679" y="77" on="0"/>
        <pt x="682" y="113" on="1"/>
        <pt x="682" y="121" on="1"/>
        <pt x="722" y="121" on="1"/>
        <pt x="722" y="112" on="1"/>
        <pt x="717" y="53" on="0"/>
        <pt x="638" y="-22" on="0"/>
        <pt x="574" y="-22" on="1"/>
        <pt x="491" y="-19" on="0"/>
        <pt x="414" y="42" on="1"/>
        <pt x="402" y="51" on="1"/>
        <pt x="391" y="42" on="1"/>
        <pt x="312" y="-22" on="0"/>
        <pt x="224" y="-22" on="1"/>
        <pt x="148" y="-22" on="0"/>
        <pt x="42" y="70" on="0"/>
        <pt x="42" y="135" on="1"/>
        <pt x="42" y="179" on="0"/>
        <pt x="68" y="217" on="1"/>
        <pt x="75" y="228" on="0"/>
        <pt x="156" y="308" on="1"/>
      </contour>
      <contour>
        <pt x="315" y="678" on="1"/>
        <pt x="312" y="679" on="0"/>
        <pt x="305" y="679" on="1"/>
        <pt x="270" y="679" on="0"/>
        <pt x="232" y="618" on="0"/>
        <pt x="232" y="572" on="1"/>
        <pt x="232" y="497" on="0"/>
        <pt x="255" y="426" on="1"/>
        <pt x="259" y="411" on="1"/>
        <pt x="267" y="420" on="1"/>
        <pt x="350" y="507" on="0"/>
        <pt x="360" y="562" on="1"/>
        <pt x="360" y="564" on="0"/>
        <pt x="361" y="573" on="0"/>
        <pt x="361" y="576" on="1"/>
        <pt x="361" y="590" on="0"/>
        <pt x="358" y="607" on="1"/>
        <pt x="349" y="668" on="0"/>
      </contour>
      <contour>
        <pt x="140" y="164" on="1"/>
        <pt x="140" y="101" on="0"/>
        <pt x="196" y="24" on="0"/>
        <pt x="240" y="24" on="1"/>
        <pt x="304" y="24" on="0"/>
        <pt x="366" y="70" on="1"/>
        <pt x="374" y="75" on="0"/>
        <pt x="374" y="77" on="1"/>
        <pt x="371" y="80" on="0"/>
        <pt x="368" y="84" on="1"/>
        <pt x="339" y="111" on="0"/>
        <pt x="261" y="216" on="0"/>
        <pt x="235" y="262" on="1"/>
        <pt x="220" y="292" on="1"/>
        <pt x="210" y="310" on="1"/>
        <pt x="193" y="293" on="1"/>
        <pt x="164" y="264" on="0"/>
        <pt x="140" y="211" on="0"/>
      </contour>
    </TTGlyph>
    <TTGlyph name="angle" xMin="55" yMin="0" xMax="666" yMax="694">
      <contour>
        <pt x="71" y="0" on="1"/>
        <pt x="55" y="9" on="0"/>
        <pt x="55" y="20" on="1"/>
        <pt x="55" y="22" on="0"/>
        <pt x="57" y="28" on="1"/>
        <pt x="67" y="43" on="0"/>
        <pt x="346" y="361" on="1"/>
        <pt x="632" y="690" on="0"/>
        <pt x="644" y="694" on="0"/>
        <pt x="647" y="694" on="1"/>
        <pt x="655" y="694" on="0"/>
        <pt x="666" y="683" on="0"/>
        <pt x="666" y="674" on="1"/>
        <pt x="666" y="668" on="0"/>
        <pt x="663" y="663" on="1"/>
        <pt x="662" y="662" on="0"/>
        <pt x="592" y="582" on="0"/>
        <pt x="455" y="424" on="0"/>
        <pt x="390" y="350" on="1"/>
        <pt x="120" y="41" on="1"/>
        <pt x="386" y="40" on="1"/>
        <pt x="653" y="40" on="1"/>
        <pt x="666" y="31" on="0"/>
        <pt x="666" y="20" on="1"/>
        <pt x="666" y="7" on="0"/>
        <pt x="651" y="0" on="1"/>
      </contour>
    </TTGlyph>
    <TTGlyph name="approxequal" xMin="55" yMin="55" xMax="722" yMax="483">
      <contour>
        <pt x="694" y="483" on="0"/>
        <pt x="722" y="483" on="0"/>
        <pt x="722" y="452" on="1"/>
        <pt x="722" y="395" on="0"/>
        <pt x="660" y="314" on="0"/>
        <pt x="609" y="298" on="1"/>
        <pt x="582" y="289" on="0"/>
        <pt x="555" y="289" on="1"/>
        <pt x="522" y="289" on="0"/>
        <pt x="485" y="303" on="1"/>
        <pt x="454" y="314" on="0"/>
        <pt x="384" y="360" on="1"/>
        <pt x="349" y="381" on="0"/>
        <pt x="335" y="391" on="1"/>
        <pt x="290" y="416" on="0"/>
        <pt x="250" y="425" on="1"/>
        <pt x="243" y="426" on="0"/>
        <pt x="224" y="426" on="1"/>
        <pt x="174" y="426" on="0"/>
        <pt x="135" y="401" on="1"/>
        <pt x="86" y="370" on="0"/>
        <pt x="83" y="318" on="1"/>
        <pt x="81" y="289" on="0"/>
        <pt x="69" y="289" on="1"/>
        <pt x="55" y="289" on="0"/>
        <pt x="55" y="319" on="1"/>
        <pt x="55" y="331" on="0"/>
        <pt x="59" y="353" on="1"/>
        <pt x="68" y="397" on="0"/>
        <pt x="125" y="461" on="0"/>
        <pt x="168" y="474" on="1"/>
        <pt x="188" y="482" on="0"/>
        <pt x="205" y="482" on="1"/>
        <pt x="207" y="482" on="0"/>
        <pt x="219" y="483" on="0"/>
        <pt x="223" y="483" on="1"/>
        <pt x="266" y="483" on="0"/>
        <pt x="316" y="459" on="1"/>
        <pt x="318" y="458" on="0"/>
        <pt x="443" y="381" on="1"/>
        <pt x="487" y="356" on="0"/>
        <pt x="528" y="347" on="1"/>
        <pt x="534" y="346" on="0"/>
        <pt x="553" y="346" on="1"/>
        <pt x="603" y="346" on="0"/>
        <pt x="642" y="371" on="1"/>
        <pt x="688" y="400" on="0"/>
        <pt x="694" y="454" on="1"/>
      </contour>
      <contour>
        <pt x="69" y="55" on="1"/>
        <pt x="55" y="55" on="0"/>
        <pt x="55" y="85" on="1"/>
        <pt x="55" y="97" on="0"/>
        <pt x="59" y="119" on="1"/>
        <pt x="68" y="163" on="0"/>
        <pt x="125" y="227" on="0"/>
        <pt x="168" y="240" on="1"/>
        <pt x="188" y="248" on="0"/>
        <pt x="205" y="248" on="1"/>
        <pt x="207" y="248" on="0"/>
        <pt x="219" y="249" on="0"/>
        <pt x="223" y="249" on="1"/>
        <pt x="266" y="249" on="0"/>
        <pt x="316" y="225" on="1"/>
        <pt x="318" y="224" on="0"/>
        <pt x="443" y="147" on="1"/>
        <pt x="487" y="122" on="0"/>
        <pt x="528" y="113" on="1"/>
        <pt x="534" y="112" on="0"/>
        <pt x="553" y="112" on="1"/>
        <pt x="603" y="112" on="0"/>
        <pt x="642" y="137" on="1"/>
        <pt x="688" y="166" on="0"/>
        <pt x="694" y="220" on="1"/>
        <pt x="694" y="249" on="0"/>
        <pt x="722" y="249" on="0"/>
        <pt x="722" y="217" on="1"/>
        <pt x="722" y="201" on="0"/>
        <pt x="718" y="185" on="1"/>
        <pt x="706" y="129" on="0"/>
        <pt x="619" y="55" on="0"/>
        <pt x="555" y="55" on="1"/>
        <pt x="522" y="55" on="0"/>
        <pt x="485" y="69" on="1"/>
        <pt x="454" y="80" on="0"/>
        <pt x="384" y="126" on="1"/>
        <pt x="349" y="147" on="0"/>
        <pt x="335" y="157" on="1"/>
        <pt x="290" y="182" on="0"/>
        <pt x="250" y="191" on="1"/>
        <pt x="243" y="192" on="0"/>
        <pt x="224" y="192" on="1"/>
        <pt x="174" y="192" on="0"/>
        <pt x="135" y="167" on="1"/>
        <pt x="86" y="136" on="0"/>
        <pt x="83" y="84" on="1"/>
        <pt x="81" y="55" on="0"/>
      </contour>
    </TTGlyph>
    <TTGlyph name="arrowboth" xMin="55" yMin="-11" xMax="944" yMax="511">
      <contour>
        <pt x="267" y="497" on="1"/>
        <pt x="270" y="507" on="0"/>
        <pt x="276" y="511" on="0"/>
        <pt x="288" y="511" on="1"/>
        <pt x="309" y="511" on="0"/>
        <pt x="309" y="500" on="1"/>
        <pt x="309" y="497" on="0"/>
        <pt x="303" y="475" on="1"/>
        <pt x="273" y="356" on="0"/>
        <pt x="168" y="273" on="1"/>
        <pt x="165" y="270" on="1"/>
        <pt x="835" y="270" on="1"/>
        <pt x="728" y="350" on="0"/>
        <pt x="696" y="475" on="1"/>
        <pt x="690" y="497" on="0"/>
        <pt x="690" y="500" on="1"/>
        <pt x="690" y="511" on="0"/>
        <pt x="711" y="511" on="1"/>
        <pt x="723" y="511" on="0"/>
        <pt x="730" y="506" on="0"/>
        <pt x="732" y="497" on="1"/>
        <pt x="735" y="477" on="0"/>
        <pt x="743" y="456" on="1"/>
        <pt x="765" y="389" on="0"/>
        <pt x="867" y="284" on="0"/>
        <pt x="935" y="261" on="1"/>
        <pt x="944" y="258" on="0"/>
        <pt x="944" y="242" on="0"/>
        <pt x="935" y="239" on="1"/>
        <pt x="867" y="216" on="0"/>
        <pt x="765" y="111" on="0"/>
        <pt x="743" y="44" on="1"/>
        <pt x="736" y="23" on="0"/>
        <pt x="732" y="4" on="1"/>
        <pt x="730" y="-6" on="0"/>
        <pt x="723" y="-11" on="0"/>
        <pt x="711" y="-11" on="1"/>
        <pt x="690" y="-11" on="0"/>
        <pt x="690" y="0" on="1"/>
        <pt x="690" y="3" on="0"/>
        <pt x="696" y="25" on="1"/>
        <pt x="727" y="150" on="0"/>
        <pt x="835" y="230" on="1"/>
        <pt x="165" y="230" on="1"/>
        <pt x="168" y="227" on="1"/>
        <pt x="271" y="148" on="0"/>
        <pt x="303" y="25" on="1"/>
        <pt x="309" y="3" on="0"/>
        <pt x="309" y="0" on="1"/>
        <pt x="309" y="-11" on="0"/>
        <pt x="288" y="-11" on="1"/>
        <pt x="276" y="-11" on="0"/>
        <pt x="269" y="-6" on="0"/>
        <pt x="267" y="4" on="1"/>
        <pt x="265" y="11" on="0"/>
        <pt x="263" y="21" on="1"/>
        <pt x="245" y="94" on="0"/>
        <pt x="144" y="208" on="0"/>
        <pt x="73" y="236" on="1"/>
        <pt x="58" y="242" on="0"/>
        <pt x="55" y="247" on="1"/>
        <pt x="55" y="260" on="0"/>
        <pt x="73" y="264" on="1"/>
        <pt x="144" y="292" on="0"/>
        <pt x="245" y="406" on="0"/>
        <pt x="263" y="479" on="1"/>
        <pt x="264" y="485" on="0"/>
      </contour>
    </TTGlyph>
    <TTGlyph name="arrowdblboth" xMin="34" yMin="-25" xMax="966" yMax="526">
      <contour>
        <pt x="308" y="524" on="1"/>
        <pt x="320" y="526" on="0"/>
        <pt x="323" y="526" on="1"/>
        <pt x="340" y="526" on="0"/>
        <pt x="340" y="514" on="1"/>
        <pt x="340" y="507" on="0"/>
        <pt x="336" y="499" on="1"/>
        <pt x="308" y="432" on="0"/>
        <pt x="262" y="376" on="1"/>
        <pt x="255" y="368" on="1"/>
        <pt x="255" y="367" on="0"/>
        <pt x="500" y="367" on="1"/>
        <pt x="744" y="367" on="0"/>
        <pt x="744" y="368" on="1"/>
        <pt x="741" y="372" on="0"/>
        <pt x="737" y="376" on="1"/>
        <pt x="691" y="432" on="0"/>
        <pt x="663" y="499" on="1"/>
        <pt x="658" y="511" on="0"/>
        <pt x="658" y="515" on="1"/>
        <pt x="658" y="525" on="0"/>
        <pt x="680" y="525" on="1"/>
        <pt x="687" y="524" on="0"/>
        <pt x="693" y="522" on="0"/>
        <pt x="697" y="516" on="0"/>
        <pt x="701" y="507" on="1"/>
        <pt x="769" y="357" on="0"/>
        <pt x="902" y="287" on="1"/>
        <pt x="935" y="268" on="0"/>
        <pt x="955" y="262" on="1"/>
        <pt x="966" y="258" on="0"/>
        <pt x="966" y="242" on="0"/>
        <pt x="955" y="238" on="1"/>
        <pt x="935" y="232" on="0"/>
        <pt x="902" y="213" on="1"/>
        <pt x="763" y="137" on="0"/>
        <pt x="701" y="-7" on="1"/>
        <pt x="697" y="-16" on="0"/>
        <pt x="693" y="-22" on="0"/>
        <pt x="687" y="-24" on="0"/>
        <pt x="680" y="-25" on="1"/>
        <pt x="658" y="-25" on="0"/>
        <pt x="658" y="-15" on="1"/>
        <pt x="658" y="-11" on="0"/>
        <pt x="663" y="1" on="1"/>
        <pt x="691" y="68" on="0"/>
        <pt x="737" y="124" on="1"/>
        <pt x="744" y="132" on="1"/>
        <pt x="744" y="133" on="0"/>
        <pt x="500" y="133" on="1"/>
        <pt x="255" y="133" on="0"/>
        <pt x="255" y="132" on="1"/>
        <pt x="258" y="128" on="0"/>
        <pt x="262" y="124" on="1"/>
        <pt x="308" y="68" on="0"/>
        <pt x="336" y="1" on="1"/>
        <pt x="341" y="-11" on="0"/>
        <pt x="341" y="-15" on="1"/>
        <pt x="341" y="-25" on="0"/>
        <pt x="319" y="-25" on="1"/>
        <pt x="312" y="-24" on="0"/>
        <pt x="306" y="-22" on="0"/>
        <pt x="302" y="-16" on="0"/>
        <pt x="298" y="-7" on="1"/>
        <pt x="230" y="143" on="0"/>
        <pt x="97" y="213" on="1"/>
        <pt x="64" y="232" on="0"/>
        <pt x="44" y="238" on="1"/>
        <pt x="34" y="242" on="0"/>
        <pt x="34" y="258" on="0"/>
        <pt x="44" y="262" on="1"/>
        <pt x="64" y="268" on="0"/>
        <pt x="97" y="287" on="1"/>
        <pt x="235" y="363" on="0"/>
        <pt x="299" y="509" on="1"/>
        <pt x="305" y="522" on="0"/>
      </contour>
      <contour>
        <pt x="792" y="319" on="1"/>
        <pt x="783" y="327" on="1"/>
        <pt x="216" y="327" on="1"/>
        <pt x="181" y="292" on="0"/>
        <pt x="120" y="256" on="1"/>
        <pt x="110" y="250" on="1"/>
        <pt x="120" y="244" on="1"/>
        <pt x="173" y="212" on="0"/>
        <pt x="207" y="181" on="1"/>
        <pt x="216" y="173" on="1"/>
        <pt x="783" y="173" on="1"/>
        <pt x="792" y="181" on="1"/>
        <pt x="826" y="212" on="0"/>
        <pt x="879" y="244" on="1"/>
        <pt x="889" y="250" on="1"/>
        <pt x="879" y="256" on="1"/>
        <pt x="826" y="288" on="0"/>
      </contour>
    </TTGlyph>
    <TTGlyph name="arrowdbldown" xMin="31" yMin="-194" xMax="579" yMax="694">
      <contour>
        <pt x="401" y="694" on="1"/>
        <pt x="413" y="694" on="0"/>
        <pt x="422" y="681" on="1"/>
        <pt x="422" y="375" on="1"/>
        <pt x="423" y="70" on="1"/>
        <pt x="435" y="81" on="1"/>
        <pt x="487" y="130" on="0"/>
        <pt x="551" y="162" on="1"/>
        <pt x="564" y="170" on="0"/>
        <pt x="570" y="170" on="1"/>
        <pt x="572" y="170" on="0"/>
        <pt x="579" y="163" on="1"/>
        <pt x="579" y="150" on="1"/>
        <pt x="579" y="138" on="0"/>
        <pt x="575" y="132" on="0"/>
        <pt x="564" y="126" on="1"/>
        <pt x="475" y="82" on="0"/>
        <pt x="346" y="-75" on="0"/>
        <pt x="318" y="-177" on="1"/>
        <pt x="313" y="-194" on="0"/>
        <pt x="297" y="-194" on="0"/>
        <pt x="292" y="-177" on="1"/>
        <pt x="264" y="-75" on="0"/>
        <pt x="135" y="82" on="0"/>
        <pt x="46" y="126" on="1"/>
        <pt x="35" y="132" on="0"/>
        <pt x="31" y="138" on="0"/>
        <pt x="31" y="150" on="1"/>
        <pt x="31" y="163" on="1"/>
        <pt x="38" y="170" on="0"/>
        <pt x="40" y="170" on="1"/>
        <pt x="46" y="170" on="0"/>
        <pt x="59" y="162" on="1"/>
        <pt x="122" y="131" on="0"/>
        <pt x="176" y="81" on="1"/>
        <pt x="188" y="70" on="1"/>
        <pt x="188" y="375" on="1"/>
        <pt x="189" y="681" on="1"/>
        <pt x="199" y="694" on="0"/>
        <pt x="208" y="694" on="1"/>
        <pt x="218" y="694" on="0"/>
        <pt x="228" y="680" on="1"/>
        <pt x="228" y="352" on="1"/>
        <pt x="229" y="25" on="1"/>
        <pt x="238" y="12" on="1"/>
        <pt x="279" y="-42" on="0"/>
        <pt x="305" y="-102" on="1"/>
        <pt x="307" y="-98" on="0"/>
        <pt x="309" y="-93" on="1"/>
        <pt x="335" y="-36" on="0"/>
        <pt x="373" y="13" on="1"/>
        <pt x="382" y="25" on="1"/>
        <pt x="382" y="678" on="1"/>
        <pt x="389" y="693" on="0"/>
      </contour>
    </TTGlyph>
    <TTGlyph name="arrowdblleft" xMin="56" yMin="-24" xMax="944" yMax="525">
      <contour>
        <pt x="944" y="153" on="1"/>
        <pt x="944" y="140" on="0"/>
        <pt x="929" y="133" on="1"/>
        <pt x="318" y="133" on="1"/>
        <pt x="328" y="123" on="1"/>
        <pt x="379" y="69" on="0"/>
        <pt x="414" y="0" on="1"/>
        <pt x="419" y="-12" on="0"/>
        <pt x="419" y="-16" on="1"/>
        <pt x="419" y="-24" on="0"/>
        <pt x="399" y="-24" on="1"/>
        <pt x="388" y="-24" on="0"/>
        <pt x="381" y="-21" on="0"/>
        <pt x="377" y="-12" on="1"/>
        <pt x="303" y="134" on="0"/>
        <pt x="160" y="204" on="1"/>
        <pt x="118" y="225" on="0"/>
        <pt x="72" y="237" on="1"/>
        <pt x="62" y="240" on="0"/>
        <pt x="56" y="245" on="0"/>
        <pt x="56" y="255" on="0"/>
        <pt x="62" y="260" on="0"/>
        <pt x="72" y="263" on="1"/>
        <pt x="174" y="289" on="0"/>
        <pt x="331" y="420" on="0"/>
        <pt x="377" y="512" on="1"/>
        <pt x="391" y="524" on="0"/>
        <pt x="395" y="525" on="1"/>
        <pt x="401" y="525" on="1"/>
        <pt x="419" y="524" on="0"/>
        <pt x="419" y="515" on="1"/>
        <pt x="419" y="512" on="0"/>
        <pt x="414" y="500" on="1"/>
        <pt x="379" y="431" on="0"/>
        <pt x="328" y="377" on="1"/>
        <pt x="318" y="367" on="1"/>
        <pt x="929" y="367" on="1"/>
        <pt x="944" y="360" on="0"/>
        <pt x="944" y="347" on="1"/>
        <pt x="944" y="336" on="0"/>
        <pt x="930" y="328" on="1"/>
        <pt x="602" y="327" on="1"/>
        <pt x="274" y="327" on="1"/>
        <pt x="264" y="319" on="1"/>
        <pt x="224" y="289" on="0"/>
        <pt x="147" y="250" on="1"/>
        <pt x="151" y="247" on="0"/>
        <pt x="157" y="245" on="1"/>
        <pt x="212" y="221" on="0"/>
        <pt x="264" y="181" on="1"/>
        <pt x="274" y="173" on="1"/>
        <pt x="930" y="173" on="1"/>
        <pt x="931" y="172" on="0"/>
        <pt x="938" y="167" on="0"/>
        <pt x="941" y="164" on="0"/>
        <pt x="944" y="157" on="0"/>
      </contour>
    </TTGlyph>
    <TTGlyph name="arrowdblright" xMin="56" yMin="-24" xMax="944" yMax="525">
      <contour>
        <pt x="580" y="514" on="1"/>
        <pt x="580" y="525" on="0"/>
        <pt x="596" y="525" on="1"/>
        <pt x="610" y="525" on="0"/>
        <pt x="616" y="522" on="0"/>
        <pt x="622" y="512" on="1"/>
        <pt x="702" y="353" on="0"/>
        <pt x="867" y="284" on="1"/>
        <pt x="899" y="270" on="0"/>
        <pt x="927" y="263" on="1"/>
        <pt x="944" y="258" on="0"/>
        <pt x="944" y="242" on="0"/>
        <pt x="927" y="237" on="1"/>
        <pt x="825" y="211" on="0"/>
        <pt x="668" y="79" on="0"/>
        <pt x="622" y="-12" on="1"/>
        <pt x="618" y="-21" on="0"/>
        <pt x="612" y="-24" on="0"/>
        <pt x="600" y="-24" on="1"/>
        <pt x="580" y="-24" on="0"/>
        <pt x="580" y="-16" on="1"/>
        <pt x="580" y="-12" on="0"/>
        <pt x="585" y="0" on="1"/>
        <pt x="620" y="69" on="0"/>
        <pt x="671" y="123" on="1"/>
        <pt x="681" y="133" on="1"/>
        <pt x="70" y="133" on="1"/>
        <pt x="56" y="140" on="0"/>
        <pt x="56" y="153" on="1"/>
        <pt x="56" y="168" on="0"/>
        <pt x="72" y="173" on="1"/>
        <pt x="725" y="173" on="1"/>
        <pt x="735" y="181" on="1"/>
        <pt x="775" y="211" on="0"/>
        <pt x="852" y="250" on="1"/>
        <pt x="848" y="253" on="0"/>
        <pt x="842" y="255" on="1"/>
        <pt x="787" y="279" on="0"/>
        <pt x="735" y="319" on="1"/>
        <pt x="725" y="327" on="1"/>
        <pt x="72" y="327" on="1"/>
        <pt x="56" y="332" on="0"/>
        <pt x="56" y="347" on="1"/>
        <pt x="56" y="360" on="0"/>
        <pt x="70" y="367" on="1"/>
        <pt x="681" y="367" on="1"/>
        <pt x="671" y="377" on="1"/>
        <pt x="620" y="431" on="0"/>
        <pt x="585" y="500" on="1"/>
        <pt x="580" y="510" on="0"/>
      </contour>
    </TTGlyph>
    <TTGlyph name="arrowdblup" xMin="31" yMin="-194" xMax="579" yMax="694">
      <contour>
        <pt x="228" y="-179" on="1"/>
        <pt x="217" y="-194" on="0"/>
        <pt x="199" y="-194" on="0"/>
        <pt x="189" y="-181" on="1"/>
        <pt x="188" y="125" on="1"/>
        <pt x="188" y="430" on="1"/>
        <pt x="176" y="419" on="1"/>
        <pt x="122" y="369" on="0"/>
        <pt x="59" y="338" on="1"/>
        <pt x="46" y="330" on="0"/>
        <pt x="40" y="330" on="1"/>
        <pt x="38" y="330" on="0"/>
        <pt x="31" y="337" on="1"/>
        <pt x="31" y="350" on="1"/>
        <pt x="31" y="362" on="0"/>
        <pt x="35" y="368" on="0"/>
        <pt x="46" y="374" on="1"/>
        <pt x="134" y="417" on="0"/>
        <pt x="265" y="578" on="0"/>
        <pt x="292" y="677" on="1"/>
        <pt x="295" y="688" on="0"/>
        <pt x="298" y="692" on="1"/>
        <pt x="302" y="694" on="0"/>
        <pt x="305" y="694" on="1"/>
        <pt x="313" y="694" on="0"/>
        <pt x="318" y="677" on="1"/>
        <pt x="345" y="578" on="0"/>
        <pt x="476" y="417" on="0"/>
        <pt x="564" y="374" on="1"/>
        <pt x="575" y="368" on="0"/>
        <pt x="579" y="362" on="0"/>
        <pt x="579" y="350" on="1"/>
        <pt x="579" y="337" on="1"/>
        <pt x="572" y="330" on="0"/>
        <pt x="570" y="330" on="1"/>
        <pt x="564" y="330" on="0"/>
        <pt x="551" y="338" on="1"/>
        <pt x="487" y="370" on="0"/>
        <pt x="435" y="419" on="1"/>
        <pt x="423" y="430" on="1"/>
        <pt x="422" y="125" on="1"/>
        <pt x="422" y="-181" on="1"/>
        <pt x="413" y="-194" on="0"/>
        <pt x="401" y="-194" on="1"/>
        <pt x="387" y="-194" on="0"/>
        <pt x="382" y="-177" on="1"/>
        <pt x="382" y="475" on="1"/>
        <pt x="373" y="487" on="1"/>
        <pt x="331" y="541" on="0"/>
        <pt x="305" y="602" on="1"/>
        <pt x="303" y="598" on="0"/>
        <pt x="301" y="593" on="1"/>
        <pt x="275" y="536" on="0"/>
        <pt x="238" y="488" on="1"/>
        <pt x="229" y="476" on="1"/>
        <pt x="228" y="148" on="1"/>
      </contour>
    </TTGlyph>
    <TTGlyph name="arrowdown" xMin="17" yMin="-194" xMax="483" yMax="694">
      <contour>
        <pt x="473" y="86" on="1"/>
        <pt x="483" y="86" on="0"/>
        <pt x="483" y="67" on="1"/>
        <pt x="483" y="63" on="0"/>
        <pt x="483" y="58" on="0"/>
        <pt x="482" y="54" on="0"/>
        <pt x="480" y="51" on="0"/>
        <pt x="480" y="49" on="0"/>
        <pt x="475" y="47" on="0"/>
        <pt x="473" y="47" on="0"/>
        <pt x="466" y="45" on="0"/>
        <pt x="464" y="44" on="1"/>
        <pt x="389" y="25" on="0"/>
        <pt x="281" y="-90" on="0"/>
        <pt x="264" y="-168" on="1"/>
        <pt x="264" y="-170" on="0"/>
        <pt x="262" y="-177" on="0"/>
        <pt x="261" y="-183" on="0"/>
        <pt x="261" y="-184" on="1"/>
        <pt x="259" y="-194" on="0"/>
        <pt x="251" y="-194" on="1"/>
        <pt x="239" y="-194" on="0"/>
        <pt x="238" y="-178" on="1"/>
        <pt x="230" y="-129" on="0"/>
        <pt x="176" y="-35" on="0"/>
        <pt x="139" y="-8" on="1"/>
        <pt x="91" y="30" on="0"/>
        <pt x="36" y="44" on="1"/>
        <pt x="34" y="45" on="0"/>
        <pt x="27" y="47" on="0"/>
        <pt x="25" y="47" on="0"/>
        <pt x="20" y="49" on="0"/>
        <pt x="20" y="51" on="0"/>
        <pt x="18" y="54" on="0"/>
        <pt x="17" y="58" on="0"/>
        <pt x="17" y="63" on="0"/>
        <pt x="17" y="67" on="1"/>
        <pt x="17" y="87" on="0"/>
        <pt x="27" y="87" on="1"/>
        <pt x="33" y="87" on="0"/>
        <pt x="42" y="84" on="1"/>
        <pt x="158" y="52" on="0"/>
        <pt x="223" y="-45" on="1"/>
        <pt x="230" y="-55" on="1"/>
        <pt x="230" y="312" on="1"/>
        <pt x="230" y="679" on="0"/>
        <pt x="232" y="683" on="1"/>
        <pt x="238" y="694" on="0"/>
        <pt x="251" y="694" on="1"/>
        <pt x="263" y="693" on="0"/>
        <pt x="270" y="679" on="1"/>
        <pt x="270" y="-55" on="1"/>
        <pt x="277" y="-45" on="1"/>
        <pt x="323" y="25" on="0"/>
        <pt x="402" y="63" on="1"/>
        <pt x="450" y="86" on="0"/>
      </contour>
    </TTGlyph>
    <TTGlyph name="arrowleft" xMin="55" yMin="-11" xMax="944" yMax="511">
      <contour>
        <pt x="944" y="262" on="0"/>
        <pt x="944" y="238" on="0"/>
        <pt x="929" y="230" on="1"/>
        <pt x="165" y="230" on="1"/>
        <pt x="168" y="227" on="1"/>
        <pt x="271" y="148" on="0"/>
        <pt x="303" y="25" on="1"/>
        <pt x="309" y="3" on="0"/>
        <pt x="309" y="0" on="1"/>
        <pt x="309" y="-11" on="0"/>
        <pt x="288" y="-11" on="1"/>
        <pt x="276" y="-11" on="0"/>
        <pt x="269" y="-6" on="0"/>
        <pt x="267" y="4" on="1"/>
        <pt x="265" y="11" on="0"/>
        <pt x="263" y="21" on="1"/>
        <pt x="245" y="94" on="0"/>
        <pt x="144" y="208" on="0"/>
        <pt x="73" y="236" on="1"/>
        <pt x="58" y="242" on="0"/>
        <pt x="55" y="247" on="1"/>
        <pt x="55" y="260" on="0"/>
        <pt x="73" y="264" on="1"/>
        <pt x="144" y="292" on="0"/>
        <pt x="245" y="406" on="0"/>
        <pt x="263" y="479" on="1"/>
        <pt x="264" y="482" on="0"/>
        <pt x="266" y="494" on="0"/>
        <pt x="267" y="498" on="0"/>
        <pt x="270" y="506" on="0"/>
        <pt x="274" y="509" on="0"/>
        <pt x="282" y="511" on="0"/>
        <pt x="288" y="511" on="1"/>
        <pt x="309" y="511" on="0"/>
        <pt x="309" y="500" on="1"/>
        <pt x="309" y="497" on="0"/>
        <pt x="303" y="475" on="1"/>
        <pt x="273" y="356" on="0"/>
        <pt x="168" y="273" on="1"/>
        <pt x="165" y="270" on="1"/>
        <pt x="929" y="270" on="1"/>
      </contour>
    </TTGlyph>
    <TTGlyph name="arrowright" xMin="56" yMin="-11" xMax="944" yMax="511">
      <contour>
        <pt x="56" y="237" on="0"/>
        <pt x="56" y="263" on="0"/>
        <pt x="70" y="270" on="1"/>
        <pt x="835" y="270" on="1"/>
        <pt x="764" y="323" on="0"/>
        <pt x="725" y="398" on="1"/>
        <pt x="700" y="446" on="0"/>
        <pt x="692" y="493" on="1"/>
        <pt x="692" y="495" on="0"/>
        <pt x="691" y="499" on="0"/>
        <pt x="691" y="500" on="1"/>
        <pt x="691" y="511" on="0"/>
        <pt x="711" y="511" on="1"/>
        <pt x="723" y="511" on="0"/>
        <pt x="730" y="506" on="0"/>
        <pt x="732" y="497" on="1"/>
        <pt x="735" y="477" on="0"/>
        <pt x="743" y="456" on="1"/>
        <pt x="765" y="389" on="0"/>
        <pt x="867" y="284" on="0"/>
        <pt x="935" y="261" on="1"/>
        <pt x="944" y="258" on="0"/>
        <pt x="944" y="242" on="0"/>
        <pt x="935" y="239" on="1"/>
        <pt x="867" y="216" on="0"/>
        <pt x="765" y="111" on="0"/>
        <pt x="743" y="44" on="1"/>
        <pt x="736" y="23" on="0"/>
        <pt x="732" y="4" on="1"/>
        <pt x="730" y="-6" on="0"/>
        <pt x="723" y="-11" on="0"/>
        <pt x="711" y="-11" on="1"/>
        <pt x="690" y="-11" on="0"/>
        <pt x="690" y="0" on="1"/>
        <pt x="690" y="3" on="0"/>
        <pt x="696" y="25" on="1"/>
        <pt x="727" y="150" on="0"/>
        <pt x="835" y="230" on="1"/>
        <pt x="70" y="230" on="1"/>
      </contour>
    </TTGlyph>
    <TTGlyph name="arrowup" xMin="17" yMin="-193" xMax="483" yMax="694">
      <contour>
        <pt x="27" y="414" on="1"/>
        <pt x="17" y="414" on="0"/>
        <pt x="17" y="433" on="1"/>
        <pt x="17" y="437" on="0"/>
        <pt x="17" y="442" on="0"/>
        <pt x="18" y="446" on="0"/>
        <pt x="20" y="449" on="0"/>
        <pt x="20" y="451" on="0"/>
        <pt x="25" y="453" on="0"/>
        <pt x="27" y="453" on="0"/>
        <pt x="34" y="455" on="0"/>
        <pt x="36" y="456" on="1"/>
        <pt x="78" y="467" on="0"/>
        <pt x="156" y="517" on="0"/>
        <pt x="180" y="549" on="1"/>
        <pt x="227" y="607" on="0"/>
        <pt x="238" y="678" on="1"/>
        <pt x="239" y="694" on="0"/>
        <pt x="251" y="694" on="1"/>
        <pt x="259" y="694" on="0"/>
        <pt x="261" y="684" on="1"/>
        <pt x="261" y="683" on="0"/>
        <pt x="262" y="677" on="0"/>
        <pt x="264" y="670" on="0"/>
        <pt x="264" y="668" on="1"/>
        <pt x="281" y="590" on="0"/>
        <pt x="389" y="475" on="0"/>
        <pt x="464" y="456" on="1"/>
        <pt x="466" y="455" on="0"/>
        <pt x="473" y="453" on="0"/>
        <pt x="475" y="453" on="0"/>
        <pt x="480" y="451" on="0"/>
        <pt x="480" y="449" on="0"/>
        <pt x="482" y="446" on="0"/>
        <pt x="483" y="442" on="0"/>
        <pt x="483" y="437" on="0"/>
        <pt x="483" y="433" on="1"/>
        <pt x="483" y="413" on="0"/>
        <pt x="473" y="413" on="1"/>
        <pt x="467" y="413" on="0"/>
        <pt x="458" y="416" on="1"/>
        <pt x="342" y="448" on="0"/>
        <pt x="277" y="545" on="1"/>
        <pt x="270" y="555" on="1"/>
        <pt x="270" y="-179" on="1"/>
        <pt x="263" y="-193" on="0"/>
        <pt x="237" y="-193" on="0"/>
        <pt x="230" y="-179" on="1"/>
        <pt x="230" y="555" on="1"/>
        <pt x="223" y="545" on="1"/>
        <pt x="177" y="475" on="0"/>
        <pt x="99" y="437" on="1"/>
        <pt x="49" y="414" on="0"/>
      </contour>
    </TTGlyph>
    <TTGlyph name="arrowupdn" xMin="17" yMin="-272" xMax="483" yMax="772">
      <contour>
        <pt x="27" y="492" on="1"/>
        <pt x="17" y="492" on="0"/>
        <pt x="17" y="511" on="1"/>
        <pt x="17" y="515" on="0"/>
        <pt x="17" y="520" on="0"/>
        <pt x="18" y="524" on="0"/>
        <pt x="20" y="527" on="0"/>
        <pt x="20" y="529" on="0"/>
        <pt x="25" y="531" on="0"/>
        <pt x="27" y="531" on="0"/>
        <pt x="34" y="533" on="0"/>
        <pt x="36" y="534" on="1"/>
        <pt x="78" y="545" on="0"/>
        <pt x="156" y="595" on="0"/>
        <pt x="180" y="627" on="1"/>
        <pt x="224" y="682" on="0"/>
        <pt x="236" y="747" on="1"/>
        <pt x="239" y="765" on="0"/>
        <pt x="243" y="769" on="1"/>
        <pt x="246" y="772" on="0"/>
        <pt x="250" y="772" on="1"/>
        <pt x="259" y="772" on="0"/>
        <pt x="261" y="762" on="1"/>
        <pt x="261" y="761" on="0"/>
        <pt x="262" y="755" on="0"/>
        <pt x="264" y="748" on="0"/>
        <pt x="264" y="746" on="1"/>
        <pt x="281" y="668" on="0"/>
        <pt x="390" y="552" on="0"/>
        <pt x="464" y="534" on="1"/>
        <pt x="466" y="533" on="0"/>
        <pt x="473" y="531" on="0"/>
        <pt x="475" y="531" on="0"/>
        <pt x="480" y="529" on="0"/>
        <pt x="480" y="527" on="0"/>
        <pt x="482" y="524" on="0"/>
        <pt x="483" y="520" on="0"/>
        <pt x="483" y="515" on="0"/>
        <pt x="483" y="511" on="1"/>
        <pt x="483" y="491" on="0"/>
        <pt x="473" y="491" on="1"/>
        <pt x="467" y="491" on="0"/>
        <pt x="458" y="494" on="1"/>
        <pt x="342" y="526" on="0"/>
        <pt x="277" y="623" on="1"/>
        <pt x="270" y="633" on="1"/>
        <pt x="270" y="-133" on="1"/>
        <pt x="277" y="-123" on="1"/>
        <pt x="323" y="-53" on="0"/>
        <pt x="402" y="-15" on="1"/>
        <pt x="450" y="8" on="0"/>
        <pt x="473" y="8" on="1"/>
        <pt x="483" y="8" on="0"/>
        <pt x="483" y="-11" on="1"/>
        <pt x="483" y="-15" on="0"/>
        <pt x="483" y="-20" on="0"/>
        <pt x="482" y="-24" on="0"/>
        <pt x="480" y="-27" on="0"/>
        <pt x="480" y="-29" on="0"/>
        <pt x="475" y="-31" on="0"/>
        <pt x="473" y="-31" on="0"/>
        <pt x="466" y="-33" on="0"/>
        <pt x="464" y="-34" on="1"/>
        <pt x="389" y="-53" on="0"/>
        <pt x="281" y="-168" on="0"/>
        <pt x="264" y="-246" on="1"/>
        <pt x="264" y="-248" on="0"/>
        <pt x="262" y="-255" on="0"/>
        <pt x="261" y="-261" on="0"/>
        <pt x="261" y="-262" on="1"/>
        <pt x="259" y="-272" on="0"/>
        <pt x="250" y="-272" on="1"/>
        <pt x="246" y="-272" on="0"/>
        <pt x="243" y="-269" on="1"/>
        <pt x="239" y="-265" on="0"/>
        <pt x="236" y="-246" on="1"/>
        <pt x="227" y="-200" on="0"/>
        <pt x="174" y="-111" on="0"/>
        <pt x="139" y="-86" on="1"/>
        <pt x="91" y="-48" on="0"/>
        <pt x="36" y="-34" on="1"/>
        <pt x="34" y="-33" on="0"/>
        <pt x="27" y="-31" on="0"/>
        <pt x="25" y="-31" on="0"/>
        <pt x="20" y="-29" on="0"/>
        <pt x="20" y="-27" on="0"/>
        <pt x="18" y="-24" on="0"/>
        <pt x="17" y="-20" on="0"/>
        <pt x="17" y="-15" on="0"/>
        <pt x="17" y="-11" on="1"/>
        <pt x="17" y="9" on="0"/>
        <pt x="27" y="9" on="1"/>
        <pt x="33" y="9" on="0"/>
        <pt x="42" y="6" on="1"/>
        <pt x="158" y="-26" on="0"/>
        <pt x="223" y="-123" on="1"/>
        <pt x="230" y="-133" on="1"/>
        <pt x="230" y="633" on="1"/>
        <pt x="223" y="623" on="1"/>
        <pt x="177" y="553" on="0"/>
        <pt x="99" y="515" on="1"/>
        <pt x="49" y="492" on="0"/>
      </contour>
    </TTGlyph>
    <TTGlyph name="asciicircum" xMin="112" yMin="531" xMax="387" yMax="694">
      <contour>
        <pt x="190" y="637" on="1"/>
        <pt x="249" y="694" on="1"/>
        <pt x="257" y="686" on="1"/>
        <pt x="387" y="562" on="0"/>
        <pt x="387" y="560" on="1"/>
        <pt x="381" y="553" on="0"/>
        <pt x="374" y="545" on="1"/>
        <pt x="361" y="531" on="1"/>
        <pt x="357" y="533" on="0"/>
        <pt x="303" y="581" on="1"/>
        <pt x="250" y="627" on="1"/>
        <pt x="195" y="580" on="1"/>
        <pt x="182" y="569" on="0"/>
        <pt x="155" y="545" on="0"/>
        <pt x="148" y="538" on="1"/>
        <pt x="140" y="532" on="1"/>
        <pt x="138" y="530" on="0"/>
        <pt x="125" y="546" on="1"/>
        <pt x="112" y="560" on="1"/>
        <pt x="122" y="570" on="1"/>
        <pt x="158" y="606" on="0"/>
      </contour>
    </TTGlyph>
    <TTGlyph name="asciitilde" xMin="83" yMin="215" xMax="416" yMax="318">
      <contour>
        <pt x="142" y="304" on="1"/>
        <pt x="164" y="318" on="0"/>
        <pt x="187" y="318" on="1"/>
        <pt x="208" y="318" on="0"/>
        <pt x="253" y="300" on="1"/>
        <pt x="296" y="282" on="0"/>
        <pt x="320" y="282" on="1"/>
        <pt x="355" y="282" on="0"/>
        <pt x="381" y="311" on="1"/>
        <pt x="388" y="318" on="1"/>
        <pt x="402" y="306" on="1"/>
        <pt x="416" y="295" on="1"/>
        <pt x="416" y="294" on="0"/>
        <pt x="396" y="270" on="1"/>
        <pt x="363" y="231" on="0"/>
        <pt x="344" y="222" on="1"/>
        <pt x="330" y="215" on="0"/>
        <pt x="313" y="215" on="1"/>
        <pt x="290" y="215" on="0"/>
        <pt x="247" y="233" on="1"/>
        <pt x="203" y="251" on="0"/>
        <pt x="179" y="251" on="1"/>
        <pt x="144" y="251" on="0"/>
        <pt x="118" y="222" on="1"/>
        <pt x="111" y="215" on="1"/>
        <pt x="97" y="227" on="1"/>
        <pt x="83" y="238" on="1"/>
        <pt x="83" y="239" on="0"/>
        <pt x="103" y="263" on="1"/>
        <pt x="133" y="297" on="0"/>
      </contour>
    </TTGlyph>
    <TTGlyph name="asterisk" xMin="64" yMin="320" xMax="435" yMax="750">
      <contour>
        <pt x="100" y="409" on="1"/>
        <pt x="85" y="409" on="0"/>
        <pt x="64" y="432" on="0"/>
        <pt x="64" y="447" on="1"/>
        <pt x="64" y="461" on="0"/>
        <pt x="75" y="470" on="1"/>
        <pt x="126" y="496" on="0"/>
        <pt x="210" y="534" on="1"/>
        <pt x="180" y="548" on="0"/>
        <pt x="144" y="566" on="1"/>
        <pt x="78" y="596" on="0"/>
        <pt x="74" y="600" on="1"/>
        <pt x="64" y="608" on="0"/>
        <pt x="64" y="624" on="1"/>
        <pt x="64" y="646" on="0"/>
        <pt x="86" y="657" on="1"/>
        <pt x="100" y="663" on="0"/>
        <pt x="111" y="657" on="1"/>
        <pt x="115" y="655" on="0"/>
        <pt x="228" y="572" on="0"/>
        <pt x="229" y="571" on="1"/>
        <pt x="229" y="578" on="0"/>
        <pt x="215" y="709" on="0"/>
        <pt x="215" y="721" on="1"/>
        <pt x="216" y="732" on="0"/>
        <pt x="235" y="750" on="0"/>
        <pt x="248" y="750" on="1"/>
        <pt x="263" y="750" on="0"/>
        <pt x="283" y="733" on="0"/>
        <pt x="284" y="721" on="1"/>
        <pt x="270" y="571" on="1"/>
        <pt x="388" y="657" on="1"/>
        <pt x="399" y="663" on="0"/>
        <pt x="413" y="657" on="1"/>
        <pt x="435" y="646" on="0"/>
        <pt x="435" y="624" on="1"/>
        <pt x="435" y="608" on="0"/>
        <pt x="425" y="600" on="1"/>
        <pt x="421" y="596" on="0"/>
        <pt x="355" y="566" on="1"/>
        <pt x="289" y="534" on="1"/>
        <pt x="373" y="496" on="0"/>
        <pt x="424" y="470" on="1"/>
        <pt x="435" y="461" on="0"/>
        <pt x="435" y="447" on="1"/>
        <pt x="435" y="428" on="0"/>
        <pt x="413" y="412" on="1"/>
        <pt x="399" y="406" on="0"/>
        <pt x="388" y="412" on="1"/>
        <pt x="384" y="414" on="0"/>
        <pt x="325" y="458" on="0"/>
        <pt x="298" y="478" on="1"/>
        <pt x="270" y="498" on="1"/>
        <pt x="277" y="423" on="1"/>
        <pt x="284" y="348" on="1"/>
        <pt x="283" y="337" on="0"/>
        <pt x="264" y="320" on="0"/>
        <pt x="250" y="320" on="1"/>
        <pt x="235" y="320" on="0"/>
        <pt x="216" y="336" on="0"/>
        <pt x="215" y="348" on="1"/>
        <pt x="229" y="498" on="1"/>
        <pt x="207" y="482" on="0"/>
        <pt x="144" y="436" on="0"/>
        <pt x="114" y="413" on="0"/>
        <pt x="111" y="412" on="1"/>
        <pt x="105" y="409" on="0"/>
      </contour>
    </TTGlyph>
    <TTGlyph name="asteriskmath" xMin="64" yMin="35" xMax="435" yMax="465">
      <contour>
        <pt x="229" y="286" on="1"/>
        <pt x="216" y="420" on="0"/>
        <pt x="216" y="436" on="1"/>
        <pt x="216" y="455" on="0"/>
        <pt x="240" y="464" on="1"/>
        <pt x="241" y="464" on="0"/>
        <pt x="249" y="465" on="0"/>
        <pt x="251" y="465" on="1"/>
        <pt x="264" y="464" on="0"/>
        <pt x="283" y="448" on="0"/>
        <pt x="283" y="436" on="1"/>
        <pt x="283" y="419" on="0"/>
        <pt x="270" y="292" on="0"/>
        <pt x="270" y="286" on="1"/>
        <pt x="275" y="290" on="0"/>
        <pt x="335" y="333" on="0"/>
        <pt x="362" y="352" on="1"/>
        <pt x="389" y="372" on="1"/>
        <pt x="395" y="375" on="0"/>
        <pt x="401" y="375" on="1"/>
        <pt x="414" y="375" on="0"/>
        <pt x="435" y="351" on="0"/>
        <pt x="435" y="325" on="0"/>
        <pt x="425" y="315" on="1"/>
        <pt x="423" y="313" on="0"/>
        <pt x="295" y="252" on="1"/>
        <pt x="289" y="250" on="1"/>
        <pt x="335" y="228" on="0"/>
        <pt x="425" y="184" on="1"/>
        <pt x="434" y="175" on="0"/>
        <pt x="434" y="161" on="1"/>
        <pt x="434" y="146" on="0"/>
        <pt x="416" y="125" on="0"/>
        <pt x="401" y="125" on="1"/>
        <pt x="393" y="125" on="0"/>
        <pt x="389" y="127" on="1"/>
        <pt x="386" y="129" on="0"/>
        <pt x="270" y="213" on="1"/>
        <pt x="283" y="79" on="0"/>
        <pt x="283" y="63" on="1"/>
        <pt x="283" y="50" on="0"/>
        <pt x="264" y="35" on="0"/>
        <pt x="250" y="35" on="1"/>
        <pt x="235" y="35" on="0"/>
        <pt x="216" y="50" on="0"/>
        <pt x="216" y="63" on="1"/>
        <pt x="216" y="80" on="0"/>
        <pt x="229" y="207" on="0"/>
        <pt x="229" y="213" on="1"/>
        <pt x="224" y="209" on="0"/>
        <pt x="164" y="166" on="0"/>
        <pt x="137" y="146" on="1"/>
        <pt x="110" y="127" on="1"/>
        <pt x="104" y="124" on="0"/>
        <pt x="98" y="124" on="1"/>
        <pt x="85" y="124" on="0"/>
        <pt x="64" y="148" on="0"/>
        <pt x="64" y="174" on="0"/>
        <pt x="74" y="184" on="1"/>
        <pt x="75" y="185" on="0"/>
        <pt x="112" y="202" on="0"/>
        <pt x="181" y="236" on="0"/>
        <pt x="210" y="250" on="1"/>
        <pt x="144" y="281" on="1"/>
        <pt x="98" y="303" on="0"/>
        <pt x="74" y="315" on="1"/>
        <pt x="65" y="324" on="0"/>
        <pt x="65" y="338" on="1"/>
        <pt x="65" y="353" on="0"/>
        <pt x="83" y="374" on="0"/>
        <pt x="98" y="374" on="1"/>
        <pt x="106" y="374" on="0"/>
        <pt x="110" y="372" on="1"/>
        <pt x="113" y="370" on="0"/>
      </contour>
    </TTGlyph>
    <TTGlyph name="at" xMin="56" yMin="-11" xMax="722" yMax="705">
      <contour>
        <pt x="722" y="349" on="1"/>
        <pt x="722" y="301" on="0"/>
        <pt x="713" y="230" on="0"/>
        <pt x="691" y="162" on="0"/>
        <pt x="643" y="126" on="0"/>
        <pt x="608" y="126" on="1"/>
        <pt x="539" y="126" on="0"/>
        <pt x="513" y="176" on="1"/>
        <pt x="512" y="177" on="0"/>
        <pt x="511" y="181" on="0"/>
        <pt x="510" y="182" on="1"/>
        <pt x="509" y="183" on="1"/>
        <pt x="504" y="178" on="0"/>
        <pt x="497" y="172" on="1"/>
        <pt x="451" y="126" on="0"/>
        <pt x="385" y="126" on="1"/>
        <pt x="366" y="126" on="0"/>
        <pt x="360" y="127" on="1"/>
        <pt x="231" y="157" on="0"/>
        <pt x="197" y="286" on="1"/>
        <pt x="190" y="314" on="0"/>
        <pt x="190" y="347" on="1"/>
        <pt x="190" y="425" on="0"/>
        <pt x="227" y="477" on="1"/>
        <pt x="273" y="550" on="0"/>
        <pt x="360" y="567" on="1"/>
        <pt x="366" y="568" on="0"/>
        <pt x="385" y="568" on="1"/>
        <pt x="473" y="568" on="0"/>
        <pt x="528" y="485" on="1"/>
        <pt x="531" y="479" on="1"/>
        <pt x="555" y="479" on="1"/>
        <pt x="580" y="479" on="0"/>
        <pt x="582" y="478" on="1"/>
        <pt x="586" y="477" on="0"/>
        <pt x="587" y="468" on="1"/>
        <pt x="588" y="454" on="0"/>
        <pt x="588" y="338" on="1"/>
        <pt x="588" y="195" on="0"/>
        <pt x="593" y="182" on="1"/>
        <pt x="601" y="163" on="0"/>
        <pt x="619" y="163" on="1"/>
        <pt x="634" y="163" on="0"/>
        <pt x="644" y="170" on="1"/>
        <pt x="682" y="196" on="0"/>
        <pt x="682" y="330" on="1"/>
        <pt x="682" y="426" on="0"/>
        <pt x="647" y="500" on="1"/>
        <pt x="599" y="595" on="0"/>
        <pt x="509" y="639" on="1"/>
        <pt x="449" y="668" on="0"/>
        <pt x="388" y="668" on="1"/>
        <pt x="328" y="668" on="0"/>
        <pt x="268" y="639" on="1"/>
        <pt x="191" y="601" on="0"/>
        <pt x="96" y="450" on="0"/>
        <pt x="96" y="347" on="1"/>
        <pt x="96" y="296" on="0"/>
        <pt x="109" y="250" on="1"/>
        <pt x="132" y="167" on="0"/>
        <pt x="257" y="46" on="0"/>
        <pt x="343" y="30" on="1"/>
        <pt x="363" y="26" on="0"/>
        <pt x="396" y="26" on="1"/>
        <pt x="457" y="26" on="0"/>
        <pt x="601" y="58" on="0"/>
        <pt x="650" y="81" on="1"/>
        <pt x="657" y="84" on="1"/>
        <pt x="716" y="84" on="1"/>
        <pt x="722" y="78" on="0"/>
        <pt x="722" y="74" on="1"/>
        <pt x="722" y="65" on="0"/>
        <pt x="639" y="33" on="1"/>
        <pt x="518" y="-11" on="0"/>
        <pt x="392" y="-11" on="1"/>
        <pt x="315" y="-11" on="0"/>
        <pt x="247" y="23" on="1"/>
        <pt x="171" y="61" on="0"/>
        <pt x="69" y="207" on="0"/>
        <pt x="57" y="304" on="1"/>
        <pt x="56" y="314" on="0"/>
        <pt x="56" y="347" on="1"/>
        <pt x="56" y="493" on="0"/>
        <pt x="234" y="692" on="0"/>
        <pt x="361" y="704" on="1"/>
        <pt x="369" y="705" on="0"/>
        <pt x="386" y="705" on="1"/>
        <pt x="462" y="705" on="0"/>
        <pt x="530" y="671" on="1"/>
        <pt x="606" y="633" on="0"/>
        <pt x="708" y="487" on="0"/>
        <pt x="720" y="391" on="1"/>
        <pt x="722" y="369" on="0"/>
      </contour>
      <contour>
        <pt x="413" y="529" on="1"/>
        <pt x="402" y="532" on="0"/>
        <pt x="387" y="532" on="1"/>
        <pt x="377" y="532" on="0"/>
        <pt x="374" y="531" on="1"/>
        <pt x="328" y="520" on="0"/>
        <pt x="274" y="414" on="0"/>
        <pt x="274" y="347" on="1"/>
        <pt x="274" y="264" on="0"/>
        <pt x="309" y="214" on="1"/>
        <pt x="343" y="162" on="0"/>
        <pt x="390" y="162" on="1"/>
        <pt x="401" y="162" on="0"/>
        <pt x="413" y="165" on="1"/>
        <pt x="465" y="179" on="0"/>
        <pt x="498" y="235" on="1"/>
        <pt x="504" y="245" on="1"/>
        <pt x="504" y="449" on="1"/>
        <pt x="498" y="459" on="1"/>
        <pt x="465" y="515" on="0"/>
      </contour>
    </TTGlyph>
    <TTGlyph name="b" xMin="20" yMin="-11" xMax="522" yMax="694">
      <contour>
        <pt x="98" y="688" on="1"/>
        <pt x="115" y="689" on="0"/>
        <pt x="155" y="692" on="0"/>
        <pt x="175" y="694" on="0"/>
        <pt x="176" y="694" on="1"/>
        <pt x="179" y="694" on="1"/>
        <pt x="179" y="543" on="1"/>
        <pt x="179" y="391" on="0"/>
        <pt x="180" y="391" on="1"/>
        <pt x="183" y="393" on="0"/>
        <pt x="186" y="396" on="1"/>
        <pt x="241" y="442" on="0"/>
        <pt x="323" y="442" on="1"/>
        <pt x="341" y="442" on="0"/>
        <pt x="356" y="439" on="1"/>
        <pt x="427" y="425" on="0"/>
        <pt x="522" y="304" on="0"/>
        <pt x="522" y="216" on="1"/>
        <pt x="522" y="197" on="0"/>
        <pt x="520" y="181" on="1"/>
        <pt x="507" y="100" on="0"/>
        <pt x="392" y="-11" on="0"/>
        <pt x="307" y="-11" on="1"/>
        <pt x="230" y="-11" on="0"/>
        <pt x="175" y="48" on="1"/>
        <pt x="168" y="55" on="1"/>
        <pt x="158" y="37" on="1"/>
        <pt x="156" y="34" on="0"/>
        <pt x="149" y="21" on="0"/>
        <pt x="144" y="12" on="0"/>
        <pt x="143" y="10" on="1"/>
        <pt x="138" y="1" on="1"/>
        <pt x="118" y="0" on="1"/>
        <pt x="98" y="0" on="1"/>
        <pt x="98" y="298" on="1"/>
        <pt x="98" y="599" on="0"/>
        <pt x="97" y="603" on="1"/>
        <pt x="94" y="622" on="0"/>
        <pt x="71" y="635" on="0"/>
        <pt x="38" y="637" on="1"/>
        <pt x="20" y="637" on="1"/>
        <pt x="20" y="660" on="1"/>
        <pt x="20" y="683" on="0"/>
        <pt x="22" y="683" on="1"/>
        <pt x="32" y="684" on="1"/>
        <pt x="42" y="685" on="0"/>
        <pt x="80" y="687" on="0"/>
      </contour>
      <contour>
        <pt x="331" y="402" on="1"/>
        <pt x="307" y="405" on="0"/>
        <pt x="300" y="405" on="1"/>
        <pt x="230" y="405" on="0"/>
        <pt x="188" y="347" on="1"/>
        <pt x="182" y="339" on="1"/>
        <pt x="182" y="98" on="1"/>
        <pt x="187" y="91" on="1"/>
        <pt x="217" y="43" on="0"/>
        <pt x="264" y="30" on="1"/>
        <pt x="277" y="26" on="0"/>
        <pt x="295" y="26" on="1"/>
        <pt x="359" y="26" on="0"/>
        <pt x="396" y="80" on="1"/>
        <pt x="404" y="91" on="0"/>
        <pt x="412" y="113" on="1"/>
        <pt x="424" y="148" on="0"/>
        <pt x="424" y="212" on="1"/>
        <pt x="424" y="286" on="0"/>
        <pt x="412" y="323" on="1"/>
        <pt x="391" y="386" on="0"/>
      </contour>
    </TTGlyph>
    <TTGlyph name="backslash" xMin="56" yMin="-250" xMax="444" yMax="750">
      <contour>
        <pt x="56" y="731" on="1"/>
        <pt x="56" y="738" on="0"/>
        <pt x="68" y="750" on="0"/>
        <pt x="75" y="750" on="1"/>
        <pt x="85" y="750" on="0"/>
        <pt x="92" y="740" on="1"/>
        <pt x="96" y="733" on="0"/>
        <pt x="444" y="-224" on="0"/>
        <pt x="444" y="-238" on="0"/>
        <pt x="432" y="-250" on="0"/>
        <pt x="424" y="-250" on="1"/>
        <pt x="414" y="-250" on="0"/>
        <pt x="407" y="-240" on="1"/>
        <pt x="404" y="-236" on="0"/>
        <pt x="56" y="721" on="0"/>
      </contour>
    </TTGlyph>
    <TTGlyph name="bar" xMin="119" yMin="-249" xMax="159" yMax="750">
      <contour>
        <pt x="152" y="-249" on="0"/>
        <pt x="126" y="-249" on="0"/>
        <pt x="119" y="-235" on="1"/>
        <pt x="119" y="251" on="1"/>
        <pt x="120" y="737" on="1"/>
        <pt x="130" y="750" on="0"/>
        <pt x="139" y="750" on="1"/>
        <pt x="152" y="750" on="0"/>
        <pt x="159" y="735" on="1"/>
        <pt x="159" y="-235" on="1"/>
      </contour>
    </TTGlyph>
    <TTGlyph name="braceleft" xMin="65" yMin="-250" xMax="434" yMax="750">
      <contour>
        <pt x="434" y="-231" on="1"/>
        <pt x="434" y="-244" on="0"/>
        <pt x="428" y="-250" on="1"/>
        <pt x="410" y="-250" on="1"/>
        <pt x="334" y="-250" on="0"/>
        <pt x="225" y="-199" on="0"/>
        <pt x="212" y="-145" on="1"/>
        <pt x="210" y="-138" on="0"/>
        <pt x="209" y="0" on="1"/>
        <pt x="209" y="21" on="0"/>
        <pt x="209" y="53" on="1"/>
        <pt x="208" y="142" on="0"/>
        <pt x="204" y="153" on="1"/>
        <pt x="203" y="154" on="0"/>
        <pt x="203" y="155" on="1"/>
        <pt x="191" y="186" on="0"/>
        <pt x="123" y="231" on="0"/>
        <pt x="82" y="231" on="1"/>
        <pt x="71" y="231" on="0"/>
        <pt x="65" y="237" on="0"/>
        <pt x="65" y="263" on="0"/>
        <pt x="71" y="269" on="0"/>
        <pt x="82" y="269" on="1"/>
        <pt x="123" y="269" on="0"/>
        <pt x="191" y="314" on="0"/>
        <pt x="203" y="345" on="1"/>
        <pt x="207" y="357" on="0"/>
        <pt x="208" y="383" on="0"/>
        <pt x="209" y="501" on="1"/>
        <pt x="210" y="638" on="0"/>
        <pt x="212" y="645" on="1"/>
        <pt x="220" y="677" on="0"/>
        <pt x="244" y="698" on="1"/>
        <pt x="270" y="724" on="0"/>
        <pt x="324" y="740" on="1"/>
        <pt x="361" y="748" on="0"/>
        <pt x="377" y="749" on="1"/>
        <pt x="379" y="749" on="0"/>
        <pt x="402" y="750" on="0"/>
        <pt x="408" y="750" on="1"/>
        <pt x="428" y="750" on="1"/>
        <pt x="434" y="744" on="0"/>
        <pt x="434" y="732" on="1"/>
        <pt x="434" y="719" on="0"/>
        <pt x="431" y="716" on="1"/>
        <pt x="429" y="713" on="0"/>
        <pt x="415" y="713" on="1"/>
        <pt x="359" y="710" on="0"/>
        <pt x="322" y="681" on="1"/>
        <pt x="302" y="666" on="0"/>
        <pt x="296" y="647" on="1"/>
        <pt x="291" y="634" on="0"/>
        <pt x="291" y="499" on="1"/>
        <pt x="291" y="369" on="0"/>
        <pt x="290" y="363" on="1"/>
        <pt x="280" y="285" on="0"/>
        <pt x="170" y="250" on="1"/>
        <pt x="221" y="232" on="0"/>
        <pt x="285" y="180" on="0"/>
        <pt x="290" y="137" on="1"/>
        <pt x="291" y="131" on="0"/>
        <pt x="291" y="1" on="1"/>
        <pt x="291" y="-134" on="0"/>
        <pt x="296" y="-147" on="1"/>
        <pt x="306" y="-175" on="0"/>
        <pt x="374" y="-211" on="0"/>
        <pt x="415" y="-213" on="1"/>
        <pt x="429" y="-213" on="0"/>
        <pt x="431" y="-216" on="1"/>
        <pt x="434" y="-219" on="0"/>
      </contour>
    </TTGlyph>
    <TTGlyph name="braceright" xMin="65" yMin="-250" xMax="434" yMax="750">
      <contour>
        <pt x="65" y="731" on="1"/>
        <pt x="65" y="744" on="0"/>
        <pt x="69" y="750" on="0"/>
        <pt x="79" y="750" on="1"/>
        <pt x="88" y="750" on="1"/>
        <pt x="168" y="750" on="0"/>
        <pt x="274" y="696" on="0"/>
        <pt x="288" y="645" on="1"/>
        <pt x="291" y="636" on="0"/>
        <pt x="292" y="365" on="0"/>
        <pt x="293" y="357" on="1"/>
        <pt x="303" y="321" on="0"/>
        <pt x="373" y="269" on="0"/>
        <pt x="417" y="269" on="1"/>
        <pt x="428" y="269" on="0"/>
        <pt x="434" y="263" on="0"/>
        <pt x="434" y="237" on="0"/>
        <pt x="428" y="231" on="0"/>
        <pt x="417" y="231" on="1"/>
        <pt x="378" y="231" on="0"/>
        <pt x="309" y="187" on="0"/>
        <pt x="298" y="157" on="1"/>
        <pt x="293" y="144" on="0"/>
        <pt x="292" y="117" on="0"/>
        <pt x="291" y="0" on="1"/>
        <pt x="290" y="-138" on="0"/>
        <pt x="288" y="-145" on="1"/>
        <pt x="280" y="-177" on="0"/>
        <pt x="256" y="-198" on="1"/>
        <pt x="202" y="-250" on="0"/>
        <pt x="89" y="-250" on="1"/>
        <pt x="78" y="-250" on="1"/>
        <pt x="70" y="-250" on="0"/>
        <pt x="65" y="-243" on="0"/>
        <pt x="65" y="-230" on="1"/>
        <pt x="65" y="-219" on="0"/>
        <pt x="69" y="-213" on="0"/>
        <pt x="77" y="-213" on="1"/>
        <pt x="126" y="-213" on="0"/>
        <pt x="197" y="-171" on="0"/>
        <pt x="207" y="-139" on="1"/>
        <pt x="208" y="-134" on="0"/>
        <pt x="209" y="3" on="1"/>
        <pt x="210" y="139" on="1"/>
        <pt x="230" y="223" on="0"/>
        <pt x="330" y="250" on="1"/>
        <pt x="297" y="261" on="0"/>
        <pt x="280" y="270" on="1"/>
        <pt x="225" y="303" on="0"/>
        <pt x="212" y="352" on="1"/>
        <pt x="210" y="362" on="1"/>
        <pt x="209" y="498" on="1"/>
        <pt x="208" y="635" on="0"/>
        <pt x="207" y="640" on="1"/>
        <pt x="197" y="672" on="0"/>
        <pt x="126" y="713" on="0"/>
        <pt x="77" y="713" on="1"/>
        <pt x="69" y="713" on="0"/>
        <pt x="65" y="719" on="0"/>
      </contour>
    </TTGlyph>
    <TTGlyph name="bracketleft" xMin="118" yMin="-250" xMax="255" yMax="750">
      <contour>
        <pt x="118" y="-250" on="1"/>
        <pt x="118" y="750" on="1"/>
        <pt x="255" y="750" on="1"/>
        <pt x="255" y="710" on="1"/>
        <pt x="158" y="710" on="1"/>
        <pt x="158" y="-210" on="1"/>
        <pt x="255" y="-210" on="1"/>
        <pt x="255" y="-250" on="1"/>
      </contour>
    </TTGlyph>
    <TTGlyph name="bracketright" xMin="22" yMin="-250" xMax="159" yMax="750">
      <contour>
        <pt x="22" y="710" on="1"/>
        <pt x="22" y="750" on="1"/>
        <pt x="159" y="750" on="1"/>
        <pt x="159" y="-250" on="1"/>
        <pt x="22" y="-250" on="1"/>
        <pt x="22" y="-210" on="1"/>
        <pt x="119" y="-210" on="1"/>
        <pt x="119" y="710" on="1"/>
      </contour>
    </TTGlyph>
    <TTGlyph name="breve" xMin="92" yMin="515" xMax="407" yMax="694">
      <contour>
        <pt x="130" y="675" on="1"/>
        <pt x="138" y="629" on="0"/>
        <pt x="202" y="567" on="0"/>
        <pt x="248" y="567" on="1"/>
        <pt x="282" y="567" on="0"/>
        <pt x="340" y="603" on="0"/>
        <pt x="356" y="636" on="1"/>
        <pt x="370" y="666" on="0"/>
        <pt x="370" y="689" on="1"/>
        <pt x="370" y="694" on="1"/>
        <pt x="407" y="694" on="1"/>
        <pt x="407" y="683" on="1"/>
        <pt x="403" y="626" on="0"/>
        <pt x="343" y="538" on="0"/>
        <pt x="297" y="522" on="1"/>
        <pt x="277" y="515" on="0"/>
        <pt x="250" y="515" on="1"/>
        <pt x="222" y="515" on="0"/>
        <pt x="202" y="522" on="1"/>
        <pt x="156" y="538" on="0"/>
        <pt x="96" y="626" on="0"/>
        <pt x="92" y="683" on="1"/>
        <pt x="92" y="694" on="1"/>
        <pt x="129" y="694" on="1"/>
        <pt x="129" y="689" on="1"/>
        <pt x="129" y="688" on="0"/>
        <pt x="130" y="678" on="0"/>
      </contour>
    </TTGlyph>
    <TTGlyph name="c" xMin="34" yMin="-11" xMax="415" yMax="448">
      <contour>
        <pt x="373" y="305" on="0"/>
        <pt x="327" y="305" on="0"/>
        <pt x="297" y="336" on="0"/>
        <pt x="297" y="358" on="1"/>
        <pt x="297" y="381" on="0"/>
        <pt x="312" y="396" on="1"/>
        <pt x="317" y="401" on="0"/>
        <pt x="316" y="403" on="0"/>
        <pt x="307" y="404" on="1"/>
        <pt x="281" y="408" on="0"/>
        <pt x="258" y="408" on="1"/>
        <pt x="207" y="408" on="0"/>
        <pt x="178" y="376" on="1"/>
        <pt x="131" y="329" on="0"/>
        <pt x="131" y="219" on="1"/>
        <pt x="131" y="137" on="0"/>
        <pt x="162" y="90" on="1"/>
        <pt x="203" y="29" on="0"/>
        <pt x="272" y="29" on="1"/>
        <pt x="297" y="29" on="0"/>
        <pt x="316" y="39" on="1"/>
        <pt x="358" y="60" on="0"/>
        <pt x="374" y="117" on="1"/>
        <pt x="376" y="125" on="0"/>
        <pt x="382" y="129" on="0"/>
        <pt x="395" y="129" on="1"/>
        <pt x="409" y="129" on="1"/>
        <pt x="415" y="123" on="0"/>
        <pt x="415" y="120" on="1"/>
        <pt x="415" y="101" on="0"/>
        <pt x="390" y="61" on="1"/>
        <pt x="340" y="-11" on="0"/>
        <pt x="249" y="-11" on="1"/>
        <pt x="199" y="-11" on="0"/>
        <pt x="154" y="12" on="1"/>
        <pt x="55" y="63" on="0"/>
        <pt x="35" y="182" on="1"/>
        <pt x="34" y="188" on="0"/>
        <pt x="34" y="240" on="0"/>
        <pt x="35" y="247" on="1"/>
        <pt x="47" y="341" on="0"/>
        <pt x="117" y="400" on="1"/>
        <pt x="177" y="448" on="0"/>
        <pt x="250" y="448" on="1"/>
        <pt x="379" y="448" on="0"/>
        <pt x="401" y="380" on="1"/>
        <pt x="404" y="371" on="0"/>
        <pt x="404" y="357" on="1"/>
        <pt x="404" y="334" on="0"/>
      </contour>
    </TTGlyph>
    <TTGlyph name="caron" xMin="114" yMin="513" xMax="385" yMax="644">
      <contour>
        <pt x="114" y="611" on="1"/>
        <pt x="120" y="620" on="1"/>
        <pt x="125" y="628" on="0"/>
        <pt x="135" y="642" on="0"/>
        <pt x="136" y="644" on="1"/>
        <pt x="138" y="644" on="0"/>
        <pt x="193" y="612" on="1"/>
        <pt x="248" y="581" on="0"/>
        <pt x="252" y="581" on="0"/>
        <pt x="362" y="644" on="0"/>
        <pt x="363" y="644" on="1"/>
        <pt x="367" y="638" on="0"/>
        <pt x="382" y="616" on="0"/>
        <pt x="385" y="611" on="1"/>
        <pt x="318" y="562" on="1"/>
        <pt x="249" y="513" on="1"/>
        <pt x="219" y="535" on="0"/>
        <pt x="181" y="562" on="1"/>
      </contour>
    </TTGlyph>
    <TTGlyph name="circlemultiply" xMin="56" yMin="-83" xMax="722" yMax="583">
      <contour>
        <pt x="151" y="485" on="1"/>
        <pt x="254" y="583" on="0"/>
        <pt x="384" y="583" on="1"/>
        <pt x="525" y="583" on="0"/>
        <pt x="626" y="485" on="1"/>
        <pt x="722" y="382" on="0"/>
        <pt x="722" y="250" on="1"/>
        <pt x="722" y="228" on="0"/>
        <pt x="720" y="214" on="1"/>
        <pt x="705" y="98" on="0"/>
        <pt x="626" y="15" on="1"/>
        <pt x="566" y="-43" on="0"/>
        <pt x="488" y="-68" on="1"/>
        <pt x="440" y="-83" on="0"/>
        <pt x="390" y="-83" on="1"/>
        <pt x="309" y="-83" on="0"/>
        <pt x="237" y="-47" on="1"/>
        <pt x="191" y="-23" on="0"/>
        <pt x="151" y="15" on="1"/>
        <pt x="56" y="117" on="0"/>
        <pt x="56" y="250" on="1"/>
        <pt x="56" y="279" on="0"/>
        <pt x="57" y="286" on="1"/>
        <pt x="72" y="402" on="0"/>
      </contour>
      <contour>
        <pt x="564" y="485" on="1"/>
        <pt x="489" y="542" on="0"/>
        <pt x="381" y="542" on="1"/>
        <pt x="353" y="542" on="0"/>
        <pt x="330" y="537" on="1"/>
        <pt x="245" y="520" on="0"/>
        <pt x="196" y="471" on="1"/>
        <pt x="389" y="278" on="1"/>
        <pt x="485" y="375" on="0"/>
        <pt x="582" y="471" on="1"/>
        <pt x="579" y="473" on="0"/>
        <pt x="569" y="482" on="0"/>
      </contour>
      <contour>
        <pt x="167" y="442" on="1"/>
        <pt x="95" y="362" on="0"/>
        <pt x="95" y="250" on="1"/>
        <pt x="95" y="137" on="0"/>
        <pt x="167" y="58" on="1"/>
        <pt x="211" y="101" on="0"/>
        <pt x="264" y="154" on="1"/>
        <pt x="359" y="250" on="1"/>
        <pt x="263" y="346" on="1"/>
      </contour>
      <contour>
        <pt x="610" y="58" on="1"/>
        <pt x="682" y="138" on="0"/>
        <pt x="682" y="250" on="1"/>
        <pt x="682" y="363" on="0"/>
        <pt x="610" y="442" on="1"/>
        <pt x="566" y="399" on="0"/>
        <pt x="514" y="346" on="1"/>
        <pt x="418" y="250" on="1"/>
        <pt x="514" y="154" on="1"/>
      </contour>
      <contour>
        <pt x="388" y="-42" on="1"/>
        <pt x="498" y="-42" on="0"/>
        <pt x="578" y="26" on="1"/>
        <pt x="582" y="29" on="1"/>
        <pt x="452" y="157" on="0"/>
        <pt x="388" y="222" on="1"/>
        <pt x="324" y="157" on="0"/>
        <pt x="196" y="29" on="1"/>
        <pt x="267" y="-42" on="0"/>
      </contour>
    </TTGlyph>
</ttFont>
